<mxfile host="Electron" modified="2023-08-17T07:40:50.209Z" agent="Mozilla/5.0 (Macintosh; Intel Mac OS X 10_15_7) AppleWebKit/537.36 (KHTML, like Gecko) draw.io/21.2.8 Chrome/112.0.5615.165 Electron/24.2.0 Safari/537.36" etag="hquPkC4krLbLePQ1DwH-" version="21.2.8" type="device">
  <diagram id="kgpKYQtTHZ0yAKxKKP6v" name="Page-1">
    <mxGraphModel dx="755" dy="941" grid="1" gridSize="10" guides="1" tooltips="1" connect="1" arrows="1" fold="1" page="1" pageScale="1" pageWidth="850" pageHeight="1100" math="0" shadow="0">
      <root>
        <mxCell id="0" />
        <mxCell id="1" parent="0" />
        <mxCell id="cIYBzhSVWRX3Auf7i21r-1" value="" style="swimlane;startSize=0;" parent="1" vertex="1">
          <mxGeometry x="60" y="70" width="750" height="360" as="geometry" />
        </mxCell>
        <mxCell id="cIYBzhSVWRX3Auf7i21r-4" value="" style="swimlane;startSize=0;" parent="cIYBzhSVWRX3Auf7i21r-1" vertex="1">
          <mxGeometry x="270" y="60" width="220" height="280" as="geometry" />
        </mxCell>
        <mxCell id="cIYBzhSVWRX3Auf7i21r-102" value="" style="rounded=0;whiteSpace=wrap;html=1;shadow=1;fontFamily=Times New Roman;fontSize=12;fontColor=default;strokeColor=#000000;fillColor=#D4E1F5;" parent="cIYBzhSVWRX3Auf7i21r-4" vertex="1">
          <mxGeometry x="-0.009999999999990905" width="220" height="280" as="geometry" />
        </mxCell>
        <mxCell id="cIYBzhSVWRX3Auf7i21r-55" value="" style="rounded=0;whiteSpace=wrap;html=1;shadow=0;fontFamily=Times New Roman;fontSize=4;fontColor=default;strokeColor=#000000;fillColor=#FFFFFF;" parent="cIYBzhSVWRX3Auf7i21r-4" vertex="1">
          <mxGeometry x="10" y="100" width="199.99" height="100" as="geometry" />
        </mxCell>
        <mxCell id="cIYBzhSVWRX3Auf7i21r-16" value="" style="rounded=0;whiteSpace=wrap;html=1;fillColor=#D4E1F5;" parent="cIYBzhSVWRX3Auf7i21r-4" vertex="1">
          <mxGeometry x="10" y="10" width="200" height="70" as="geometry" />
        </mxCell>
        <mxCell id="cIYBzhSVWRX3Auf7i21r-27" value="&lt;font style=&quot;font-size: 12px&quot;&gt;Linear Regression, Ridge Regression, KNN Regressor, Decision Tree Regressor and XGBoost Regressor&lt;/font&gt;" style="text;html=1;strokeColor=#000000;fillColor=#FFFFFF;align=center;verticalAlign=middle;whiteSpace=wrap;rounded=0;fontFamily=Times New Roman;fontSize=14;shadow=0;" parent="cIYBzhSVWRX3Auf7i21r-4" vertex="1">
          <mxGeometry x="10" y="10" width="200" height="70" as="geometry" />
        </mxCell>
        <mxCell id="cIYBzhSVWRX3Auf7i21r-32" value="" style="shape=step;perimeter=stepPerimeter;whiteSpace=wrap;html=1;fixedSize=1;rounded=0;fontFamily=Helvetica;fontSize=12;fontColor=default;strokeColor=#000000;fillColor=#CCCCCC;rotation=90;size=7.5;" parent="cIYBzhSVWRX3Auf7i21r-4" vertex="1">
          <mxGeometry x="93.77" y="80.79" width="32.44" height="18.12" as="geometry" />
        </mxCell>
        <mxCell id="cIYBzhSVWRX3Auf7i21r-37" value="&lt;font face=&quot;Times New Roman&quot; style=&quot;font-size: 14px&quot;&gt;&lt;i&gt;&lt;b&gt;Hyperparameter Tuning&lt;/b&gt;&lt;/i&gt;&lt;/font&gt;" style="text;html=1;strokeColor=none;fillColor=none;align=center;verticalAlign=middle;whiteSpace=wrap;rounded=0;fontFamily=Helvetica;fontSize=12;fontColor=default;" parent="cIYBzhSVWRX3Auf7i21r-4" vertex="1">
          <mxGeometry x="10" y="100" width="200" height="30" as="geometry" />
        </mxCell>
        <mxCell id="cIYBzhSVWRX3Auf7i21r-38" value="&lt;font face=&quot;Times New Roman&quot; style=&quot;font-size: 12px&quot;&gt;Grid Search Method&lt;/font&gt;" style="text;html=1;strokeColor=none;fillColor=none;align=center;verticalAlign=middle;whiteSpace=wrap;rounded=0;fontFamily=Helvetica;fontSize=12;fontColor=default;" parent="cIYBzhSVWRX3Auf7i21r-4" vertex="1">
          <mxGeometry x="10" y="120" width="200" height="20" as="geometry" />
        </mxCell>
        <mxCell id="cIYBzhSVWRX3Auf7i21r-41" value="&lt;p&gt;&lt;/p&gt;&lt;div&gt;&lt;div style=&quot;text-align: justify&quot;&gt;&lt;span style=&quot;font-size: 6px&quot;&gt;Linear&lt;/span&gt;&lt;/div&gt;&lt;span style=&quot;font-size: 6px&quot;&gt;&lt;div style=&quot;text-align: justify&quot;&gt;&lt;span&gt;Ridge : alpha&lt;br&gt;&lt;/span&gt;&lt;span&gt;KNN: n_neighbors, weights, metrics&lt;br&gt;&lt;/span&gt;&lt;span&gt;Decision Tree: max_depth, min_samples_leaf , min_samples_split&lt;br&gt;&lt;/span&gt;&lt;span&gt;XGBoost: learning_rate, max_depth, n_estimators&lt;/span&gt;&lt;/div&gt;&lt;/span&gt;&lt;/div&gt;&lt;p&gt;&lt;/p&gt;" style="text;html=1;strokeColor=none;fillColor=none;align=center;verticalAlign=middle;whiteSpace=wrap;rounded=0;shadow=0;fontFamily=Times New Roman;fontSize=12;fontColor=default;" parent="cIYBzhSVWRX3Auf7i21r-4" vertex="1">
          <mxGeometry x="10" y="130" width="200" height="60" as="geometry" />
        </mxCell>
        <mxCell id="cIYBzhSVWRX3Auf7i21r-45" value="" style="shape=image;aspect=fixed;image=data:image/png,iVBORw0KGgoAAAANSUhEUgAAAMgAAADICAYAAACtWK6eAAAABHNCSVQICAgIfAhkiAAAAAlwSFlzAAALEwAACxMBAJqcGAAACPZJREFUeJzt3X+sV2UdwPE3eCEgikBGGiVgmmXeppaUJgjOclCuJEYpY7NabUa/tv5olbW1CqvhQhuZOWZbGTX/qD+klKxVUlZGOu2HpI00U34oSSDEj3tvf3xgY3TOud/v9zznfM/3y/u1PXM7eD/f59z7POd7znM+z/OAJEmSJEmSJEmSJEmSJEmSJEmSJEmSJEmSJEmSJEmSJEmSJEmSJEmSJEmSJEmSJLVnTLcr0KGpwHxgEJgFTAaGgWeBx4DfAX8AhrpVQaluY4AlwEai4Y+MUnYANwGv6kZlpTotAB5m9E6RVQ4DtwLT6q60VLUBYDVx+9RJ5zi2PA1cUm/1pepMBO6kfMc4thwEltd5ElIVBkjfOY6WIWBpfaeiXtbUUazVwCdG+X+2AxuAB4CdwHhgNjAPWEh0sjz7gAuBh8pWVKrbAoqfOZ4EVlDcAWYCayke7XoQGFfFCUhVGUPxaNXdxDuQVl0K7CqItzJVxaU6LKG4c3RyxT8f2JMT80mKv4mkRtlIfkNu55vjeCty4o4AV5aIK9VmKvnPDCsSxN+UE/v2BLHVp5p0ezEfGJtxfDuwPkH8rwFvzji+EDglQXyl8zxxW6xjXEf2FX5doviTgAM5n2FpVhkGfgxMz/xL1ijrit0ts3KOP5Ao/j5gS6JYqtYYYBFwW7cr0qQOMjnn+M6En7EjYSxVbzGRctQ1Teogh3OOj0/4GSljqXqH6PKcniZ1kF05x2cn/Iw5CWOpeuuIBNOuadIo1qM5x+clij8HeHnG8RG89WqaPcAPgM93uyJNcgHZIxqHgJcliP/ZnPgPJogtVe4k4oE8qxGvLRl7akHsL5eMLdXmJrIb8RCReNip7+XEHQHOKRFXqtUZxGhWVkPeRSQetmtVTrwRIvdL6infIr9B76H1vKypFH9zDANvSFlxqQ7TgKcoTkXYBLyLSB853mzigTzvmeNoubHCc5AqtYAY/x4tZ+cAMW32HuBXwD9b+JkR4PfAC+o6GakKy2ltgbh2yxZgRo3nIVVmKZFkmKpz3I+dQ31mkLiNKtMxhoA1eFulPjUAfAT4F+13jo04WqUTxHhiYYf1wDayO8RhIn3kenwJqJKaunBcq2YQE61eTHSMZ4CtxHOLJEmSJEmSJEmSJEnt6/U36f1gLHAeMBc4EziZWMBiL/A4kai5CdjdrQpK3XAGseJ8Xk7ZseUgsR/jFXhRU5+bCnyTWO+rk9T9zcQGpFLfuZjOUvaz5rd8ibgVk/rCVbQ2z76d8kOcBKY+sIT89b5SdJImLULeV3zgq94g8Fuylyg6ahj4JXAv8A/im2YGMbq1mBjZKrIK+EzZikp1GyB2yMq7+g8TC+WdVhBjHPA+4OmCOEPARZWcgVShleQ36ueAt7YR62TgZwXxNuMdgXrIALG/e1Zj3kts99Cu8RR3kreXrrVUkyvJb8jXlIg7nfzbrQ0l4kq1up3sRnxfgtjvz4l9EJiSIL6OaOI96zTgFTSzbu3YQPbOWO8hthcrYxyxwHfWPuLXEqNmvWwv8Fi3K9FEX6XzFIxeKIeAFyb6XX27AedTZdlMLOmkI66m+3+Uqsufk/224GMNOJ+qyy9S/bI61aQ3sIu7XYEa7EwYa3vCWE11Cem+cTvSpA7y725XoAYpt90enzBWU+0j9oDpmiZ1kJvp/yVDZzc0VlOtIXLYuqZpI0XnA58GXknz6tauQbIvQHOIfKuyfgpclnH8ceItfS/bQ4z0rSWeRdSH/kj2g+d1CWLPJD872K0e1BOuJ7sB7wBeUjL2N3Jib6NZt81SrkHyhy+/UyLupeTv3bimRFypdveQ30m+0EG8c4FdOfEOE89uUs+YS8z5KPomaTV36mrgPwWxbklZcakuR0di8sp24FNE/tnxJgDvIGYbFsV4ilgtReo5E8kf0Tq+bAV+Dtx15Gf2t/Azh4D5tZ2NVIFTiezU1LlKQ8DyGs9DqsypFM9Pb7fsB5bVegZSxSYSqyoWPbi3Uh4mRrSkvnQRkcrdbsfYRqS5j6u9xlIXnAesJuaJ5H2r7ATuIGYinggZvI3S6wmB/eRFwOnENNoBImHvCWJlFEmSJEmSJEmSJCkpXxQqpSnAImAecA6xNvEk4L/EXPxHgN8AP8EXoDqBDALfJTpCq2n6G4G3dKOyUl2mEFN98xaRaKXcRawVJvWV1wF/J83clueAd9Zbfak6FwO7ST878gN1noRUhUHSd46jZRhnSaqHTWb0ufXPA7cRDf21xEjWmcDbgBuISV+j/fxr6johKaWvU9y4byF7W7hjTQA+SfGI1334CkI95izyF8w+CFzVZrzXE2uC5XWSduNJXXUr+Y2506WHziVuqbJiPlSyvlJtJhE7z2Y15HUlY1+bE3cEuKBkbKkWV5DdgPcDp5SMPRb4a078L5aMXVrKPfNSOAm4nHiz6kNacyzKOf4jYlSqjGHi9u2GjH9zSdVjTATupZrxdUs15ZqsP2QHzs6Jn3JX4I40aTeilcQbWvWOVPu+byF7s87pdHmRvCZ1EPfW6z27E8UZIgYBsrhP+hF/63YF1LbJieKMIUbKsuxP9BkdaVIHuZHIDlXvOCtRnNPJXlZ1N3Ag0Wd0pEmjWM8Sb1ffS3/sk95P3kj2LfBlwPoE8bP2e4eYgSg13rvJHmXaTet7LBa5Pyf+6gSxpcpNJfKtshrxV0rGXpoTdwRYUDK2VJs7yG7Eh4m92ztxGvGuIyvuVrzNVg+ZS/6Vfjexkkk7ZhHvP/JifihJraUafZ/8Bn2Q2M66lU1+lgHPFMT6C+6ipR70UmJ9q6L0kyeAzxGjXhOP/NwA8Grgw4y+JfYh4MJazkaqwELyH9izyn7a27T04/WdilSNZcSVPnXy46o6T0Kq0uXALtJ0jEPAR+utvlS9WcDdlOscfwLeVHfFpTotBn5Nex3jUeCDNCvd6f/4IkYpnU0sITqPWBNrJpEQO0IM6z5CdKQ7j/xXOuFNwAuxJEmSJEmSJEmSJEmSJEmSJEmSJEmSJEmSJEmSJEmSJEmSJEmSJEmSJEmSJEmSJEmSJEmSJEmSesP/AOn+bVVfCIm/AAAAAElFTkSuQmCC;" parent="cIYBzhSVWRX3Auf7i21r-4" vertex="1">
          <mxGeometry x="40" y="228.12" width="30" height="30" as="geometry" />
        </mxCell>
        <mxCell id="cIYBzhSVWRX3Auf7i21r-104" value="" style="rounded=0;whiteSpace=wrap;html=1;shadow=0;fontFamily=Times New Roman;fontSize=4;fontColor=default;strokeColor=#000000;fillColor=#FFFFFF;" parent="cIYBzhSVWRX3Auf7i21r-4" vertex="1">
          <mxGeometry x="10" y="218.12" width="200" height="51.88" as="geometry" />
        </mxCell>
        <mxCell id="cIYBzhSVWRX3Auf7i21r-42" value="&lt;font face=&quot;Times New Roman&quot; style=&quot;font-size: 14px&quot;&gt;&lt;i&gt;&lt;b&gt;Model Derivation&lt;/b&gt;&lt;/i&gt;&lt;/font&gt;" style="text;html=1;strokeColor=none;fillColor=none;align=center;verticalAlign=middle;whiteSpace=wrap;rounded=0;fontFamily=Helvetica;fontSize=12;fontColor=default;" parent="cIYBzhSVWRX3Auf7i21r-4" vertex="1">
          <mxGeometry x="25" y="228.12" width="169.99" height="20" as="geometry" />
        </mxCell>
        <mxCell id="cIYBzhSVWRX3Auf7i21r-43" value="&lt;font face=&quot;Times New Roman&quot; style=&quot;font-size: 12px&quot;&gt;(optimal parameter sets)&lt;/font&gt;" style="text;html=1;strokeColor=none;fillColor=none;align=center;verticalAlign=middle;whiteSpace=wrap;rounded=0;fontFamily=Helvetica;fontSize=12;fontColor=default;" parent="cIYBzhSVWRX3Auf7i21r-4" vertex="1">
          <mxGeometry x="10" y="243.12" width="200" height="15" as="geometry" />
        </mxCell>
        <mxCell id="cIYBzhSVWRX3Auf7i21r-53" value="" style="shape=step;perimeter=stepPerimeter;whiteSpace=wrap;html=1;fixedSize=1;rounded=0;fontFamily=Helvetica;fontSize=12;fontColor=default;strokeColor=#000000;fillColor=#CCCCCC;rotation=90;size=7.5;" parent="cIYBzhSVWRX3Auf7i21r-4" vertex="1">
          <mxGeometry x="93.77999999999999" y="200" width="32.44" height="18.12" as="geometry" />
        </mxCell>
        <mxCell id="cIYBzhSVWRX3Auf7i21r-5" value="" style="swimlane;startSize=0;" parent="cIYBzhSVWRX3Auf7i21r-1" vertex="1">
          <mxGeometry x="510" y="60" width="220.01" height="280" as="geometry" />
        </mxCell>
        <mxCell id="cIYBzhSVWRX3Auf7i21r-105" value="" style="rounded=0;whiteSpace=wrap;html=1;shadow=1;fontFamily=Times New Roman;fontSize=12;fontColor=default;strokeColor=#000000;fillColor=#D5E8D4;" parent="cIYBzhSVWRX3Auf7i21r-5" vertex="1">
          <mxGeometry x="0.009999999999990905" y="-0.9399999999999977" width="220" height="280" as="geometry" />
        </mxCell>
        <mxCell id="cIYBzhSVWRX3Auf7i21r-49" value="" style="rounded=0;whiteSpace=wrap;html=1;shadow=0;fontFamily=Times New Roman;fontSize=4;fontColor=default;strokeColor=#000000;fillColor=#FFFFFF;" parent="cIYBzhSVWRX3Auf7i21r-5" vertex="1">
          <mxGeometry x="10" y="10" width="200" height="120" as="geometry" />
        </mxCell>
        <mxCell id="cIYBzhSVWRX3Auf7i21r-50" value="" style="rounded=0;whiteSpace=wrap;html=1;shadow=0;fontFamily=Times New Roman;fontSize=4;fontColor=default;strokeColor=#000000;fillColor=#FFFFFF;" parent="cIYBzhSVWRX3Auf7i21r-5" vertex="1">
          <mxGeometry x="10" y="150" width="200" height="120" as="geometry" />
        </mxCell>
        <mxCell id="cIYBzhSVWRX3Auf7i21r-56" value="&lt;font face=&quot;Times New Roman&quot; style=&quot;font-size: 14px&quot;&gt;&lt;i&gt;&lt;b&gt;Performance Evaluation&lt;/b&gt;&lt;/i&gt;&lt;/font&gt;" style="text;html=1;strokeColor=none;fillColor=none;align=center;verticalAlign=middle;whiteSpace=wrap;rounded=0;fontFamily=Helvetica;fontSize=12;fontColor=default;" parent="cIYBzhSVWRX3Auf7i21r-5" vertex="1">
          <mxGeometry x="10" y="10" width="210" height="30" as="geometry" />
        </mxCell>
        <mxCell id="cIYBzhSVWRX3Auf7i21r-57" value="&lt;font style=&quot;font-size: 12px&quot;&gt;&lt;span style=&quot;font-family: &amp;#34;times new roman&amp;#34;&quot;&gt;1. Root mean squared Error(RMSE)&lt;br&gt;&lt;/span&gt;&lt;br&gt;&lt;br style=&quot;font-family: &amp;#34;times new roman&amp;#34;&quot;&gt;&lt;span style=&quot;font-family: &amp;#34;times new roman&amp;#34;&quot;&gt;2. Coefficient of Determination(R²&lt;/span&gt;&lt;span style=&quot;font-family: &amp;#34;times new roman&amp;#34;&quot;&gt;)&lt;/span&gt;&lt;/font&gt;" style="text;html=1;strokeColor=none;fillColor=none;align=center;verticalAlign=middle;whiteSpace=wrap;rounded=0;fontFamily=Helvetica;fontSize=12;fontColor=default;" parent="cIYBzhSVWRX3Auf7i21r-5" vertex="1">
          <mxGeometry x="10.01" y="10" width="200" height="100" as="geometry" />
        </mxCell>
        <mxCell id="cIYBzhSVWRX3Auf7i21r-60" value="&lt;font face=&quot;Times New Roman&quot; style=&quot;font-size: 14px&quot;&gt;&lt;i&gt;&lt;b&gt;Model Interpretation&lt;/b&gt;&lt;/i&gt;&lt;/font&gt;" style="text;html=1;strokeColor=none;fillColor=none;align=center;verticalAlign=middle;whiteSpace=wrap;rounded=0;fontFamily=Helvetica;fontSize=12;fontColor=default;" parent="cIYBzhSVWRX3Auf7i21r-5" vertex="1">
          <mxGeometry x="10" y="150" width="210" height="30" as="geometry" />
        </mxCell>
        <mxCell id="cIYBzhSVWRX3Auf7i21r-61" value="&lt;font face=&quot;Times New Roman&quot; style=&quot;font-size: 12px&quot;&gt;SHAP(SHapley Additive exPlanations)&lt;br&gt;Feature Explainer&lt;br&gt;Summary Plot&lt;br&gt;&lt;/font&gt;" style="text;html=1;strokeColor=none;fillColor=none;align=center;verticalAlign=middle;whiteSpace=wrap;rounded=0;fontFamily=Helvetica;fontSize=12;fontColor=default;" parent="cIYBzhSVWRX3Auf7i21r-5" vertex="1">
          <mxGeometry x="9.99" y="220" width="200" height="40" as="geometry" />
        </mxCell>
        <mxCell id="EMEFTBRN_l1zuekz9nE6-1" value="&lt;font face=&quot;Times New Roman&quot; style=&quot;font-size: 12px&quot;&gt;Feature Importance Plot&lt;br&gt;Permutation Importance Plot&lt;br&gt;&lt;/font&gt;" style="text;html=1;strokeColor=none;fillColor=none;align=center;verticalAlign=middle;whiteSpace=wrap;rounded=0;fontFamily=Helvetica;fontSize=12;fontColor=default;" parent="cIYBzhSVWRX3Auf7i21r-5" vertex="1">
          <mxGeometry x="9.99" y="170" width="200" height="40" as="geometry" />
        </mxCell>
        <mxCell id="EMEFTBRN_l1zuekz9nE6-2" value="" style="shape=image;verticalLabelPosition=bottom;labelBackgroundColor=default;verticalAlign=top;aspect=fixed;imageAspect=0;image=data:image/png,iVBORw0KGgoAAAANSUhEUgAAAncAAACUCAYAAADxhQ9nAAAMZ2lDQ1BJQ0MgUHJvZmlsZQAASImVVwdYU8kWnluSkJAQIBABKaE3QaQXKSG0CAJSBRshCSSUGBKCih1dVHDtIgI2rIhtdQVkLYi9LIq9LxZUlHWxoCgqb0ICuu4r3zv5zr1//jlzWmZy7wBA7+FJpTmoNgC5knxZXHgwa2xKKov0FCCAAPThh87jy6Xs2NgoAGXg/nd5fwNaQ7nqpPT1z/H/KroCoZwPADIe4nSBnJ8LcRMAeBVfKssHgKjkLafkS5V4DsR6MpggxKuUOFOFdyhxugof7rdJiONAfBkADSqPJ8sEQOse5FkF/EzoR+szxC4SgVgCAH0YxAF8EU8AsTL3Ybm5k5W4HGI7aC+FGOYDvNO/85n5N//pg/55vMxBrKqrXzRCxHJpDm/a/9ma/y25OYqBGDZQqSJZRJyyftjDW9mTI5WYCnGnJD06RtlriHvEAlXfAUApIkVEosoeNebLObB/gAmxi4AXEgmxMcRhkpzoKDWfniEO40IMVws6VZzPTYDYAOKFQnlovNpmo2xynDoWWpch47DV/FmerD+uMtYDRXYiW+3/jUjIVfvHtApFCckQUyC2KhAnRUOsBbGzPDs+Um0zslDEiR6wkSnilPlbQRwnlIQHq/xjBRmysDi1fUmufKBebKNIzI1W4/35ooQIVX+wk3xef/6wFuyyUMJOHPAjlI+NGqhFIAwJVdWOPRdKEuPVfnqk+cFxqrk4RZoTq7bHLYQ54UreAmJ3eUG8ei6elA8Xp8o/niHNj01Q5YkXZvFGxarywZeBKMABIYAFFFDTwWSQBcQtnfWd8JtqJAzwgAxkAiFwUjMDM5L7RyTwGg8KwZ8QCYF8cF5w/6gQFED+yyCrujqBjP7Rgv4Z2eApxLkgEuTA74r+WZLBaEngCWTE/4jOg8qH+eZAVY7/e36A/cawIROlZhQDEVn0AUtiKDGEGEEMI9rjRngA7odHwWsQVFfcG/cZqOObPeEpoZXwiHCd0Ea4PUlcJPshy9GgDfoPU/ci/fte4DbQpwcejPtD79AzzsSNgBPuDuOw8UAY2QOyHHXeyq6wfvD9twq++zXUdmQXMkoeQg4i2/04U8tBy2PQi7LX3/dHlWv6YL85gyM/xud8130BvEf+aIktxA5gZ7Dj2DnsMFYPWNgxrAG7iB1R4sHV9aR/dQ1Ei+vPJxv6Ef8jHk8dU9lJuUutS4fLZ9VYvnBqvnLjcSZLp8nEmaJ8Fhs+HYQsroTvPIzl6uLqCoDyWaP6+3rL7H+GIMzz3zjJFAC8nsK9l/eN470AoL4PAJ0Z3zgbGEfbCIBjQXyFrEDF4coLAf5L0OFOMwSmwBLYwXpcgSfwA0EgFIwCMSABpICJsMsiuM5lYAqYAeaCYlAKloHVoAJsAJvBDrAb7Af14DA4Dk6DC+AyuA7uwtXTDl6CLvAe9CIIQkJoCAMxRMwQa8QRcUW8kQAkFIlC4pAUJA3JRCSIApmBzENKkRVIBbIJqUF+QQ4hx5FzSCtyG3mIdCBvkE8ohlJRPdQEtUGHo94oG41EE9AJaCaahxai89ElaDlaje5C69Dj6AX0OtqGvkS7MYBpYkzMHHPCvDEOFoOlYhmYDJuFlWBlWDW2B2uEv/NVrA3rxD7iRJyBs3AnuIIj8EScj+fhs/DFeAW+A6/DT+JX8Yd4F/6VQCMYExwJvgQuYSwhkzCFUEwoI2wjHCScgnupnfCeSCQyibZEL7gXU4hZxOnExcR1xL3EJmIr8TGxm0QiGZIcSf6kGBKPlE8qJq0l7SIdI10htZN6NDQ1zDRcNcI0UjUkGkUaZRo7NY5qXNF4ptFL1iZbk33JMWQBeRp5KXkLuZF8idxO7qXoUGwp/pQEShZlLqWcsodyinKP8lZTU9NC00dzjKZYc45mueY+zbOaDzU/UnWpDlQOdTxVQV1C3U5tot6mvqXRaDa0IFoqLZ+2hFZDO0F7QOvRYmg5a3G1BFqztSq16rSuaL2ik+nWdDZ9Ir2QXkY/QL9E79Qma9toc7R52rO0K7UPad/U7tZh6IzQidHJ1Vmss1PnnM5zXZKujW6orkB3vu5m3RO6jxkYw5LBYfAZ8xhbGKcY7XpEPVs9rl6WXqnebr0WvS59XX13/ST9qfqV+kf025gY04bJZeYwlzL3M28wPw0xGcIeIhyyaMieIVeGfDAYahBkIDQoMdhrcN3gkyHLMNQw23C5Yb3hfSPcyMFojNEUo/VGp4w6h+oN9RvKH1oydP/QO8aosYNxnPF0483GF427TUxNwk2kJmtNTph0mjJNg0yzTFeZHjXtMGOYBZiJzVaZHTN7wdJnsVk5rHLWSVaXubF5hLnCfJN5i3mvha1FokWRxV6L+5YUS2/LDMtVls2WXVZmVqOtZljVWt2xJlt7W4us11ifsf5gY2uTbLPApt7mua2BLde20LbW9p4dzS7QLs+u2u6aPdHe2z7bfp39ZQfUwcNB5FDpcMkRdfR0FDuuc2wdRhjmM0wyrHrYTSeqE9upwKnW6aEz0znKuci53vnVcKvhqcOXDz8z/KuLh0uOyxaXuyN0R4waUTSiccQbVwdXvmul6zU3mluY22y3BrfX7o7uQvf17rc8GB6jPRZ4NHt88fTylHnu8ezwsvJK86ryuumt5x3rvdj7rA/BJ9hnts9hn4++nr75vvt9//Jz8sv22+n3fKTtSOHILSMf+1v48/w3+bcFsALSAjYGtAWaB/ICqwMfBVkGCYK2BT1j27Oz2LvYr4JdgmXBB4M/cHw5MzlNIVhIeEhJSEuobmhiaEXogzCLsMyw2rCucI/w6eFNEYSIyIjlETe5Jlw+t4bbNcpr1MxRJyOpkfGRFZGPohyiZFGNo9HRo0avHH0v2jpaEl0fA2K4MStj7sfaxubF/jaGOCZ2TOWYp3Ej4mbEnYlnxE+K3xn/PiE4YWnC3US7REVicxI9aXxSTdKH5JDkFcltY4ePnTn2QopRijilIZWUmpS6LbV7XOi41ePax3uMLx5/Y4LthKkTzk00mpgz8cgk+iTepANphLTktJ1pn3kxvGpedzo3vSq9i8/hr+G/FAQJVgk6hP7CFcJnGf4ZKzKeZ/pnrszsEAWKykSdYo64Qvw6KyJrQ9aH7Jjs7dl9Ock5e3M1ctNyD0l0JdmSk5NNJ0+d3Cp1lBZL2/J881bndckiZdvkiHyCvCFfD77UX1TYKX5SPCwIKKgs6JmSNOXAVJ2pkqkXpzlMWzTtWWFY4dbp+HT+9OYZ5jPmzng4kz1z0yxkVvqs5tmWs+fPbp8TPmfHXMrc7Lm/F7kUrSh6Ny95XuN8k/lz5j/+Kfyn2mKtYlnxzQV+CzYsxBeKF7Ysclu0dtHXEkHJ+VKX0rLSz4v5i8//POLn8p/7lmQsaVnquXT9MuIyybIbywOX71ihs6JwxeOVo1fWrWKtKln1bvWk1efK3Ms2rKGsUaxpK48qb1hrtXbZ2s8VoorrlcGVe6uMqxZVfVgnWHdlfdD6PRtMNpRu+LRRvPHWpvBNddU21WWbiZsLNj/dkrTlzFbvrTXbjLaVbvuyXbK9bUfcjpM1XjU1O413Lq1FaxW1HbvG77q8O2R3wx6nPZv2MveW7gP7FPte/JL2y439kfubD3gf2POr9a9VBxkHS+qQuml1XfWi+raGlIbWQ6MONTf6NR78zfm37YfND1ce0T+y9Cjl6PyjfccKj3U3SZs6j2cef9w8qfnuibEnrp0cc7LlVOSps6fDTp84wz5z7Kz/2cPnfM8dOu99vv6C54W6ix4XD/7u8fvBFs+Wuktelxou+1xubB3ZevRK4JXjV0Ounr7GvXbhevT11huJN27dHH+z7Zbg1vPbObdf3ym403t3zj3CvZL72vfLHhg/qP7D/o+9bZ5tRx6GPLz4KP7R3cf8xy+fyJ98bp//lPa07JnZs5rnrs8Pd4R1XH4x7kX7S+nL3s7iP3X+rHpl9+rXv4L+utg1tqv9tex135vFbw3fbn/n/q65O7b7wfvc970fSnoMe3Z89P545lPyp2e9Uz6TPpd/sf/S+DXy672+3L4+KU/G638VwKCiGRkAvNkOAC0FAAY8t1HGqc6C/YKozq/9CPwnrDov9osnAFubAEiAGj0HgA1QbaDSgwBQvsInBAHUzW1Q1SLPcHNV+aLCkxChp6/vrQkApEYAvsj6+nrX9fV92QKTvQ1AU57qDKoUIjwzbPRRouvuOq/AD6I6n35X4493oMzAHfx4/xd6MI1rNthBigAAAJZlWElmTU0AKgAAAAgABQESAAMAAAABAAEAAAEaAAUAAAABAAAASgEbAAUAAAABAAAAUgEoAAMAAAABAAIAAIdpAAQAAAABAAAAWgAAAAAAAACQAAAAAQAAAJAAAAABAAOShgAHAAAAEgAAAISgAgAEAAAAAQAAAnegAwAEAAAAAQAAAJQAAAAAQVNDSUkAAABTY3JlZW5zaG90p6wMLQAAAAlwSFlzAAAWJQAAFiUBSVIk8AAAAt1pVFh0WE1MOmNvbS5hZG9iZS54bXAAAAAAADx4OnhtcG1ldGEgeG1sbnM6eD0iYWRvYmU6bnM6bWV0YS8iIHg6eG1wdGs9IlhNUCBDb3JlIDYuMC4wIj4KICAgPHJkZjpSREYgeG1sbnM6cmRmPSJodHRwOi8vd3d3LnczLm9yZy8xOTk5LzAyLzIyLXJkZi1zeW50YXgtbnMjIj4KICAgICAgPHJkZjpEZXNjcmlwdGlvbiByZGY6YWJvdXQ9IiIKICAgICAgICAgICAgeG1sbnM6ZXhpZj0iaHR0cDovL25zLmFkb2JlLmNvbS9leGlmLzEuMC8iCiAgICAgICAgICAgIHhtbG5zOnRpZmY9Imh0dHA6Ly9ucy5hZG9iZS5jb20vdGlmZi8xLjAvIj4KICAgICAgICAgPGV4aWY6VXNlckNvbW1lbnQ+U2NyZWVuc2hvdDwvZXhpZjpVc2VyQ29tbWVudD4KICAgICAgICAgPGV4aWY6UGl4ZWxYRGltZW5zaW9uPjI4ODA8L2V4aWY6UGl4ZWxYRGltZW5zaW9uPgogICAgICAgICA8ZXhpZjpQaXhlbFlEaW1lbnNpb24+MTgwMDwvZXhpZjpQaXhlbFlEaW1lbnNpb24+CiAgICAgICAgIDx0aWZmOlJlc29sdXRpb25Vbml0PjI8L3RpZmY6UmVzb2x1dGlvblVuaXQ+CiAgICAgICAgIDx0aWZmOlhSZXNvbHV0aW9uPjE0NC8xPC90aWZmOlhSZXNvbHV0aW9uPgogICAgICAgICA8dGlmZjpZUmVzb2x1dGlvbj4xNDQvMTwvdGlmZjpZUmVzb2x1dGlvbj4KICAgICAgICAgPHRpZmY6T3JpZW50YXRpb24+MTwvdGlmZjpPcmllbnRhdGlvbj4KICAgICAgPC9yZGY6RGVzY3JpcHRpb24+CiAgIDwvcmRmOlJERj4KPC94OnhtcG1ldGE+CovGAWkAADlqSURBVHgB7V0J/B3T9b8hIUJUbZFE/klEbAlJat+XUiW1b7UvpUSpJbbYQlDaUrSlSC21FFVtqnYlQVENEVtUiL2oKrGUKvr7n++0Z9y57868mXkz7/fmve/5fH6/uXPnrt877865555zbo8uIUMiAkSACBABIkAEiAARaAsE5mmLXrATRIAIEAEiQASIABEgAgECZO74IhABIkAEiAARIAJEoI0QIHPXRoPJrhABIkAEiAARIAJEgMwd3wEiQASIABEgAkSACLQRAmTu2mgw2RUiQASIABEgAkSACJC54ztABIgAESACRIAIEIE2QqBnG/WFXSECRIAItA0C999/v9lxxx3bpj/sCBGoIgIHHnigmTRpUuWaTuauckPGBhMBItApCLz11lud0lX2kwgQgQIRIHNXIJgsiggQASKQFYFnnnnGvPvuu5FsCy+8cOSeN0SACBCBLAiQucuCFtMSASJABApGYI899jAzZsyIlLrNNtuY8ePHR+J4QwSIABFIiwANKtIixXREgAgQgYIR+Pzzz2sYO1SxwgorFFwTiyMCRKCTEKDkrpNGm30lAkSgpRB49dVXve1R5u7666/3PmckESACRCAJATJ3SejwGREgAkSgRARmz57tLR3M3VprreV9xkgiQASIQD0EuC1bDyE+JwJEgAiUhEAcczd8+PCSamSxRIAIdAICZO46YZTZRyJABFoSgVmzZtW0q2/fvmaxxRariWcEESACRCAtAmTu0iLFdESACBCBghF46qmnakpcffXVa+IYQQSIABHIggCZuyxoMS0RIAJEoEAEZs6cWVPaiBEjauIYQQSIABHIggCZuyxoMS0RIAJEoCAEcPrEBx98UFPaiiuuWBPHCCJABIhAFgTI3GVBi2mJABEgAgUh8Nxzz3lLWn755b3xjCQCRIAIpEWAzF1apJiOCBABIlAgAs8++6y3tOWWW84bz0giQASIQFoEyNylRYrpiAARIAIFIvCXv/zFW9rAgQO98YwkAkSACKRFgMxdWqSYjggQASJQIAJxlrI9evQosBYWRQSIQCciQOauE0edfSYCRKDbEXj00Udr2rDKKqvUxDGCCBABIpAVATJ3WRFjeiJABIhAgwi89957BtayLtFS1kWE90SACORBgMxdHtSYhwgQASLQAAJz5szx5saZsiQiQASIQKMIkLlrFEHmJwJEgAhkRCDuTFlaymYEksmJABHwIkDmzgsLI4kAESAC5SEQZyk7dOjQ8iptcskvv/yyeeCBByK1Yiv6zjvvNG+88UYknjdEgAgUiwCZu2LxZGlEgAgQgboIzJo1qybNSiutZHr27FkTX5WIF1980Zx22mlm++23N/369TNDhgwxZ555ZtB8nMSxyy67BPGbb765GTBggHn88cer0jW2kwhUDgEyd5UbMjaYCBCBqiPgY2yqbin7+eefm8UXX9w8/fTTobHINttsY958802z0UYbmWnTppm11lorHLrbb789DDNABIhAsQiQuSsWT5ZGBIgAEUhE4JNPPjE+nTtI7qpMyy67rBk3bpzZaqutwm5ssMEGBpI6bDe/+uqr5txzzw2f9erVKwwzQASIQLEIVHcPoFgcWBoRIAJEoCkIvPDCC9562sVSdurUqUH/Vl99dTNp0iQzePBgc+211xowc88880zY91VXXTUMM0AEiECxCJC5KxZPlkYEiAARSETAJ7VDhuWXXz4xXxUeYgt2xowZQVNhNAGjCmzTqpROGT8kWHPNNavQJbaRCFQSATJ3lRw2NpoIEIGqIhBnKYttzaqTzby99tpr5o477gj08NCvrq6u4B7hsWPHmt69eyNIIgJEoAQEqHNXAqgskggQASIQh4CPuVt66aVNnz594rJUJv62224L27rPPvuYr33ta+E9tmT1VI4tttgijGeACBCB4hEgc1c8piyRCBABIhCLwBNPPFHzbMyYMTVxVYuAteyUKVPCZp9wwglhGIF77703vN94443DMANEgAgUjwCZu+IxZYlEgAgQAS8CYIBUJ81OMGLECPu2kuGZM2ca+LMD7bnnnsbdZr777ruDZ0suuaThGboBFPxHBEpDgMxdadCyYCJABIhAFAHoofmoHZidu+66K+za3nvvHYYR+Oyzz4KTKRCG77sePXqYSy65xNDXHRAhEYHiESBzVzymLJEIEAEi4EXgueee88a3w5myt956a9C3vn37mg033DDSzyeffDKU6m222WYBo3fUUUeZqvv2i3SSN0SghRCgtWwLDQabQgSIQHsj8Oyzz3o7WHXm7t133zX3339/0Ledd9655hg1ODBWuvDCC82jjz5qbrrpJvN///d/Gs0rESACBSJAyV2BYLIoIkAEiEASAr4zZaGDtuiiiyZla/lnYNaUsO3qku3TDhiAscORZCQiQATKQYCSu3JwZalEgAgQgRoEsD3p0siRI92oyt1vuummgR+7uIb369fPvPLKK+all14yOJmiHdy+xPWV8dVB4J///KeZO3eu6d+/v5lnnvaSdbVXb6rzTrGlRIAIdCACsCh1qR2YO7dPvvtBgwaZ9ddfn4ydDxzGNQ2Bf//73+aCCy4ww4YNMwsttJCBj8l555038Mn4+OOPN60dZVdE5q5shFk+ESACREAQgANfdRViA9IOlrJ2fxgmAq2KACR1a6+9tjnkkEOMe8YzrL1Hjx5trrrqqlZtfqZ2cVs2E1xMTASIABHIh0CcpWw7nCmbDxHmIgLNQwDH3+23336Bn8nVV1/dbLvttgb6rn/+85/N5MmTw4bstddeZr311jNDhw4N46oYoOSuiqPGNhMBIlA5BNrVUrZyA8EGdyQCDz/8sPnVr35ljjnmGPPggw+a448/3uy///6Bv8UHHngggsnFF18cua/iDZm7Ko4a20wEiEDlEPCdKYtODBgwoJC+fPzxx4WUw0KIQDsiAMZu8803N2eddVaNq5511lnHnH766WG3fbqx4cOKBMjcVWSg2EwiQASqjcBTTz1V04G11lorOK2h5kGGiD/96U+BMvg+++yTIReTEoHOQQBbstdcc4055ZRTYn9v3/jGN0JAbL+MYWTFAmTuKjZgbC4RIALVRMD2Bac9aORM2UceecTggwQFcfvoLy2bVyJABP6LAI67wyIIi6k4grsepVVWWUWDlb3SoKKyQ8eGEwEiUBUE3n///cBa1m1vnuO33nvvPYOzW8EsIkwiAkSgPgL1DCRs69kxY8bUL7DFU1By1+IDxOYRASJQfQTmzJnj7UQeS1k4Wz3xxBMNto5uueUWb7mMJAJEIBsCtp4dFk9VJzJ3VR9Btp8IEIGWRyDOUjYPc9e3b1+z2mqrBX2GZ30SESACjSHw6aefmvPPPz8o5IwzzjD2Fm1jJXdfbjJ33Yc9ayYCRKBDEIhj7oYMGdIhCLCbRKB1EYCfu9mzZwc6eUceeWTrNjRDy8jcZQCLSYkAESACeRB4+umna7JB365nT6o91wDDCCLQRARee+01c9xxxwUOjW+88UbTu3fvJtZeXlWcWcrDtrCSYcb9+uuvG6z+ER4+fHhwHp590DHEylOmTDFQBF122WULq7vZBcG55Pjx4w1+ZEX5/2p2H7LUd/311wfH3cBp5sCBA7NkZdoKIeA7sxJHHVWJ4PT1xRdfLL3J2Gr+0Y9+VHo9l112mfn1r38d6C3CmpJUDQQgWcN38Hvf+55ZYIEFGmr0v/71L7P99tsHZdxzzz1t9c1pGeYOCscbbbRR6oHq06dPMBBrrLFGwNBAByUtU3PwwQeb3//+97F14aXZc889Y58nPcDZdZtuuqnBasBHcFsAZ4ppCBPpYYcdZqZNm+Y9kxJm3VtssYXBweNXXnml+d3vfmfOPvvsgDnylf/YY4+Zrbfe2vcod9x8881n4L+r0R8ZDnOGrsOkSZMCxrVTJtv//Oc/wccF54teffXVhY9P7oFlxsIQ+OSTT4ItH7fAqp0pe9999xnXk7/bpyLuoVNYJnOHM36//e1vB/Ml5k9StRCAs+6LLrrIgBm79tprTR6Lc/QYc++3vvUtM336dPPHP/7RNOKWqBURbBnmDme8nXfeeeaJJ54IPvBpwMIeORgfpe2228784Ac/qMvk7bHHHsG5cZiowBC5FOdJ3k3nu58wYULgT8d9hgkLhxVvsskm7iPv/RVXXGH23XffyLN1113XLLPMMgZnVMJnj/7ZiZJMuKHf89Of/tQ8//zzAdZxDKhdXr0w+tUoY/fmm2+asWPHBmf+wb/QbbfdZjpFUXzXXXc1kLrCOmubbbYxxx57bOBBvR7ufF4dBOKkXSussEJ1OiEt/dnPfmbi/H/hWR4Co4Uta3vB+8EHH5jPPvuslC1r7Ax8/etfDxbL+A5ceumlsU5t8/SHecpHAN8wMGaXXHJJwJD95je/Mfj2Z6WJEyeaX/7yl+bWW281+La2HYl4s+VIzPy7BOjInzARXTJJBm396KOPusSBZ9e4ceMiaZAH6USSlLpPwlTUlCFSu9T57YTiSLSmLO3HrFmz7KSJYbccOeS4S5jeSB5gcNppp9XU949//COSLu5GXuiavGjr5Zdf3iUrozCbMB5d4kur64033uiSlXuXrKi7hMEM82611VZh2jyBv//9712y8grKkx9Y1zvvvJOnmMrnkRVoiKkcg1P5/rADXyAgC8hwbHU+wFW2ar9IlDMkC72w7J133jlnKemzieJ5WJ/dF2GS0hfiSfnyyy93ycI3LBvzQtEkB8SH5R9++OFdn3/+edFVsLwmIYCxE2FJOJ533313ppqFQQzyXnfddbH57r333i4RhMQ+b/UH2LtuOZJVXDhoOoGceuqp3naKrlJNWtmu9KZ1I4X77xKJYU3+9ddf301a9/7dd9/1loX2f/Ob36ybXxPItm6EeQKzCsYqjkTSE7YfTFda+utf/xrmU4zT9vtvf/tb2MZGGBFg9pWvfCVox9JLL92VljFN28eqpRP9n3BM8BEltQcC3//+98Nx1d8arvitN0rNZu7QXjCRdj80nGUB6+s3FnaY71Ce7J74kuSOAyOtZYuEvAtzP6naCGAMjzjiiPBdFKfeqTqkC2kIMuLolVdeCb7n+H1VlVqSuRPLlXDAdOJ46KGHYjFWBkHT4ppmVQwJn51Hw2A0spKc6+gtC2X+9re/TV3cVVddFSkHUswkgmRNJ63ddtstKWnkmRhfROpBO/ERSks6wUMCmIfQbkjqFPOk8c1TflXz7LfffiEmN998c1W7wXZbCPjmhiwLMauommB3MHdYlNnSe/0NQwKPHYVGSCUqojLTSDGRvJAK6hzJRWQEmsrf4Dui7yLG+KWXXkrsE+ZUvK9Ie/TRR9f8gVmU7frg+WabbZZYVqs/bEnmzmXWMBAYxDg64IADwg+iTjSQgtQj0fGryaf5ReejXvbwedy2i5aFyTAt2SsR5MdkV4+wjYy05557br2k4XNsS2j79Dpjxozweb3AySefHORPkiomlXHmmWeG9Z900klJSTvqmf2xxnvf6dLMdhh8dz7D7w3SoyLIfl+asS2rbba3OHX+wBVbZY3Qk08+GcwLYvDWSDFhXkh3Nt9883CugcoLqb0Q+MUvfhGOL8Y6TiorBhhhOvudjQvfcMMNlQaq5fzcyZZfoFgvgIckel2JyrU+hX6c5ViPko7ugaJvGhLdEAPFXJDoxtVkgaLmIossUhMfFwGLVptwOHg9Uqs7+YjUSxo+v+mmm8IwAsJImFGjRkXikm7gC0hWwWappZZKSuZ9BgVqGJ4oiWRDgx1/hcW34gHFcriFIVUXAdENqpnP0Ju8Fn6tggTmOllM1jQHyu6yU1ETnzYCc5nsQJhBgwalzZKYTrbezB133BGkwXyV1qAtsVA+bCkEYJSGsQVhrGX3q6Z9IhzKNPb4HoLvqDK1HHM3derUGjzrmavDwtalesf6fPjhh0ZWcUG2Y445xs1uRCJVE+eL+M53vhO6KREJYk0SWIFmoV69ekWSw5JHtjoice6NMlhxlmxueridsQ9JxvOddtrJ2H7z3DzuPZgznG2Zh2A1rCR6foEFsN7zagKHmooDrKZFsVdvea2DgOhtBf6vmuGyo05TgsdxFum6IEtTRqum+e53v+v9AMLyW3SWcjV73nnnNddcc02mhWZcRXPnzjWyQxE+xvycZY4LMzLQ0gjgmynGhWEb8X2R3bLwHgGkETFc6j8Ih+aff/5IGVW7aTnmTldZNpBf/epX7dtIWESwRhQpI3G4qeezxv5g+nzaicFBTZluBCYhEd0G0fC786LHwSd83mUhlymFBFF0AxKLwGoUx6eklRDCP5BLcA8QR/AJCH9ARZBs/Ubc14iOWa5iITF1f8BuQfAvJtuabnTh92C+4XspidAW+EBMQ3gHZIstTPrDH/4wDDPgRwBMnRhdmcUWW8yccMIJRtQbgoncn7p5sbJt6q1sueWW88ZXKRKMEhwBw42VTZA4Q/oGdybdSbJdFy680Q60KSvhdwtGFd+ZJML71939TWpfM56Beao3J6MdwKpowtjqe4j3D+9lx1MrbSrDvBl6RjIo4R/0VZLI5w5EfN4kZQmeHXrooUEdMskG93adCIvfpsQyZEUethWKl9jnF8lZ2G6Ugb4k6Qr6KhBnipEytF0/+clPfMlzxQEfLVevb7/9trcsuEWBEjL6VgTJlmOkblldpypWPIl3wXgD+pX2OyLeymvyy4+7S5yUhumK1EWCpfAf/vCHrnPOOacLuo54f4AhlMnj9DRhnaVtlkmoK02fXSvwoq0Ha0CraIR8KLpgSa/vsX0Vf4nd3is1ELDbhTDaXQRBT1bLTjPvFVGnWwZcJGkb7Cv0cruLMO9i3tL2wHgrLcnORvD7tg2+oLQPfUCXoKBv61TOnDnTTdKW9+J0PnDPJX7iumTnK3Bjo3NcnL67MMpd8GSBMcG8Ca8YRRK8Uuh4wwtG1m9vkW1phbJayqDCnqh0kJImCJ/LFLxgYLzqkf7wRacpSKq+1rReOWontggwcrJVHL5IsNCR48HCey0DH/I85PO9hzKLUPDED0zbp9ck1zHKPE+cODFPVyJ54C9P68Q17cdInDWHzJGdX8OiwxfWIw6RI5Otpsni+zAszAngvdLyfNc4y2HbfxfywZCnHsGPo10HDG1IXyCgTJ1+UGysNJzlg/5FycWG5DScyDiibfjwFEH4eNmukFBuGf7h0rRV5wnFXq9QYu8Ocn2Fpl0c2wyC9kGv7nzu8/lX5EKyO3BLW6fPx6ziBL+sPvItAuIWxL789eJgUKhtwBUeITqZWoq5k+2nyOBggCDJsgmMFX64NnOlA4rVVRpfS5CCaB79IMMZr8bhmuTI2Jaq/PznPw+ahxWMnR9hORLMbnrqsGzFxvrMa9TayycZdH3VAWMwMrZEpAhXJbLlHsEoLcMCqSKkXy+KE2swby7zq1bCcMNgr6Lt8YiTTKYelP8lFD3DLvgIxMThMhZx/gztDzDaBKlxPYLE1G6/Spjr5Yt7DszkeL9C/+SYvrjqSotPw9TZuDX6e2m0I8Dcbg/CRbhYwILBff+0HkjZxWCq0aZnyg9G013EoD1gODGfNZtcR/hpP/R4X8CEYCGqbjMUV1xVGoSFth2vYfzWO4FEJy2YB+FyzOetwl5wKx6YgxUnveb1tqBl2leXeWzUctsuu4rhlmLufJMDVgGi7B+4DnC3PfUFwSQHRiStyxF7qwQvKQgvgpaHKyZlH8FjtaYDgwlGCORuNyINGIG8BGZK63GvjTBap5xySk25kGKCuYUTY91mtOsEvjqp5e0P8sHliV2uHBWXqzh4DrfLUbcSBx10UBCPCRYSyocffjjYXk/j8zBPQ3ySZjHUqSkK7kxshhTvahrCu2/3E0xlXrLLKSqM32WzCEydnDscy9DE9SmtY+6y+uFjwOCGKCth66uRv2Z42sf76esv3v1mnwah23/6XuSdM13mHL95FQ6AccWOAL47WNxjAer7/Wcd66qlxzdwhx12iMxVkOT6CLtt9jtShCNvrcfdGWp0QazlVvXaMswdmCz9Iaa9ipJ/sG+f9QelUj+bgTvrrLMi9YPhcQkiZNXDwAuqzJtPVxDbvI2SnJkXaZPigrrd48jS1uUyDFpm0hWMaxHkTpR5JZtgNO32YpKFXyzEYZJp5ocEjKXdljiH1WgTJDZIm9Y5MZgnu+xGtuXtcooKN4O5w4cTHwr7g5C1/WKBX8Trm7kMSKx8bRXjq8xlYa7zlZU2rhnMHToFPUdfm3BsYbPIlXqjPdCjy0Not90f7NroHIrFYzMJAggswov+S7uDktRXd6Gb9P27//77A0zr6dMn1Rf3zJ0nipQMxtXZqvE95cVtCRKRak07ZFI3q666qhHJS8QvGhKKBMqIHlhNnnoRsGzEwfQg20JUmLlIVtmWNPJBNjDNVzr//PONulj48Y9/HPrWEUXbiFUW0ssPULPlvopOmhH9rIg5PwqDNRCscFGvMDapy4eF6fTp0yPpZVUdYCsvqBGjhaDsZ555JjhQW92lIE0R5LpH6NevX65ie/bsGeALK14QLIqBN8YQfq2a6e4AZvfixDrshzBuZttttw3vNYA2od0gmdQ0OvG68MILR56LbmfkPsuNbFPVdamTpTyklY9c1iyp08ONxQUXXGDk1JSa31bqQv6XEPOILCyyZms4fZylrGsR33BFLVQA5lQ5YcjIYjnSKjF8MnB7tNpqq0Xiy7iR7b+aYvPONWizTQceeGBwi3dzjTXWsB+VHnatf4uqEN8QYWIbKm7MmDFGpKVG9KODckQ9ymC+GjJkSE256u5rnXXWqXnWaMSXvvSlyHwhp5Pk8sXaaDtaIX/LMHdigViDx/777x8MjHidDiZ6MFxKF154ocEHy2a+9FnS1WYiZRs4TDpw4MAwrAEwQ+pDDo531aEsmB2RZmkyI4cWh2ENZHWBovnc62GHHRb43MNHziYwNLINaUS6Z0cnhqdNm1bzHC43RBoZiQdTCV9VyvAmuaKJZKxzAzxtyjvhogx8rJW50zLB2MnKTW+bct1ggw2COsFwg2Tbwcjqvua9FGljsKhAu/v375+qbZiobPJ9tOznSWEwOFUg2VoJfutgDhTTRtsN1z+ia2rWW2+9RovKlP/ZZ5/1ppftIm98u0TK9nng7kg/9NqvXXbZxcBJu7to0edFXWULv6aoBRdcsCYuTcTo0aNrkmG+VCav5mGJERBm1PN5mqf6ouZMkeSHzB3aceeddxrxWlDTJBWQIH3RtOiiixqbT/C9C0XX2bLltYpIUc+HE6ACka3regNK//pMr3BJkZUggkZ+iG9tPbLZs2fXlK8HEUN/SxX1kc/VfdLtNm0XrkXqEkCnwT5z1K7n6quvTg2Bb2sHByTHEeoRZiTucaZ4n5Wui2OWArElYuOAY2e6i3AWod0WHM3kkh5WnVaxG/ltgxaUj/FrV4J7GBho4PdlY1kvDAtG3SZLStsd7wd05Nw2oX+qp5tlLH2/XbfspPtmbctqn2D85BtLKN+XTdiGt7HAt6URgs6gXV6R59420q5Wy6u6iIoVcHMJqk3QhXO/7266vPfQsdX6ccVZ7Z1KLSG5k4mn5sQEdytw9913DyR1MmAhQUydVaqkW2iidxduk6FAnzRF3JsEW2iQIohOQVAvJIYDBgwI2wDHtGJhFd4jgLL79OkTiWvkpkePHoE0CJIvV1oFDIBNPZIXvCYvJAhxx/yolE10yuoVneo5+uAS2pSX3KPSisQ7a5vwrgqTHWaDpMjeskQ/5SzdQBLqvtdhJk9goYUWisTqdkYksg1u4A0e72EWSR1OR4BUWz7cgXqCfCwSkYBzdEiSsHXULIK03yU4V/f9Ftx0vvstt9zSF92ScdiOw+kqogMbad8SSywRuS/jBkcjFkmQ+NpHVeaVAhbZplYsC+oG+D2qOg8wE394Zr755gubixOXRJASqM+EkQUGXKmwqsIUWEV1imoFrtZ2LSLIBZy3bHXWNM0nIUtrIYvC7EO2L7300pry3ZUmHBmLjlq4ElCrTDuj694D7U/rUwnlQNFePmp2kbFhuAFRfOxrGl9BMMCw8yAsJ1/E1gWzdfgyKnLF79aPlV4jhBWglgmjiu4iuI3RduDqrlghYUb82WefnamJrrRafTJmKqQiiX2W8jamCOP3CeMKWXjU9Mo1PnHz4t4dl5pCCo6AUZbbjmZIrgruRkPF2VJtSFghwS+b7Dkb+Dc6N7j+VNX9Vdn9qGL5rv871+gEBon4HRe5s2Xj5M4jzXYJZLelu8MtIbm7/fbb5TcYpbXXXjsaIXc4qsqVkkHnLO0RVnZe6D65NHz48FBCh2dYYejh2PJCGmH23CyBXoEbaevyuc/ce6zuIXUQRsfUU7SGjpowCOaoo46KFAPdHrFOisS5N1n1AnGME6SURRJ0+Gx9CEg985J4QQ/GR/NDBxFn5g4bNkyjmnaFvqa9YoVep2y9BYYd8gMPDH/w/kCHNAsJMx9J3kjfxEKt7hFpkcpS3EDaVtQZqZBsrrnmmt5aga1scRocExgnoRX3N+FRgN5CJBKSBHEO3RSlfkgh7Xdd21QUXlpeK1+FkTNQrAfh/b/++usjUpyy2o65yybMDXkJfZBFViQ79DdlmzwSl3SD+jGX4vcrzG5uyW1SHa3ybMMNN4x8J0VFJTQ8gV499O2gPx73O7b7gd8r5i3o7WEOSEPub85n0JGmnLZI093cJY6VEiAjf3ErbHD74Prt9FgJpCWUi7zyoniz4MQEu2w7DJ0pH9nSI6THKjGLTo26O0mrxwEM7HYhDMeb9Qg6R26+PKsn6EZBl0jdwNSr137u6kbB6WQeivOnBV9T3UXqY08xhs4RCK5REJdnte++j5AS5yVtV5HXol2huL6yoOcK9y+2bmxS/+Eiol7/fNL3pDLzPnNdQ2i71Gl63nKrlE/1m9F3SL+aRT63WmnfIbeNOKlIx06vkMhmIduHatp5Pkv5rZQW3wXFCVfVE8buEvTsgB1c1dQjzPFaThan35pHr2l3xeq1p4rP5xEQupVEbFtTv+2ixH4Ibh+rd5uwEoizSrPTQa9H9SaEybMfheHBgweHYTsAvRE5fcCOCsJw7QHpnk1wg5FFp0bz69UuyxcGBjBdtwkSxySChAw6RzbBAjnN6snOIz9Qs+uuuxpxPmzkjFX7UarwyiuvHEmXx/oTEjFIwCAZkRNNIuU9+OCDkftm3mDFahMksVj1w8IakllYH2cldxUa935mLbdV06tFL3RWRSneiEGT2XHHHSO6sUlthwuOegSdW1hslk1xc1K932rZ7WpW+dAN1l0PWPWXYRkZ1xdICbFLYFMeq0l8W8TIJ/j92t4R8LuEPnZasusWNaK02SqZDrjbUjZRBwr6cc011xiE4U4sjU4kvtdK4gReg4lXfBNswnfS1Vu2n7d9uLs5UvfUAgE88Pod1y6cM4o09h/KqEf2cTEywXuTQyfKLhdhSAqh6+Yjcb1Rkz7u0GRffsSpFSykYWkIBzbbbUT76kkKfXqBemRXmjo1ja7EkxxUalrf1T2iDfpTWQn6jOg/VsMgW3KKsE1YtYmfIzuqtDCsju1xgfNTPU4vrxNdSIHtMtOseOM6aJdTVNg9azOu7izx8DLfCPn0ct3+QkJYNokfzsjYaRvySpDKbm+R5eO3oDssmCvy7BA02h7Zyovgj1NtshB0uSFlwrhBV9v+fiDOneehPxw3ttB3hlQZ5ww3Q+cwSz/LSOvuYghzG+xoZfW8AG8B+D2nPZ/Y1qnHGHX36TRlYJulzG4/oQKiWp34cE2zrWl/0DVP3A9LwcCHSOvBcVA+UncVmg7XpFMBcEi0nRZhn7K3ry6N02NyMBmKboZGx17Vu7fWm8bFgzgQrWlnliO5gK3NhOP4tjxki9rR/qzberrVhe06ZXTsLQ+UabtXwVmvLsOn7QZDjAlfVuRdSIfTMuoxyZo37qofA7RDmQxsreYhYK5jjGtehlrrxgcWzG6Rf634oXKPprMxtMNZ3n/FMMvVZ+CBua7dCe8tVGUUaxzP1R3kGkGI0+FMzcCcgD7ceOONQT6R1IV9QjwYNSWdl5K+FZq2E65wP6Ljj6ue4gOcyiRsedv1FnHyRpntLbvsbmXu8MO3BwPhOH07Gwj3SBjkg2VrHNl6AHH6dsjrMk5g3uLIZ7kax0jElYF4XeGiD1htJhEsa129NVEQT8rSBUmfKwFCXSgrDWEV7voOysrA2vWov0C0IWksYK0LCat+HLD6Q3rgJab2YZHuihrvBkhOEAnerTgdp8suu6zm3WvUktFeQKB/+MtrbSynhETa57PuDkFgIIKAzVzoOLjXpN92pLCcN+4CFPWXIenM2bzSstmLwMmTJ5dWT72CsVC2xxzSJB9hHsRuEOYJlTDq2eMuc2CPKeYhHHuJeQrzEhbp9QQMvvrbMU6MaCLYYxzqfduKwAHvmz3mjXpjKKJN3VlGtzJ3oj8XGQwMDFa39SQo7ioK+fBj8zEd+PHaDkDB6MQxNjh/UF8OlBcnSYNyqG6nanptAwwO0pKPQYR7Ep9EBHHi2ytsH+pL4xrjkksuieTR9sYZMwB70Snpggk5mB1Nr1esaBshVzqqhgd2mZAuAX+tEww/JFe4F10eO2mwZa7pcEU+PTtYlXkjGf5345rMaxk+B8S+/L44d9ExYcIEX7JUcSeffHLYf/RJPNOnysdEXV0+NQQdX/sqluqlwOUzEkO9cG3TzqQuf9DXRueJInCytwfBgPlcRtlSJnwb1HULmDV3Hj788MPD3yT6iEWvLpyTGAnM88DGN9cV0c9WK8PddQBWWc94hVAC0nWcVZyW7EVdswyn0ratO9I1nbmDTg2sO33MEV4C/EH/DMwHVkVxpKJezYMrtsWg6wLJDl4OWCr6LOiwVQYmA3v0NuEDquXBitUlSMlwIoRuuWla+4rtGKwCZ86c6WavuXfFyFoOpHOwrkR9eMFRp27fahpsx4IJ8hF+XCj7jDPOCPuj+ewrVqLQg8AfyscEaD/3hdNY5vrapHFom7196WNQMe6+usWEXouJXH3jAQyTfCDuvffe3jrEZUGk7Cw3NlOBPubVHwNG+tEADhhHUnoEsEBxJdy+9wkf8jLIlbpq3a6eVhl1d1eZ+HjrO4t3P+m316w2ipFa5Dfu83mGxbSOj17RfggQXBIXKDVpkcd3ShAYeTB/9iIVDF6nkP37S6vGg/HCd10X8sA2rTcMMNc6frhiF67TqenMHThxexCSwnBuHEfYsovLK2cbBj/OuOcaD8mhS/gxxm2f2D9ULSPp6pbt3svpEkEfwGxiO8PVP4wrG8YQcdJH1IEtzLi8jcRj0vOtft1+1bt3pYlor034ONtbIGgzlGvj6Oabb470F4wv3CEkEfQ/fOOZxQG1W769rT916lT3cep7MND2OPkk0qkL69CEkPDaGMaFkyQueaEDE+GrD4r17UiYE/Cb0z67jmu7s8+2qoSPUbjuuuvCdqP9WOBiB8dHmHNtpgXp44zzwOC7en+dJH3XnRFck75VNs54j8BA24IbHEmYhmx1AIwRSRysEoTuQwCSRUj6IKlRUsusE088MdhexGoYemrYYoBUqYyPkdbdrCt+xJAW6sfAd3IDGBpIV7FtYhtJxLUR26lgGp988sm4JDXx2HaBhBhSTmUmG/HHhTFDn2DA0gjp1hDKSjpFpJE62j0vPihpFkswqCmaxFVQ+G7rO46r6nQVXV93lyfHM4b99f2Wu7N9kCjaizgf44nfPwQJWJzZc7Gv3VC7gdU/5u64nRPNZy+ysYPUKaT9Bu55vBWIQ/LwfaqnUw5M3Z0OV3WnU3B3+0nmzkWE901BAD96nXTBwLr6LU1pxP8qgfW0foRtY40sbVAzfDCJjXzEoZejbQFz0kmr/Sx4p0nrGtsoru7VVc9IU3ZSGjCMbh2QCLUj2aol0HVNK6WphwW28opSwrclqWUb0tj9UgfmeBeSDP7sPO0QVg8G8ECQh3RbFt+HNDtFtoQ0znAmTzuqnofMXdVHsMLtt7dEsroqKLLbarwAhek8BMZUt2sacbEBRXwtBx+EopmOPH2rch6s6FUi6zJb9n2S4U2e/ttjqPWUpeCNhcRDDz0U0RHDBxFxkFLVk0Tl6Z/mwaIIqhroIxZo4thcHzV8xbhBl7Yoss88TaMPXUS9yuQAn075LU+ZMiV4H/Lqs9rusqAXXY+wGFchARfDUbTI3EXx4F2TETjnnHNCKQe2YJtN2I7B5IuPSR4lcOgHqlWeT7E6S39sa+hGdPay1NnuaTEmymAlXfNKbF38ILny1YNjrIoi9AmMg81E6nYjtqTUsAHtiNMfbrQteO/t4/Hk7OpGiwzzq9XtoYceGsY1GoCBnbYXzEAji7C0bVHGt12lti4O0CkFtmCy8u5e2L9XqOUkEXydqmstzN95jsRMKr/qz8jcVX0E26D9MIDRDyL8zzWDINFQR7PYBog7hcRuC1bfciRWRBqip3bklfqhfDAEsBAHBpgcIXUhFYMAPupprMCL2s6BuoG+y/a1yIULrLL1vUMdYObwDulCxTZuwPMypHfqCw7lQ5m9KIKhk45X0dJ8SMbVTRJ+Z/gtl0WYK3T8XX95ZdXZrHLBVMHwwXZvAl1wYIq/vL490X5I6xS3JEkwFuJqtAFmMs383Sx8WqUeMnetMhId3o6JEyeGP+okK+miYMLWFVZ7UN6FM9J6ZCvJY7UIC109oQTHWeX9gOKDoxZ9WOk3a8uoXn/b6bnPYbV+QOxrHuVvFyfX0lnLV8mamz7vva0nii1HlXjoMVvKxKB+SNmKJD2RAWXDAjXvu69tAmP6ouiawiJe8cK1UbdLWr59hURJsQEj0ohfS7tcN2x7BIhzpO7mqcI93DsBNx0nWLPCebBKi8H05SW8B1o2pNJxBD+sYOjQBjB4cSdOxeXvlHgyd50y0hXoJyZznSSasW2SBRL9IOikplfoUoFBy0tqGYYtI05SeVFMzofx0fdKx813LWIb0JZo2XW47n6SW1z/qe3+B2c0oy7bt5f2N+t5nvVqxsddJWuoEwsS6Mbl/bO3lm28EAbDVwaBidAzqsFM4L5owoJP+5Nm8Vh0/WWVh10F7Zd7bXRrHnO+lpnk+kq3YiEQaHRhURZOrVAumbtWGAW2IUQA4nYctVXGhBtWkiOAFapOPHqF65M01lxJ1eF4tSxe2JPK4rN4BOBGSMct6QqpQCNkK9FrPWC0iiYwolo+GKwzzzwzrMJ26GrHhwkaCPhOFdJ2FH1t9LdVr5vAqQy3GWA4FAtskYPAjDfiZqleX5r13JXcoZ/YAcnigiqurfDfqriBicT2L9Ql3MUz5ks9ljKuLMbTzx3fASKQCgGsvi+66KJATw/StrKOrkrVGCbKjAC241SapR8Q37VR/Sjbf6OWX6TVp3ZclfVRB05CsCUY9hmbRW47Xn755eHHV/tW1hXbblUlWwKFIwlxj3cPjo3bgaZPnx4chQlGHyoPRbmxUh1ovFMoE6dYNXredzvgnbcPlNzlRY75iAARqBQCtmQgiSnxHT2VtqOqM2SX3yjD6NbtHqvlutnAua6oH22xmT63nKz3kNDY/SozXJaVb9Y+50lvb11iCxHj0M5Hz+XByJfHNgTCdj3+8lrd+srvtLie8gMlEQEiQATaHgHxZ2fEp6GRkwUS+3reeecZOcc4MY3voZyq4i17hRVW8CXPHSeuQsK84jDZLLvssuG9GE+YW265JbgfO3as6dmzuClepDRGdAfDusoMDB06tMziSy1bGDojkjrz1ltvGTE+MeLP04gOXql1tkPh22+/vRFL8KAriy++uBELc9OnT5926Fq39KEHuNluqZmVEgEiQASajACYtuOOO65ureKGIfhA101oJXjwwQeNWI9aMf8NTps2zWy44YY18Xkjtt56ayO6YkF20Rszyy+/fFiU+Bozo0aNCu5lG9WA+SM1HwFR4zBydJYZPXq0WWSRRZrfgIrWKFvYZt555zUjRowwPXr0qGgvWqPZ87RGM9gKIkAEiED5CBx44IFGtsnqVgTpXVZ69tlnvVmGDx/ujc8TKcrlIWMHRtJm7FCenJUcFrvxxhsbscA2++67bxjHQHMQWGihhYzoX5Kxywg3FiYjR44kY5cRN19yMnc+VBhHBIhAWyIAKcpRRx1Vt29iZWrefvvtuunsBJCiuQRGcsCAAW507nvR5wrz7rrrrmFYA7plK+5KzFJLLWXEF6Pp16+fPuaVCBCBDkGAzF2HDDS7SQSIwH8ROPjgg1NBIb7QUqXTRGJBrcHwKlafYbiIwJ133hkWA506l8Q3XBCFbcF11lnHLLDAAub00093k/GeCBCBNkeAzF2bDzC7RwSIQBQBKGtPmDAhGum5k2PxjPhd9DzxR0FfyCXoDhVJ0N8DgWkcMmRIELb/bbrppsEtlPmh7yW+1Qo1qrDrYpgIEIHWRYAGFa07NmwZESACJSEgZ1Ga/v371y1dPOUHFrb1EsICd+GFF65JJu5XjJw7XBNfVoS4PjFy1FmwJWtb0ZZVX1nlypnAAVM6zzyUP5SFMcttbwT4y2nv8WXviAAR8CAAfTTxP+d5Eo06++yzzdy5c6ORnjs5LN0Ta2oMHryJCozs1auXWW+99SLuUYooHpLAU045JXBPUaaDBTDJsGiGdFWc/hbRdJZBBDoSATJ3HTns7DQRIAJpmDswG3J0WV2wxLGwN404/vXGVy1Szq81kGLutddexjbqKKof4qzWyGkOZuDAgYGrGuBeJhNZVLtZDhFoVQTI3LXqyLBdRIAIlIrAoEGDTBrjirPOOsu8//77iW2Jc4MyePDgxHxVeWg7L86ih5imfzfccIOBo+eLL77Y6wQ6TRlMQwSIQBQBMndRPHhHBIhAByEwfvz4ur2FFEnOFU5MF2cpW+QJEYkNKPkhHD9vtdVWATMsZ+UWWtuwYcOMHDxvwCBvsskmhZbNwohApyJA5q5TR579JgJEwMAfHI4lq0dwJwL3InE0c+bMmkdFu0GpqaCJESuvvLK56aabzAUXXGDmm2++QmvGcV16igOkqSQiQAQaR4DMXeMYsgQiQAQqjMDRRx9dt/WQ3k2ePNmbDpadPp27FVdc0ZuekUSACBCBshEgc1c2wiyfCBCBlkYAR3jttttuddsI3buPPvqoJp06DnYfQI+sXQhn7d59993mpZdeapcusR9EoK0RIHPX1sPLzhEBIpAGgWOPPbZuMrgDueyyy2rS+aR2SFR1S9kzzjjDbLDBBoH/PriOgYPkOXPm1PSfEUSACLQeAj1br0lsEREgAkSguQhAP26HHXYwN954Y2LFcAkCHT0c66XkO1MWz2AoUGUCHmBQcT6tEo40Ax1//PHGp2eo6ZKuONuXhhNJCPEZEWgcATJ3jWPIEogAEWgDBGARWo+5g/TuiiuuMOPGjQt7PGvWrDCsARhq2Aygxlfpim3lfv36hU2Gtaz26b777jMPPPBA+CxLYPfdd8+SnGmJABHIgQCZuxygMQsRIALth8Bqq61mxo4da2655ZbEzuGkhv3228/MP//8QTqfG5RRo0YlllGVh/fee2/Y1C233DIMb7fddmbMmDHhfZZAlY9Fy9JPpiUC3YkAmbvuRJ91EwEi0FIIYLuxHnMH6d2VV15pDjjgAPOf//zHTJ8+vaYPI0aMqImrYgSMKJSgc6eUxj+gpuWVCBCB5iNAg4rmY84aiQARaFEEoFOWRh9s0qRJBi5QXnvtNW9PYIHbDjRlypSgG9hmpsStHUaUfegUBMjcdcpIs59EgAikQuCkk06qmw5M3TXXXOP1b4fM7cDcPf/88yHzus0229TFhAmIABFoHQS4Lds6Y8GWEAEi0AIIbLTRRmbdddetazCAUysOOeQQb4uHDx/uja9S5NSpU8PmukeOHXrooebhhx8On2cJnHrqqWaLLbbIkoVpiQARyIgAmbuMgDE5ESAC7Y/AySefbDbffPPEjr7wwgvmyCOPrEmz5JJLhsdp1TysUMQdd9wRthb+7mx67LHHvLqGdpq48DvvvBP3iPFEgAgUhACZu4KAZDFEgAi0DwKQVOHM0xkzZmTuVF4r0swVlZjhs88+C93CgMldcMEFA0MTnNCx0047mX322SdwapynCSNHjsyTjXmIABHIgACZuwxgMSkRIAKdgUCPHj0MXJ5svfXWmTu80korZc7Tahls331g7p544onA/Yu6Rtl///1LafLcuXPDcj/99NMwzAARIALZEKBBRTa8mJoIEIEOQQA+7/IwaiuuuGLlEbLP0L366qvNeuutZy688EJT5nm5MOC45557QuzuuuuuMMwAESAC2RAgc5cNL6YmAkSgQxCYZ555Auld1u62g6UstqShOwjC1vTkyZOD49myYpEm/Q033BAc1QYjlA8++CDMgvN+cUKG7Tw5fMgAESACiQj06BJKTMGHRIAIEIEORQC6Z3BIPHv27NQIvP7666Z///6p07dqwg8//NA88sgjZvTo0W1hINKqOLNdRKAMBMjclYEqyyQCRKBtEMC25J577pmqP3379jXvv/9+qrRMRASIABEoCwFuy5aFLMslAkSgLRDYZZddzNJLL52qL6usskqqdExEBIgAESgTATJ3ZaLLsokAEag8Ar169TJwvJuGVl555TTJmIYIEAEiUCoCZO5KhZeFEwEi0A4I7LbbbqGBQVJ/yrQmTaqXz4gAESACNgJk7mw0GCYCRIAIeBDo3bu3mThxoudJNKodLGWjPeIdESACVUSABhVVHDW2mQgQgaYjAN9vQ4cONW+99VZs3XPmzDHLLLNM7HM+IAJEgAg0AwFK7pqBMusgAkSg8gj06dPHHHfccYn9GDx4cOJzPiQCRIAINAMBSu6agTLrIAJEoC0QgJPdgQMHRpztasdgKfv444/rLa9EgAgQgW5DgJK7boOeFRMBIlA1BODHbsKECd5mjxo1yhvPSCJABIhAsxEgc9dsxFkfESAClUbgoIMOMmDyXGqHM2XdPvGeCBCBaiJA5q6a48ZWEwEi0E0IfPnLXzbjx4+vqZ1uUGogYQQRIALdhAB17roJeFZLBIhAdRF4++23zRJLLBHpwFNPPRWcQxuJ5A0RIAJEoBsQoOSuG0BnlUSACFQbgcUXX7zGcnbYsGHV7hRbTwSIQNsgQMld2wwlO0IEiEAzEXjjjTfMgAEDgirh2w4+7khEgAgQgVZAgJK7VhgFtoEIEIHKIdC/f39zxBFHBO2mpWzlho8NJgJtjQCZu7YeXnaOCBCBMhFQ5m7kyJFlVsOyiQARIAKZECBzlwkuJiYCRIAIfIHAoEGDzLhx4wzPlP0CE4aIABHofgSoc9f9Y8AWEAEiUGEEPv74Y9OjRw/Tu3fvCveCTScCRKCdECBz106jyb4QASJABIgAESACHY8At2U7/hUgAESACBABIkAEiEA7IUDmrp1Gk30hAkSACBABIkAEOh4BMncd/woQACJABIgAESACRKCdECBz106jyb4QASJABIgAESACHY8AmbuOfwUIABEgAkSACBABItBOCJC5a6fRZF+IABEgAkSACBCBjkeAzF3HvwIEgAgQASJABIgAEWgnBMjctdNosi9EgAgQASJABIhAxyPw//vtWG9fFg6zAAAAAElFTkSuQmCC;" parent="cIYBzhSVWRX3Auf7i21r-5" vertex="1">
          <mxGeometry x="46.06" y="45" width="127.9" height="30" as="geometry" />
        </mxCell>
        <mxCell id="EMEFTBRN_l1zuekz9nE6-3" value="" style="shape=image;verticalLabelPosition=bottom;labelBackgroundColor=default;verticalAlign=top;aspect=fixed;imageAspect=0;image=data:image/png,iVBORw0KGgoAAAANSUhEUgAAA+IAAAFdCAYAAACHGdfCAAAMZ2lDQ1BJQ0MgUHJvZmlsZQAASImVVwdYU8kWnluSkJAQIBABKaE3QaQXKSG0CAJSBRshCSSUGBKCih1dVHDtIgI2rIhtdQVkLYi9LIq9LxZUlHWxoCgqb0ICuu4r3zv5zr1//jlzWmZy7wBA7+FJpTmoNgC5knxZXHgwa2xKKov0FCCAAPThh87jy6Xs2NgoAGXg/nd5fwNaQ7nqpPT1z/H/KroCoZwPADIe4nSBnJ8LcRMAeBVfKssHgKjkLafkS5V4DsR6MpggxKuUOFOFdyhxugof7rdJiONAfBkADSqPJ8sEQOse5FkF/EzoR+szxC4SgVgCAH0YxAF8EU8AsTL3Ybm5k5W4HGI7aC+FGOYDvNO/85n5N//pg/55vMxBrKqrXzRCxHJpDm/a/9ma/y25OYqBGDZQqSJZRJyyftjDW9mTI5WYCnGnJD06RtlriHvEAlXfAUApIkVEosoeNebLObB/gAmxi4AXEgmxMcRhkpzoKDWfniEO40IMVws6VZzPTYDYAOKFQnlovNpmo2xynDoWWpch47DV/FmerD+uMtYDRXYiW+3/jUjIVfvHtApFCckQUyC2KhAnRUOsBbGzPDs+Um0zslDEiR6wkSnilPlbQRwnlIQHq/xjBRmysDi1fUmufKBebKNIzI1W4/35ooQIVX+wk3xef/6wFuyyUMJOHPAjlI+NGqhFIAwJVdWOPRdKEuPVfnqk+cFxqrk4RZoTq7bHLYQ54UreAmJ3eUG8ei6elA8Xp8o/niHNj01Q5YkXZvFGxarywZeBKMABIYAFFFDTwWSQBcQtnfWd8JtqJAzwgAxkAiFwUjMDM5L7RyTwGg8KwZ8QCYF8cF5w/6gQFED+yyCrujqBjP7Rgv4Z2eApxLkgEuTA74r+WZLBaEngCWTE/4jOg8qH+eZAVY7/e36A/cawIROlZhQDEVn0AUtiKDGEGEEMI9rjRngA7odHwWsQVFfcG/cZqOObPeEpoZXwiHCd0Ea4PUlcJPshy9GgDfoPU/ci/fte4DbQpwcejPtD79AzzsSNgBPuDuOw8UAY2QOyHHXeyq6wfvD9twq++zXUdmQXMkoeQg4i2/04U8tBy2PQi7LX3/dHlWv6YL85gyM/xud8130BvEf+aIktxA5gZ7Dj2DnsMFYPWNgxrAG7iB1R4sHV9aR/dQ1Ei+vPJxv6Ef8jHk8dU9lJuUutS4fLZ9VYvnBqvnLjcSZLp8nEmaJ8Fhs+HYQsroTvPIzl6uLqCoDyWaP6+3rL7H+GIMzz3zjJFAC8nsK9l/eN470AoL4PAJ0Z3zgbGEfbCIBjQXyFrEDF4coLAf5L0OFOMwSmwBLYwXpcgSfwA0EgFIwCMSABpICJsMsiuM5lYAqYAeaCYlAKloHVoAJsAJvBDrAb7Af14DA4Dk6DC+AyuA7uwtXTDl6CLvAe9CIIQkJoCAMxRMwQa8QRcUW8kQAkFIlC4pAUJA3JRCSIApmBzENKkRVIBbIJqUF+QQ4hx5FzSCtyG3mIdCBvkE8ohlJRPdQEtUGHo94oG41EE9AJaCaahxai89ElaDlaje5C69Dj6AX0OtqGvkS7MYBpYkzMHHPCvDEOFoOlYhmYDJuFlWBlWDW2B2uEv/NVrA3rxD7iRJyBs3AnuIIj8EScj+fhs/DFeAW+A6/DT+JX8Yd4F/6VQCMYExwJvgQuYSwhkzCFUEwoI2wjHCScgnupnfCeSCQyibZEL7gXU4hZxOnExcR1xL3EJmIr8TGxm0QiGZIcSf6kGBKPlE8qJq0l7SIdI10htZN6NDQ1zDRcNcI0UjUkGkUaZRo7NY5qXNF4ptFL1iZbk33JMWQBeRp5KXkLuZF8idxO7qXoUGwp/pQEShZlLqWcsodyinKP8lZTU9NC00dzjKZYc45mueY+zbOaDzU/UnWpDlQOdTxVQV1C3U5tot6mvqXRaDa0IFoqLZ+2hFZDO0F7QOvRYmg5a3G1BFqztSq16rSuaL2ik+nWdDZ9Ir2QXkY/QL9E79Qma9toc7R52rO0K7UPad/U7tZh6IzQidHJ1Vmss1PnnM5zXZKujW6orkB3vu5m3RO6jxkYw5LBYfAZ8xhbGKcY7XpEPVs9rl6WXqnebr0WvS59XX13/ST9qfqV+kf025gY04bJZeYwlzL3M28wPw0xGcIeIhyyaMieIVeGfDAYahBkIDQoMdhrcN3gkyHLMNQw23C5Yb3hfSPcyMFojNEUo/VGp4w6h+oN9RvKH1oydP/QO8aosYNxnPF0483GF427TUxNwk2kJmtNTph0mjJNg0yzTFeZHjXtMGOYBZiJzVaZHTN7wdJnsVk5rHLWSVaXubF5hLnCfJN5i3mvha1FokWRxV6L+5YUS2/LDMtVls2WXVZmVqOtZljVWt2xJlt7W4us11ifsf5gY2uTbLPApt7mua2BLde20LbW9p4dzS7QLs+u2u6aPdHe2z7bfp39ZQfUwcNB5FDpcMkRdfR0FDuuc2wdRhjmM0wyrHrYTSeqE9upwKnW6aEz0znKuci53vnVcKvhqcOXDz8z/KuLh0uOyxaXuyN0R4waUTSiccQbVwdXvmul6zU3mluY22y3BrfX7o7uQvf17rc8GB6jPRZ4NHt88fTylHnu8ezwsvJK86ryuumt5x3rvdj7rA/BJ9hnts9hn4++nr75vvt9//Jz8sv22+n3fKTtSOHILSMf+1v48/w3+bcFsALSAjYGtAWaB/ICqwMfBVkGCYK2BT1j27Oz2LvYr4JdgmXBB4M/cHw5MzlNIVhIeEhJSEuobmhiaEXogzCLsMyw2rCucI/w6eFNEYSIyIjlETe5Jlw+t4bbNcpr1MxRJyOpkfGRFZGPohyiZFGNo9HRo0avHH0v2jpaEl0fA2K4MStj7sfaxubF/jaGOCZ2TOWYp3Ej4mbEnYlnxE+K3xn/PiE4YWnC3US7REVicxI9aXxSTdKH5JDkFcltY4ePnTn2QopRijilIZWUmpS6LbV7XOi41ePax3uMLx5/Y4LthKkTzk00mpgz8cgk+iTepANphLTktJ1pn3kxvGpedzo3vSq9i8/hr+G/FAQJVgk6hP7CFcJnGf4ZKzKeZ/pnrszsEAWKykSdYo64Qvw6KyJrQ9aH7Jjs7dl9Ock5e3M1ctNyD0l0JdmSk5NNJ0+d3Cp1lBZL2/J881bndckiZdvkiHyCvCFfD77UX1TYKX5SPCwIKKgs6JmSNOXAVJ2pkqkXpzlMWzTtWWFY4dbp+HT+9OYZ5jPmzng4kz1z0yxkVvqs5tmWs+fPbp8TPmfHXMrc7Lm/F7kUrSh6Ny95XuN8k/lz5j/+Kfyn2mKtYlnxzQV+CzYsxBeKF7Ysclu0dtHXEkHJ+VKX0rLSz4v5i8//POLn8p/7lmQsaVnquXT9MuIyybIbywOX71ihs6JwxeOVo1fWrWKtKln1bvWk1efK3Ms2rKGsUaxpK48qb1hrtXbZ2s8VoorrlcGVe6uMqxZVfVgnWHdlfdD6PRtMNpRu+LRRvPHWpvBNddU21WWbiZsLNj/dkrTlzFbvrTXbjLaVbvuyXbK9bUfcjpM1XjU1O413Lq1FaxW1HbvG77q8O2R3wx6nPZv2MveW7gP7FPte/JL2y439kfubD3gf2POr9a9VBxkHS+qQuml1XfWi+raGlIbWQ6MONTf6NR78zfm37YfND1ce0T+y9Cjl6PyjfccKj3U3SZs6j2cef9w8qfnuibEnrp0cc7LlVOSps6fDTp84wz5z7Kz/2cPnfM8dOu99vv6C54W6ix4XD/7u8fvBFs+Wuktelxou+1xubB3ZevRK4JXjV0Ounr7GvXbhevT11huJN27dHH+z7Zbg1vPbObdf3ym403t3zj3CvZL72vfLHhg/qP7D/o+9bZ5tRx6GPLz4KP7R3cf8xy+fyJ98bp//lPa07JnZs5rnrs8Pd4R1XH4x7kX7S+nL3s7iP3X+rHpl9+rXv4L+utg1tqv9tex135vFbw3fbn/n/q65O7b7wfvc970fSnoMe3Z89P545lPyp2e9Uz6TPpd/sf/S+DXy672+3L4+KU/G638VwKCiGRkAvNkOAC0FAAY8t1HGqc6C/YKozq/9CPwnrDov9osnAFubAEiAGj0HgA1QbaDSgwBQvsInBAHUzW1Q1SLPcHNV+aLCkxChp6/vrQkApEYAvsj6+nrX9fV92QKTvQ1AU57qDKoUIjwzbPRRouvuOq/AD6I6n35X4493oMzAHfx4/xd6MI1rNthBigAAAJZlWElmTU0AKgAAAAgABQESAAMAAAABAAEAAAEaAAUAAAABAAAASgEbAAUAAAABAAAAUgEoAAMAAAABAAIAAIdpAAQAAAABAAAAWgAAAAAAAACQAAAAAQAAAJAAAAABAAOShgAHAAAAEgAAAISgAgAEAAAAAQAAA+KgAwAEAAAAAQAAAV0AAAAAQVNDSUkAAABTY3JlZW5zaG90PNIXhwAAAAlwSFlzAAAWJQAAFiUBSVIk8AAAAt1pVFh0WE1MOmNvbS5hZG9iZS54bXAAAAAAADx4OnhtcG1ldGEgeG1sbnM6eD0iYWRvYmU6bnM6bWV0YS8iIHg6eG1wdGs9IlhNUCBDb3JlIDYuMC4wIj4KICAgPHJkZjpSREYgeG1sbnM6cmRmPSJodHRwOi8vd3d3LnczLm9yZy8xOTk5LzAyLzIyLXJkZi1zeW50YXgtbnMjIj4KICAgICAgPHJkZjpEZXNjcmlwdGlvbiByZGY6YWJvdXQ9IiIKICAgICAgICAgICAgeG1sbnM6ZXhpZj0iaHR0cDovL25zLmFkb2JlLmNvbS9leGlmLzEuMC8iCiAgICAgICAgICAgIHhtbG5zOnRpZmY9Imh0dHA6Ly9ucy5hZG9iZS5jb20vdGlmZi8xLjAvIj4KICAgICAgICAgPGV4aWY6VXNlckNvbW1lbnQ+U2NyZWVuc2hvdDwvZXhpZjpVc2VyQ29tbWVudD4KICAgICAgICAgPGV4aWY6UGl4ZWxYRGltZW5zaW9uPjI4ODA8L2V4aWY6UGl4ZWxYRGltZW5zaW9uPgogICAgICAgICA8ZXhpZjpQaXhlbFlEaW1lbnNpb24+MTgwMDwvZXhpZjpQaXhlbFlEaW1lbnNpb24+CiAgICAgICAgIDx0aWZmOlJlc29sdXRpb25Vbml0PjI8L3RpZmY6UmVzb2x1dGlvblVuaXQ+CiAgICAgICAgIDx0aWZmOlhSZXNvbHV0aW9uPjE0NC8xPC90aWZmOlhSZXNvbHV0aW9uPgogICAgICAgICA8dGlmZjpZUmVzb2x1dGlvbj4xNDQvMTwvdGlmZjpZUmVzb2x1dGlvbj4KICAgICAgICAgPHRpZmY6T3JpZW50YXRpb24+MTwvdGlmZjpPcmllbnRhdGlvbj4KICAgICAgPC9yZGY6RGVzY3JpcHRpb24+CiAgIDwvcmRmOlJERj4KPC94OnhtcG1ldGE+CovGAWkAAEAASURBVHgB7J0FuBTl98cPIS2hgFIGIgoI0qlISqk0EqIikgoKImCQFgYhLY0gIKU0UqKECAg/EFBJkZJUQFD6f7/jf8aZ2ZnZ2Xs3Zne/53lg5o154zN7793zvuc9J9mNBBEKCZAACZAACZAACZAACZAACZAACZBAWAgkD0sv7IQESIAESIAESIAESIAESIAESIAESEAhQEWcHwQSIAESIAESIAESIAESIAESIAESCCMBKuJhhM2uSIAESIAESIAESIAESIAESIAESICKOD8DJEACJEACJEACJEACJEACJEACJBBGAlTEwwibXZEACZAACZAACZAACZAACZAACZAAFXF+BkiABEiABEiABEiABEiABEiABEggjASoiIcRNrsiARIgARIgARIgARIgARIgARIggZREQAIkQAIkQAIkQAIkEL8Ebty4Ifv27ZPNmzfLxo0b5eeff5b58+dLypT/fU28evWqzJ49W5YvXy6HDh2SQoUKyWOPPSZVq1aNX3CcOQmQAAkkgUCyhF++N5LwPB8lARIgARIgARIgARKIIgJHjhyRtWvXyk8//aQo399++62cP39em0HevHkVxVzN2Lp1qzRt2lR2796tZmnXOXPmSIMGDbQ0b0iABEiABNwR+G+p01191iIBEiABEiABEiABEohiAvPmzZMXXnjBdgZNmjTRymbNmiX6tFbw/zejR4+mIm6GwjQJkAAJuCDAM+IuILEKCZAACZAACZAACcQKgfbt28vJkydl06ZNUrx4cZ9pPf7440qeXgkvWLCg9OrVS7Jnz26ov2HDBkOaCRIgARIgAXcEuCPujhNrkQAJkAAJkAAJkEBMEEiePLlkzZpV+Ve3bl3ZsmWLNq+bb75ZSpcuLTBXV3fChw4dKp06dVLqXLp0ST744AOtfqZMmbR73pAACZAACbgnQEXcPSvWJAESIAESIAESIIGYIrB9+3bDfJo1aybHjh1THLGhYNSoUYIddFWOHz+u3ipXOG2jkAAJkAAJBE6ApumBM+MTJEACJEACJEACJBD1BK5cuSJwtqaXatWqSb169RTnbcOGDTMo4ai3Zs0afXWpWLGiIc0ECZAACZCAOwJUxN1xYi0SIAESIAESIAESiCkCCFVmltWrVyum6jBZf/HFFw3FCFu2f/9+Q16VKlUMaSZIgARIgATcEaAi7o4Ta5EACZAACZAACZBATBFATHCzjBw5UnHINnbsWHORcm5cn4nz5CVLltRn8Z4ESIAESMAlASriLkGxGgmQAAmQAAmQAAnEEoEFCxZYTmfy5MmSLVs2n7Kvv/7akFezZk1JmZLuhgxQmCABEiABlwSoiLsExWokQAIkQAIkQAIkECsE4HRN7y1dnVfnzp0FCraVmBX3GjVqWFVjHgmQAAmQgAsCVMRdQGIVEiABEiABEiABEoglAubdbcwNpuZvvfWW5TT37NkjJ06cMJRVrlzZkGaCBEiABEjAPQEq4u5ZsSYJkAAJkAAJkAAJxASBr776ymcePXv2lIwZM/rkIwNxxfWSN29ewT8KCZAACZBA4ghQEU8cNz5FAiRAAiRAAiRAAlFJ4Pr16z5hy7Ab3rFjR9v5rFq1ylD22GOPGdJMkAAJkAAJBEaAinhgvFibBEiABEiABEiABKKawLZt25Q44fpJvPrqq5I5c2Z9lnYPxd18Prx69epaOW9IgARIgAQCJ0BFPHBmfIIESIAESIAESIAEopaAVdiy1q1b285nx44dPor7ww8/rNU/duyYds8bEiABEiABdwSoiLvjxFokQAIkQAIkQAIkEBMEFi5caJhHpUqVJGfOnIY8fWLNmjX6pEAJz5Qpk5K3bt065dlJkyYZ6jBBAiRAAiTgTICKuDMflpIACZAACZAACZBAzBA4e/asmBXrZs2aOc7PvINeq1Ytpf7hw4elQYMGyn3ZsmUd22AhCZAACZCAkQAVcSMPpkiABEiABEiABEggZgl88803PnPz53jN7KitXLlycvLkSalataoS0mzWrFly//33+7TLDBIgARIgAXsCKe2LWEICJEACJEACJEACJBBLBMy726VKlXI0S79y5YrP+XDEGt+0aZOS36dPH2nUqFEsIeJcSIAESCAsBKiIhwUzOyEBEiABEiABEiCByBP48ssvDYNo3LixIW1OpEzp+1VR3SHv0qWL9O3b1/wI0yRAAiRAAi4I0DTdBSRWIQESIAESIAESIIFoJ4Dz4TjXrZc6derokz73yZIlEyuP6tOmTZNBgwb51GcGCZAACZCAOwLJbiSIu6qsRQIkQAIkQAIkQAIkEG8Erl27Jt99953AQ3rBggXloYcekixZssQbBs6XBEiABIJKgIp4UHGyMRIgARIgARIgARIgARIgARIgARJwJkDTdGc+LCUBEiABEiABEiABEiABEiABEiCBoBLw9cAR1ObZGAmQAAmQAAmQAAmQAAmQAAmQQCgI4JQxoiFs2LBBduzYIdu2bRM4WSxatKgULlxY+VejRg0lLxT9s83EE6BpeuLZ8UkSIAESIAESIAESIAESIAESiAiB9evXS/fu3RX/DU4DQJjCSZMmKT4enOqxLLwEaJoeXt7sjQRIgARIgARIgARIgARIgAQSTQAOFDt16iQVKlTwq4Sjk02bNkmhQoVkxIgRie6TDwafAHfEg8+ULZIACZAACZAACZAACZAACZBASAh07NhRRo0alai2Ef2gfPnyiXqWDwWXABXx4PJkayRAAiRAAiRAAiRAAiRAAiQQEgJLliyR2rVra23nz59f6tevLyVKlJDbbrtNdu/erZwZnzlzplZHf4P6W7dulXTp0umzeR8BAlTEIwCdXZIACZAACZAACZAACZAACZBAIARgkg5Fev/+/cpj7du3l0GDBknatGl9mlm2bJm0bNlSTpw44VOGZ7p06eKTz4zwEuAZ8fDyZm8kQAIkQAIkQAIkQAIkQAIkEDABKNeqEj5y5EjFPN1KCUfDjz76qHz99deWfcDDOiXyBKiIR/4dcAQkQAIkQAIkQAIkQAIkQAIk4Ehg4sSJSnnDhg2lQ4cOjnVRWLBgQenbt69Pvc2bN/vkMSP8BGiaHn7m7JEESIAESIAESIAESIAESIAEXBO4evWq3HLLLXL+/Hn59ddf5c4773T17Llz5yRTpkw+ddFOhgwZfPKZET4C3BEPH2v2RAIkQAIkQAIkQAIkQAIkQAIBE9iyZYuihDdt2tS1Eo5OMmbMKNmzZ/fpL1myZD55zAgvgZTh7Y69kQAJkAAJkAAJkAAJkAAJkAAJBEIgX7588umnn0rZsmUDeUyp++CDDyqe1NUH8+bNK+nTp1eTvEaIABXxCIFntyRAAiRAAiRAAiRAAiRAAiTghgDM0uEFPTFy8eJFw2PFihUzpJmIDAGapkeGO3slARIgARIgARIgARIgARIggZASQMizdevWGfooUqSIIc1EZAhQEY8Md/ZKAiRAAiRAAiRAAiRAAiRAAiEloIY703cCr+uUyBOgIh75d8ARkAAJkAAJkAAJkAAJkAAJkEDQCcDJm17atm0rhQoV0mfxPkIEGL4sQuDZLQmQAAmQAAmQAAmQAAmQAAmEigDM0osXLy7bt2/Xujhy5IjkzJlTS/MmcgS4Ix459uyZBEiABEiABEiABEjAQwSuX7/uodFwKNFKwCufo2nTphmU8P79+1MJ99CHijviHnoZHAoJkAAJkAAJkAAJBEIAu1tdu3aVS5cuBfJYROoOHz5ccufOHZG+/XV67tw56dKli6xevVp27twpadKk8fcIy0nAksCvv/4qcIb2/PPPy7vvvhuxz9KFCxcEYcpOnDihjLN69eqyePFiSZmSQbMsX1wEMvkmIgCdXZIACZAACZAACZBAMAhAcZw5c2Ywmgp5Gz179vSkIr5+/Xp58skn5fDhwwqDffv28QxtyD8NsdvBokWL5Pz58zJ48GBZuXKlfP7553L//feHfcLoX1XCsQA2ffp0KuFhfwvOHdI03ZkPS0mABEiABEiABEjAswQeeughufnmmz07Pv3ATp8+rU9G/P7y5cvSu3dvqVChgqaEz549m0p4xN9MdA+gY8eO8vbbbyuTwNnsAgUKyPjx48M6qQ0bNkivXr2UPvH7YcWKFXLrrbeGdQzszD8Bmqb7Z8QaJEACJEACJEACJOBZAnPnzhU34YhgJpssWbKgz+PGjRty8uRJ2bFjh2zbtk3bhTN3NHnyZHn66afN2RFJ7927V9kF13uUXrVqlVSuXDki42GnsUdg3rx5Uq9ePW1iTZo0kYkTJ0q6dOm0vFDcHDt2TIoWLar9HCKGePny5UPRFdtMIgGapicRIB8nARIgARIgARIggUgSaNCggbz44ouCM9hOgh0xhC4KtXz//ffy3HPPya5duwxdnTp1ypCOVAKm59gFV812sWMIE394l6aQQLAI1K1bV7DQo36ucIQEvhxgdRGqc9p///23NG7cWPtsz5kzh0p4sF5oCNqhaXoIoLJJEiABEiABEiABEggngQ8++EBxEOXUZ7t27ZRda6c6wSgrU6aMbN26Vbp3725oDrvmkZZDhw5JpUqVNEUFZ2d/+OEHTVmK9PjYf2wRKFasmCxfvlybFHbJYboOK5JgCzy1YwEMO+CQsWPHChbpKN4lQEXcu++GIyMBEiABEiABEiABVwTSpk3rymkbnJJdvHjRVZtJqZQqVSrFYzR2nlWJtCIOk10o4apTNowLitG9996rDpFXEgg6gWrVqsm4ceO0dqEgv/nmm1o6WDdoc8aMGUpz77//vuK1PVhts53QEKAiHhqubJUESIAESIAESIAEwkrgvvvukylTpjj2CXPxV155xbFOsApTpEgho0aN0ppTTcG1jDDeYBEACtH+/fu1XkeMGMGdcI0Gb0JJoHXr1tK5c2etC/hrGDZsmJZO6s0nn3wi7733ntJMjx49fKxRkto+nw8NASrioeHKVkmABEiABEiABEgg7ASeeuopefbZZx37HT16tMyaNcuxTrAKCxcuLBgT5Pfffw9WswG1g3OzNWvWNJxZxzlamAhTSCBcBPr37y/Zs2fXuoNiHoyfQ5wDb9++vdJuhw4dNIVc68jh5uuvv5ajR4861GBRKAlQEQ8lXbZNAiRAAiRAAiRAAmEmgJ22/PnzO/aKHboDBw441glW4cMPP6w0BdPwSAgUIL13dJwLHzNmTCSGwj7jmECmTJnk448/NhCAJ3X9UQlDoYsEPP03atRIqYkFOPzsu42MgNBqVapUUeKcu+iKVUJAgIp4CKCySRIgARIgARIgARKIFIEMGTL4PS9+/vx5ad68uVy5ciXkwyxbtqzSR1IUjsQOEh7cBwwYYHgc6cyZMxvymCCBcBCAjwb4KdBLYi0zsLhUtWpVpSko9Dh7juMgbuT06dPSsmVLpaqqyLt5jnWCS4BxxIPLk62RAAmQAAmQAAmQgCcIwAQdpqpO0rNnz4BMWZ3asiu7evWq4Pw6nKItWbLE9Y6dXXtu82GSjnjKu3fv1h6BaTAWBG666SYtjzckEE4C2MVWFWi13+nTp0vTpk3VpN8rfD1ggQsLagi/B8/scJDoJJcvX5Y//vhDiZwA3w3wl/D444/L/PnznR5jWQgJUBEPIVw2TQIkQAIkQAIkQAKRIoAQSdiB83cOFV/i4cgs1uT111/3WWSA6S5irlNIIFIEEGYMi1J6x4FQppHOmjWr32Ht27dPiQ0eDOeHCxculDp16vjtkxVCQ4CKeGi4slUSIAESIAESIAESiDgB7IAVKVLE8RwqlADsGt9+++0RH2+wBnDkyBHBWXCzYAcRpvsUEogkgYEDB0q3bt0MQ4DDNX2UAUPh/ydgzVGuXDnHn2er56zyYB2Cn5OUKVNaFTMvDAR4RjwMkNkFCZAACZAACZAACUSCQJYsWfzuiEM5haMn7NTFiiCck1ngKZ1KuJkK05EgoEYS0PeNoyROu9wog0l7sHwtvPDCC1TC9S8gAvcp+iZIBPpllyRAAiRAAiRAAiRAAmEggJ1hKKAwQbcTmLuiToUKFeyqRE3+xYsXFU/SOBOrl1dffVU5M67PS+o9zr/v2LFD1q9fLwgFdejQIcmVK5ekTp3aVdN79uyR1atXCzxYYyEkW7ZsYTtD72qAHqqEM/8//vijwAEf+GKRya2A7Xfffae8p3/++Uduu+02SZ48cvuR+Flbs2aNT+QCzEmNMmCeG+oPHTrUnJ3o9KRJk+i0MNH0gvMgTdODw5GtkAAJkAAJkAAJkIBnCUAReeyxxxRnaU6D3LBhg5QpU8apiufL4D26bdu2PuPETiKU5KQKFEIsasDJ1cyZMxWHWfo28+bNK1u3bpWMGTPqsw33GAu8ZS9YsMCQD0/WUJAiqSQaBhShhOpUDAsU8A6+efNmZbFCHQ4Y//zzz66c7mGRCZ7K9TvJpUqVki+++CIonwd1TIFe4b3/tddeMzwGc/HffvvN9UKO4WEmoo4AFfGoe2UcMAmQAAmQAAmQAAkETgCmrYULF3Y0f8XuOXYdozW8FxzU3X///QZP6SCFc/Lbtm0LHNr/P4F2ly5dqijeUJT9yfvvvy/du3e3rIbd85o1a/oo8GplKJjwMh9vggWOZ555Rtm51ivNdhymTJkiVibe5vp9+vQRxJI3C8L3ffbZZ+bssKWx6IXz3maZOnWqtGjRwpzNdAwSiJxNRgzC5JRIgARIgARIgARIwKsEsNs2Y8YMx+FBAWrXrp1jHS8X/vLLLz5KOMZbvnz5JA372rVrUrt2bWW3Gg3lz59fsKtqJ2+//bblmXuYVcP8H+fy7eTAgQN2RTGdDyuAb775Rtm5hgNBfzJmzBh/VZRyLCxZybRp0yzfkVXdUOQVK1bMstlx48ZZ5jMz9ghQEY+9d8oZkQAJkAAJkAAJkIAlgcqVK0u/fv0sy9RMmFuPHz9eTUbVde3atZbjTeoOMzxLYwcW4Z5Onz4tUPg3btxoa+oPRXvnzp2GscDkuHr16oY8q0S0Hw2wmpObPJz7PnjwoKIcnz17VnB+fvDgwbaP4sz03r17bcvVgieeeEK99bn+/vvvPnnhysB8saBjFvgMgJ8DSuwToCIe+++YMyQBEiABEiABEiABjQDia9s5hFIrPf/887Jr1y41GTVX7KhaCeI2J1VgBo2Yy7fccovWFEzM7VjqFwXgIKxRo0baTnjPnj1l06ZNArNpWCpgBxjHAj744IOAnJBpA4mRmzRp0ijO6pIlSyb58uWTl19+WebOnWs7u9mzZ9uWqQX16tUTnCm3kkuXLlllhy2vaNGiln3hs0GJfQJUxGP/HXOGJEACJEACJEACJKARwO7u9OnTFeVPy7S4QbivaNqZwznuZcuWWcxEFKXOsiAImU2bNrVsBTubqrzyyiuK4o308OHD5b333pOSJUsKghcdPXpU+QeTdHh2pxgJ1K9fX7BwYSX4HPsT+DuAYtukSROfqrfffrtPXjgzChUqZNndt99+a5nPzNgiQGdtsfU+ORsSIAESIAESIAEScEVg0aJFiid1p8odOnSQkSNHOlXxTBlMma1MfTFA7HymSpUqJGPdv3+/3HPPPT5tYxcWHrvh5K1WrVpKeZcuXWTQoEE+dUOdgd15Nw7QQj0OtX2cjw7kuMCpU6eU0G7q8/or3jt2z91I165dNXN3WCIcP37czWMhqzNhwgRp3bq1T/vw8o5weJTYJkBFPLbfL2dHAiRAAiRAAiRAArYE4Nn7ww8/tC1HwZw5c6RBgwaOdbxQiPPbjz/+uM9QYPZ97tw5n/xgZuTJk8dS0YWSXrZsWcVTffHixZU41m5jjAdzfFgowFi8IrAKeOGFFwIaTqtWrTRnefoHsbCBBQ43gp3x0qVLK1XbtGkjbh2+uWk7MXUQvs7uDDti1KdIkSIxzfKZKCFA0/QoeVEcJgmQAAmQAAmQAAkEmwC8ezt5/0Z/zz77rPz666/B7jro7Z05c8ayzUyZMlnmBzMTMdqtRFXCUYZQWZFQwtH35cuXcYlqQYx1K0E8cLeC+OSq1KhRQ72N2DVbtmy2ff/555+2ZSyIDQJUxGPjPXIWJEACJEACJEACJBAwAZhr+zsvDg/gcFR25cqVgNsP5wMwX7aSjBkzWmUHNe+RRx6xbA+x2yEfffSREt/cshIzXRGoWLGipV8DeE+3e/fmhleuXKllufFgr1UO0U3WrFltW7ZbWLJ9gAVRRyBl1I2YAyYBEiABEiABEiABEggaAZgtI1yZlTMrtZN169ZJ//795a233lKzPHe1U8bSp08f8rE6hRwrUqSIvPTSSyEfg1MHOEcNZ3ZekZtuuingocDJYIsWLWT06NE+z65YsULsnOapla9fvy6IHQ6BWXo4FmjUvu2uTp9NhMkLhrd/u76ZH3kC3BGP/DvgCEiABEiABEiABEggogTgIb19+/aOY4AZu35H0bFyBAqhuFgJzoiHWu6++24lDJlVPx9//LFAiYykICxY2rRpPfMvsTxUp3dmlnCI509WrVqlnePHcQsviNNRBbvPsxfGzTEEhwAV8eBwZCskQAIkQAIkQAIkENUEBg4cKAULFnScw+TJkx3LI1kYacdW1apVs5z+gw8+aJnPzMAJwJu4lSDW+LVr16yKtDw4iIPAQqFcuXJafiRvnCwD9OfZIzlG9h06AlTEQ8eWLZMACZAACZAACZBA1BBIly6dzJo1y3a82Fnu16+fbXmkC3CW3Urs8q3qJiWvQoUKlo/v2LHDMp+ZgROAObmVMo53vHPnTtsGf/75Z5k3b55S/vrrr0uyZMls64azwEkR94LpfDhZxGNfVMTj8a1zziRAAiRAAiRAAiRgQQA74hMnTrQoEeUcOUywvSp2jq/Onj0bliHbeZ/fvHlzWPqPl07snKzBaZudvPvuu0pR7ty5pWHDhnbVwp6Pc+t2Egue7u3mxvx/CVAR5yeBBEiABEiABEiABEhAIwAP6WbB+XGcI/ey2Cni4QoDtW/fPks8cHRHCR4Bqx1xtP7tt99adgJHdVOmTFHK3nzzzYif19cP8sKFC/qk4T5LliyGNBOxR4CKeOy9U86IBEiABEiABEiABBJNYMCAAYZnsUuO8+NeF7uYzGoIsVCO//jx49K2bVvLLpYtW+Ypj+WWg4yizJIlS1qOdv369Zb5UL4hefPmlVatWlnWiVSmkyKeOXPmSA2L/YaJABXxMIFmNyRAAiRAAiRAAiTgdQIw7+3Vq5dhmDNnzhScH/e62CniGLeTCXAw5tWuXTuxO4uO/N27dwejG7aRQCBVqlRSp04dHxaHDx8Ws4OzDRs2CD6/kKFDhyrP+jwYwQwnRTxTpkwRHBm7DgcBKuLhoMw+SIAESIAESIAESMDjBBCHu1GjRoZRjh07VgoVKmTI82rCzjQd47148WLIho0z9aojMLtONm7caFfE/EQQeOSRRyyf+uWXX7R8xE3v1q2bkq5Ro4al8q5VjtCN0+cyR44cERoVuw0XASri4SLNfkiABEiABEiABEjAowSwY/zcc8+J3oy7adOm8vzzz3t0xL7DclowCJXDNpwLBzdI9uzZZdu2bb4DS8ixM5u2rMxMvwTKly9vWQfe0VXB4oh6Pt+rRyvsYoUjxFr69OnVqfAaowSoiMfoi+W0SIAESIAESIAESMAtAZjtLliwQKsO79KjRo3S0tFwc8stt4id53L9Tmmw5nL16lXRO7abP3++EqM6f/78Pl2sWrXKJ48ZiSdQvHhxy4d37dql5P/999/SqVMn5R5Xp0Uay4bClLl3717LnuxC4VlWZmbUEqAiHrWvjgMnARIgARIgARIggaQT2LRpk3Tp0sXQ0Jw5cyQanUXVqlXLMA814RRjWq0T6BUhsXAGGTJs2DApU6aMcv/oo48qV/1/OCN+9OhRfZZ2j13RkydPamm3N//884/bqjFXL23atPLwww/7zGv79u1K3uDBgwVnxm+++Wbp3bu3T72kZCCsWLB8Dvz000+WQyldurRlPjNjiwAV8dh6n5wNCZAACZAACZAACbgmgNBeMEHXy0cffSTRqghUrlxZPxXt3s5kXKsQ4M3atWulT58+ylMI6/bCCy9oLdidX1bNpLWKCTdQpqG4w6z9t99+0xfZ3mN3He8HyiiODvz++++2dWO5wOpdb926VQ4dOiRvvPGGMnUsljj5DgiEDxyr4cx56tSppUCBAvL5558H8rhlXXUH31xoZ9lhrsd0dBOgIh7d74+jJwESIAESIAESIIFEE+jQoYPs379fex47yubdca0wCm7UXWnzUKGgBUtwjr5hw4ZKcwiJBYd2yZIl05q3MytevHixVke9ee2112TLli1StmxZyZkzp5pte7127Zo888wzAisGyPjx42XkyJG29WO5wGqxCO/m2WefVaaNIwJ2IeUSw2XWrFlaGD9YOGABy+ylPdB2f/jhB59HMG6vmtL7DJYZSSJARTxJ+PgwCZAACZAACZAACUQngXHjxsmMGTO0wWNXdtKkSZI8efR+PcQucf369bU5qTdQdq9cuaIm/V5x/htmw2fOnDHUVc+Fq07tvvjiCzGHmYK3a6tz4mB77tw5rb2pU6fKkCFDlDTKUqZMqZXZ3UBxg8m1XuC1PR6lRIkSltNWz+ODLUKdBUtmz57t09TSpUt98txmYOfeKuRdMBcP3I6F9SJDIHp/00aGF3slARIgARIgARIggagn8OOPP0qbNm0M85g+fbpiIm3IjMKEGrLKPHS3Dtuw8wnHbwULFpRbb71VWrZsKXCqBaUJ1gLLly9Xmp4wYYLinM3cD9JW58SR37dvX1wEjt3QLgQeve+77z7l3t9/ViGt8uXL5++xmCy//fbbbT+vsOyw8xeQWBh58uTxeTRXrlw+eW4z1M+Rub75qIi5nOnYIUBFPHbeJWdCAiRAAiRAAiRAAn4J4KyrOV54r169pEqVKn6fjYYKCG1l5cjLyjTcPB844erZs6dhpxI71/fee69kzJhRhg8frjyCkGWtWrUyP66lq1Wrpt3rb+BEDGbsdevWVbJhxt65c2d9Fcd7KINmBTOed1DtjgHAz0GwBUcC9IJjCQ899JA+K6D7hQsX+tTHu02Kcu/TIDM8TSBZQrD7G54eIQdHAiRAAiRAAiRAAiQQNAJw8IWzxapAmVm9erUr02j1Ga9flyxZIrVr1zYME+bi/nbFYYqOXXAnwYIFlHo47bITmKCbTdbNdeHRG2fX77nnHnORYxpeu7Fr/+uvv0qNGjWkZMmSjvVjuRAO8/r372+YYo8ePWTAgAGGvGAl9uzZI19++aXijR2h6zJkyJCophFeLV26dD7Pfv3111KpUiWffGbEJgEq4rH5XjkrEiABEiABEiABEvAhgDPhzZo10/KhDO7YsUPuuOMOLS8WbrDPVLRoUVHDWalzwlnxYsWKqUmfK86RO50rRvxqKEvYHfcncBo2efJky2rgDs/rRYoUsSxnpjsCn376qeK8Tq2N4wQ4R58mTRo1y5NXq4WiOnXqiNUuuScnwEEFhQBN04OCkY2QAAmQAAmQAAmQgLcJ4JyzXgnHaKHIxJoSjnnB/Fs9j420Kv5CTt10003SvXt3tbrhWr16dYEjMDdKOB586623JHfu3IY2kEBoKiwQUAn3QRNwhtmxII4ReF0JxyQ//vhjn7ki1BolvghwRzy+3jdnSwIkQAIkQAIkEIcEEK8aJujYEVblxRdflGHDhqnJmLy2aNFCpk2bps0NnuERri19+vRanvkGu+lQ2NesWSPHjh1TuNWsWTNRIaUOHjyo7YqfPHlSceKGnU+zAmkeA9PuCOB8PMLHQaDIIhyc1wU79ubjBLCeiFfv915/X6EcHxXxUNJl2yRAAiRAAiRAAiTgAQJdu3YVOApTBbuxGzZsEIT7imVBnOf7779f1HBjmCvOFMM5HSW6CSD8l2rNgTjsWDhxEwIu0rNu0qSJcsZfHQcWh3bu3ClZs2ZVs3iNEwJUxOPkRXOaJEACJEACJEAC8UkAobJUL90qAcTIhoIabnnppZcUx3AwzQ2XUyo4oqtcubJhqkeOHJGcOXMa8ryewI46nM1t27ZNNm/eLD///LOMHj1aHnzwQa8PPSTje+KJJ2TBggVK27t371Y824eiIzjHgxUFfCnAuR7+3X333TJixIiAu8Oz8DOgl++++06wkECJPwIp42/KnDEJkAAJkAAJkAAJxAeB3377TeDdWS8wgY2EEg5HaOgb8bih3IRLoPDDk/b777+vddm7d28ZN26clvbiDcziERMdnrqhdIObWbJly2bOiov0pEmTNCUcpukILxdM+eSTT2TevHnKwgeUcLPgWEegcvbsWZ+wgYMGDaISHijIGKpPZ20x9DI5FRIgARIgARIgARJQCVy9elWaN29uUOBatmwpOI8aCYGXcFWZzJcvX1iH0K9fP4PCg/BtK1euDOsYAu0MCxfYBb927ZrGTd8GjhdE266+fvyJvceushrDvXXr1oJwfMEWhLFDiLG//vrLsmmEjQtE4HegTZs2ys66+lz9+vXl5ZdfVpO8xiEBmqbH4UvnlEmABEiABEiABGKfAM5Bv/3229pE8+bNq5jVuvX6rT0YpJt69eopu4xoDkpmuM/znjp1SnG8BjNmCEKIbdq0Se677z4l7eX/YEnw3HPPGYaI92uOoW2oEIOJ33//XfE6f/jwYcXEG4s7ofRzcOnSJcGiEfrTC3a3A/k5Gj58uHTq1ElrAor83LlzLWOJa5V4E/MEuCMe86+YEyQBEiABEiABEog3AitWrDAo4Zj/rFmzAlIegskMChNMfSGI9RxuJRz9whnW0qVLBc6xINidr127tmD30+uSI0cOnyEinFo8Cd4XPM5DKcYiChTZUCrhYJs6dWoxs69SpUpAP0fLli0zKOHw1/Dll19SCY+nD6/NXKmI24BhNgmQAAmQAAmQAAlEIwHsGiJsl16GDh3q4yRKXx7Ke3P88kjGz4aTra+//lpTxnH+t2HDhpam36FkEmjbGLNZypQpY86K6jTeBUJ7wSTcLFDCYVGhht/74osv5M477zRXC3oaizSwmtALFgPcCuKa683YcVQEC2LREOvc7RxZL/EEqIgnnh2fJAESIAESIAESIAFPEcB54qefftoQruvxxx+XxDiXSurEcEZ9zpw5ijm43rS3QIECSW06Sc9jR37dunWSO3dupR14VYfXaiwYeFUWLlxoGFrjxo0lVapUhrxoTRw9elSqVq0q99xzjxJfO126dAInZvgsQ/DZQfmqVauUNMz0kQ6HfPPNNz7dVKtWzSfPKmPAgAECnwyqtG/fXj799FO56aab1Cxe45xAyjifP6dPAiRAAiRAAiRAAjFD4MMPP5Tly5dr84EZ9oQJEyRZsmRaXqhusJMJD98IsYXwaJMnTzY4p1L7zZ8/v3obsSvO/X7//feCmM5Qynft2qVYDMycOVNq1qwZsXFZdYxQaxifXrw2Rv3YAr2fMmWKpmSrz77yyiuK+Xa5cuVk1KhRmsUCQoaF09mg/mcJY8PPU+HChdVhWl6xANWlSxfBuXBV8DOoOphT83glASri/AyQAAmQAAmQAAmQQAwQWL9+vbz22muGmZw4cSIsu4fwLm0V5skwmP9PBDvUlFUfbvLgcRy7rD179pTBgwcryl6tWrWUeNGFChVy00RY6liZpbvdlQ3LAJPYyfbt2y1bWLNmjeCfKkOGDJGOHTuqybBc1Tjlamcwj/e3qDVs2DBNCceiExZ34jXWu8qNV2sCVMStuTCXBEiABEiABEiABKKGAM6yIhySldgpOlZ1w5EHE2SvCMy7YQaNs7sIJQVP2F7zog5nX3qBcnfHHXfos6L6PkWKFH7HP3/+fMERi3AKrDv0RyrQt/68t91YHn30UcWZHGLVd+7cOWaOENjNl/mJJ0BFPPHs+CQJkAAJkAAJkAAJRJwAYhQjtBV2v70uMO3NnDmz54ZZsmRJgWd3r8n169cVE239uOwWXPR1oum+Xbt2AvN0K6lQoYKMGTNG8bRvVR7KPPVMur6PypUr65OW97CmOHfunGUZM0lAT4DO2vQ0eE8CJEACJEACJEACUUZg5MiRWmgwrw/9gQce8PoQPTW+bdu2aeej1YFhxzWWBMo2FkFwLAALNXCi17RpU8EuOPLhXC8S8tVXXxm6xTizZMliyGOCBJJCgDviSaHnsWf/+ecf+d///qc49Ni5c6f8+OOPsm/fPmXl+bbbblN+sWElr1KlSj4xET02FQ6HBEiABEiABEjABQH8rY+ER3QXQ7Os4qWz15YD9Fim1fnw8uXLe2yUSR8OlNzFixcnvaEgtXDlyhVBiDS9PPbYY/ok70kgyQSoiCcZYeQbQHiH6dOnKw5azGdZzKMbO3askoWzUDi74rVzUObxMk0CJEACJEACJGBPwGvnv+1H+m8Jv3f4I2QsX7p0qSGjbt26jEFtIBKahDl2OHqJNUuE0JBjq4EQoCIeCC0P1sUv6B49ekigf4inTZsm+AcHJQixQCEBEiABEiABEog+AjD17tu3b9QMvEqVKlEz1kgP9OLFi4ZQdBgPzLcpoSewYsUKQyc333yzFC1a1JDHBAkklQAV8aQSjNDzcN7RqVMnwbmwpEjXrl0FZuxwhJE8OV0GJIUlnyUBEiABEiCBcBNAWCSGRgo39fD0h3B0ZqlataqW9eeff3rS8Z02wCi+WbJkiWH0DRs21L4nI044joNmyJDBUIcJEgiUADWvQIl5oD6U8DZt2iRZCVenMn78eOnfv7+a5JUESIAESIAESIAESCDCBMy7snnz5pV8+fIpo9q7d68SwmzEiBERHmXsdf/HH3/Ihg0bDBOrWbOmloYlKWLQX7p0ScvjDQkkhgAV8cRQi/Az2L2eMGGC5SiKFy8uWLVDrEV4nnQr/fr1E/Pqn9tnWY8ESIAESIAESIAESCC4BMzhs3A+HILQWHXq1FG8qcMBLyW4BKzOh6tHKvD9e/jw4cp37dSpUwe3Y7YWdwSoiEfZKz948KB06NDBMGqcWxk9erQcP35cfvjhB5k9e7YS8gHpkydPKrEZUcefdOvWTWBuQyEBEiABEiABEiABEogsAbNCCG/pZ8+elUaNGsnu3buV73f0Qh/8d7Rnzx5Do/nz55ds2bIp8dxbt26thFODMk4hgaQSoCKeVIJhfv7NN9809Ajv57/99pu0a9fOcgc8a9as8tRTTwl+qTRu3NjwrDmxa9cu5ZeMOZ9pEiABEiABEiABEiCByBIYN26clC5dWnHghpB1+H5HCT4BnP/Wy7Fjx6Rly5ZSv359wcbW3LlzJX369PoqvCeBRBFIdiNBEvUkHwo7gaNHj0quXLm0ftu3b6+Yx6RIkULL83fTuXNnGTZsmG01KPafffaZbTkLSIAESIAESIAESIAEQk/giSeekAULFvh01KRJEyXyTSDf/3waYYYtgc2bN0upUqUsy7/77jspW7asZRkzSSBQAtwRD5RYBOtjJVQV/IKAQh3oL+G3337bcudcbRe/8BGXnEICJEACJEACJEACJBA5Aq1atfLpfPDgwTJ9+vSAv//5NMQMWwIlSpRQzM/1FfC9G9alVML1VHifVALcEU8qwTA+nydPHjl8+LDS444dOySx54KgbGOV1U5+//13ue222+yKmU8CJEACJEACJEACJBAGAt9++61gFxYe0ytUqKB46w5Dt3HfBTynz5o1S/7++28pU6aMlCxZUlKmZNTnuP9gBBkAFfEgAw1Vc7/88ovcf//9SvOvvPKKfPTRR0nqCjFHt2/fbtlGUpR8ywaZSQIkQAIkQAIkQAIkQAIkQAIkoBGgabqGwts3+hAWcNCRVClWrJhtE+fPn7ctYwEJkAAJkAAJkAAJkAAJkAAJkEDSCFARTxq/sD29evVqpS846LjrrruS3K+6u27VUMaMGa2ymUcCJEACJEACJBDHBC5fvizXr1+PYwKcOgmQAAkEjwAV8eCxDGlL77zzjuIhE9dgCGIi2gliJVJIgARIgARIgARIAAQuXLgg3bp1k9SpU0uBAgXk888/JxgSIAESIIEkEuAZ8SQCjNbH16xZIxUrVrQc/pUrV+iQwpIMM0mABEiABEgg/ghMmjRJzB68z5w5I1myZIk/GJwxCZAACQSJAHfEgwQy2prBH1ArqVOnDpVwKzDMIwESIAESIIE4JTB79myfmS9dutQnjxkkQAIkQALuCVARd88qpmoeO3bMcj41atSwzGcmCZAACZAACZBAfBJA+FSz5MqVy5zFNAmQAAmQQAAEqIgHACuWqsI03Urq169vlc08EiABEiABEiCBOCXwzDPPGGaOmNYPPfSQIY8JEiABEiCBwAjwjHhgvGKi9tWrV+WWW24Rc5iyli1byqeffhoTc+QkSIAESIAESIAEgkdgz5498uWXX8rNN98sTz31lGTIkCF4jbMlEiABEohDAlTE4/Clr127Vh5++GGfmW/btk2KFCnik88MEiABEiABEiABEiABEiABEiCB4BGgaXrwWEZNS0OGDPEZa5cuXaiE+1BhBgmQAAmQAAmQAAmQAAmQAAkEnwB3xIPP1NMt/vzzz0oMUP0gc+fOLT/99BPNzPRQeE8CJEACJEACJEACJEACJEACISLAHfEQgfVqs++++67P0D7//HMq4T5UmEECJEACJEACJEACJEACJEACoSGQMjTNslUvEli2bJlMmTLFMLTRo0dL+fLlDXlMkAAJkAAJkAAJkMDly5dl//79smPHDtm6davy7+6775YRI0YQDgmQAAmQQBIJUBFPIsBoefyvv/6S1q1bG4bbtm1badeunSGPCRIgARIgARIggfgl8Mknn8i8efPkl19+UZRwM4kXX3zRnMU0CZAACZBAIgjQND0R0KLxkVdffVUOHz6sDb1KlSoydOhQLc0bEiABEiABEiABEjhz5oz8/fffggV8K6lRo4ZVNvNIgARIgAQCJEBnbQECi8bqkyZNklatWmlDL1iwoKxbt04yZ86s5fGGBEiABEiABEiABFQCly5dknz58hkW8VF29uxZyZgxo1qNVxIgARIggUQS4I54IsFFy2M//PCDQQnPnj27fPXVV3GnhH/zzTeycePGaHltHGeYCXzxxReyffv2MPfK7kjAmsCNGzesC5hLAmEkkDp1asmRI4ehR1jTUQk3IGGCBEiABBJNgIp4otF5/8GTJ09KvXr1DANdvny5IFxZvAjM67p27SqVKlWShg0byj///BMvU+c8XRJYtGiRNGjQQB588EHp3bu3YpLp8lFWI4GgEbh+/bpgQahQoUKSPHlyOXDgQNDaZkMkkBgCMFHftGmT4dE6deoY0kyQAAmQAAkknkBcOGs7fvy4j2lV4pFZP5khQwbJlCmTstOcJk0a60phzIUCWr9+fcO8V69eLUWKFAnjKCLb1bZt26R58+aya9cuZSA4I79nzx4pXLhwZAfG3j1FYPLkydp43nrrLfnss88ExzkefvhhLZ83JBAqAtj9xmLQG2+8YbDKuHjxYqi6ZLsk4IoALMnMUq1aNXMW0yRAAiRAAokkEBeKOL7gjB8/PpGIEvcYTMBvv/12eeCBB5Td2AoVKkiBAgUkWbJkiWswgKews/Lss88q58DVx+bPny+PPPKImozp67Vr12Tw4MECB3V6Wbx4MZVwPRDeKwQmTJgg+JmZM2eOkkaonooVK8qHH34or7zySlh+Zvkq4pPA0qVLFSsM865jfNLgrL1GABZ0esH3Gi5k64nwngRIgASSRiAuTNNxzinccuLECWV3Y9q0aYIwYTA3xI75k08+KQsWLJBQngHEwsPMmTO1KSN2+OOPP66lY/nm4MGDghV7vRKOLw/YHa9Vq1YsT51zSyQBWLPg56Vv376GFvAZevrpp4U7kwYsTASBwMqVK6VcuXLK7yQq4UEAyiZCQgDfVfSCo27h2EzQ98l7EiABEohlAnHjNf3ChQty7Ngx2bt3r2Bn9PPPPxcoy5GSUqVKybvvvqsojcEcw9ixYxXFX20TIco6deqkJmP6CpPiDh06yPnz57V5Fi9eXBYuXOjjcEarwBsS0BGYPXu2NG7cWJcjgs8QvpDmzJnTkM8ECQRK4Ntvv5U333xT1qxZ4/fRHTt2KAu4fiuyAgmEgACOceXPn9/QMqyG4E+DQgIkQAIkEBwCcaOIm3HBCUn16tVly5Yt5iLHNEzMsbucK1cuuXr1qhw5ckQ5h33o0CHl/PHu3bsdnzcXwokYds3NnknN9dykoSw88cQTWlXs8PXp00dLx/LNkCFDpEuXLoYpYrEDHuKzZMliyGeCBJwIbN26VTnGoV/QyZs3r0CJws89hQQCJbB+/XrF4sJs6uvUDhVxJzosCzWBTz75RNq3b2/oBt+b+PfUgIQJEiABEkgSgbhVxEEN5spFixZ1DRCK3sCBAx1Ns9DmmDFjZOTIka7bxarz119/naQdt7Vr1xqcS2GsgwYNcj0Gq4pHjx5N0pis2gxFHni3a9fO0DSVcAMOJgIkgJ9HhOnRC5VxPQ3euyEAs3Mshi5ZssRNdUMdKuIGHEyEmQB2vuHFXxVsQuB7BoUESIAESCB4BOLijLgdLpzbdis333yz8oXK3/kohEAaMWKE/Pnnn/LRRx+5ah676PDQDK/eiRHEP65du7b2KFaxsWCQFMGuIHb/EPrLyzJ16lQfJRymxMuWLePKvZdfnMfHVrlyZfn0008No1SduMEKhkICTgTw+xPWSaVLl06UEu7UNstIINQErly5YlDC0d9jjz0W6m7ZPgmQAAnEHYG4VsThXdutYHUYztbcCurC4zJMo90IvuQ3bdrUTVVDHTwHE3vVjPaZZ56R4cOHO+7aGxqwSMDk/vnnn1dKihUrZlHDG1k4z9uyZUvDYOCYDSb6mTNnNuQzQQKBEsBny+zADT9v2Ck/e/ZsoM2xfhwQ+PXXX6VRo0aaXwF1yrB6QihFHEWikIDXCVg5EHz00Ue9PmyOjwRIgASijkBcK+IwvXYrNWvWdFvVUA9/vAYMGGDIs0usW7dOrOJ22tVHfHQo4arTuSZNmsi4ceMkRYoUdo/4zUcYJywg4Ow8rAC86pgFDtjMTrUwOYQDolMtv6+ZFVwS6N27t89iDyxYmjVrpviIcNkMq8UJgdWrV2th8LBgM2PGDDl58qT88ssvSnx6HHkYPXp0nNDgNKOVwIoVKwxDx3eBQI7xGR5mggRIgARIwJZAXCvi+/btswVjLjCfFzWXO6VfeuklyZ07t1MVrax///7avdPNH3/8IVDysUMHgQM5hClLmTKl02OOZTjfjvjj8LQOadWqlaRPn97xmUgU4kuCVTg2fOn18g5+JFixz6QRwFEUWJjA0kIvOPPbo0cPfRbvSUBKliwp/fr1Uxx3IkQZwlVmzZrVQKZ169bKIqchkwkS8BABs0+Dhg0bSvLk/35dhMXcX3/95aHRcigkQAIkEL0EEq+1Re+ctZHDk60bgeMv8xdxN8+pddKkSaPs3g4ePFjNsr2uWrVKdu3aJQULFrStAzN0nAnH2XBV/vnnH8GOeKCCtk6dOiUHDhzQzNvVNvCF0WuCdwYrALNg7vjSSyGBYBPImDGjsjhlPjoCZ4jwM/Hcc88Fu0u2F6UEHnjgAcE/J8FiacWKFWXRokVO1VhGAhEhgEX+DRs2GPrWWwTCEezkyZMVS4/UqVMb6jFBAiRAAiQQGIG4VsRhJuhGguGkBMqjG0Uc44Hpq50ifvHiRcUJkPkPZSBhcdzMGYsPRYoUcVM1bHWwaGClbMNsbtiwYWEbBzuKPwJY6IF3fiyU6QWLVeXKlZMCBQros3lPAo4EsmXL5ljOQhKIFAGr8+GqReCECRMUCyFYzlEJj9QbYr8kQAKxRCBuTdMvXLggOM/nRoLhpATOetwKdqet5PLly8qut9txW7XhNq9jx45uq4at3uuvv27pWR6m9EmxWAjbBNhR1BJQTdStJtCmTRsJxPGjVRvMiy8CGTJkiK8Jc7ZRQ2DPnj2GseK7CxaOvvzyS8HCIzYJcFyHQgIkQAIkkHQCcauIwzGaG8FuK879JVVuueUW102o5771D+BcFrw4h8ucEZ5/vSSwXrD64w8FHN6IKSQQagLY9e7Zs6dPN/hdQgdcPliYQQIkEIUEcMxNL8eOHVO+e9SvX1/xbTB37lxP+o7Rj5n3JEACJBAtBOJWEUecaTcCp2BJcYCm9pE2bVr11u/14MGDPnVeffVVmTlzpk9+KDJefPFF8dKODRzDPP3005ZTfe211yRVqlSWZcwkgWATwPlIK8HPDEJXUUiABEggmgk88sgjhuHjSNjUqVOVPHxvuu+++wzlTJAACZAACSSeQNwq4og17UZq1arlpprfOn/++affOmoF7MKb5aeffjJnhSztNedTULYPHz7sM19w8tpYfQbJjJgi4GSBgeMcN27ciKn5cjIkQALxRaBEiRI+PmrgMwYm62XLlo0vGJwtCZAACYSYQFw6a8POFRyiuZGqVau6qea3DjyTu5U777zTpyriY8ej4Dy8lUk6WGB3Eh6tKSQQTgI4Ez5t2jSfLhHyBztHOEJCIQESIIFoJAB/GGvXrpVZs2bJ33//LWXKlFGO5wXDMjAaeXDMJEACJBBKAnGpiJs9H9sBLl68uOTIkcOuOKD8kydPuq5/xx13uK4byxWxu/jCCy/YTrFDhw62ZSwggVARQOipvHnzipUvB3xeYUVjjh0dqrGwXRIgARIINoEsWbJI27Ztg90s2yMBEiABEjARiEvTdLe7y8EIW6byduscDvXz5MmjPhbXVzhoQ0x1K0E4uNtvv92qiHkkEFICyZMnF5wJtxKcpxw3bpxVEfNIgARIgARIgARIgARIQCMQd4r4lStXxK0iHoywZSrpL774Qr31ey1fvrzfOvFQYciQIbbTrF27tm0ZC0gg1ARatGhh28XgwYMFoQYpJEACJEACJEACJEACJGBHIO4U8U2bNgl2rfwJHIGVLl3aXzVX5XA0tmXLFld1EacTZmHxLr/88os4OdQL5iJJYlhfv35dcSC3YcMGwVgRXi4Y8scffwjiyAervWCMKVRtXLhwQQI5suFvHGCGiAO///67v6pJLofTNjvHRSdOnBCE+KGQAAmQAAmQAAmQAAmQgB2BuFPEV6xYYcfCkI9znjfddJMhL7GJ9957z/WjPJf1L6oRI0bYMsudO7ePV1fbykEquHbtmnz//ffSt29fgVfZFClSKEcIypUrJ/fff7/yWZk0aVKieoPyjc/IbbfdJog3j/PH+OxhIWjGjBmJatNLD+Gs/2+//SaLFi2Sd955Rxo0aKCwQ4g8KLSfffZZkoaLiATPP/+8wuyuu+5S/DrAiR9C3h09ejRJbTs9XKNGDdviDz/80LaMBSRAAiRAAiRAAiRAAiQQd87aFi5c6OqtBytsGXZMR44c6arPKlWqBG0X3lWHHq105swZGTZsmO3o6tWrZ1sWzALssK5Zs0bxHgtv2P4sKVq1aqUo04F8drAwBMXUqm1YbzRr1kzgxfbJJ58M5tRC1haYIczN9u3b5X//+5/88MMPgp8Bq/mpg+jatavUr19f0qVLp2YFdO3cubNMmTLF8Az6Qx7+7d27V+655x5DeTAS5ni7+jZhAbN+/XrhMRM9Fd6TAAmQAAmQAAmQAAmoBOJqRxwhxKDcuJFq1aq5qeZY5/Tp0wJTczcSjJ1BN/1EQ50JEyY4DrNmzZqO5UkphMk5FCiERsPuNBZHRo0a5ahI6vvr1q2bPul4j11TOJ1zUlLRwPTp0x3b8ULhxIkTBdYB2MkvWLCgNG3aVAYMGCDLly/3Oz+YcuP5xMjFixd9lHBzO6+88oo5KyhphPVxko8//tipmGUkQAIkQAIkQAIkQAJxTCCuFHF44XYjUCRg/pz/BdF9AABAAElEQVQUwTlf7IbZef02tw1nbvQC/i8V8+6mmVXRokXNWUFLw+N1hQoVBI7i/CnIVp3ifUOR9yfvvvuudO/e3V81pfy7775zVS+SlRAVADvfiRW3ViPm9o8cOWLO8knPmzdPjh075pOf1Azs4OOzYiczZ84UN+Oze575JEACJEACJEACJEACsUsgrhTxr776ytWbrFu3rqt6dpVg/g5HTrt377arYsiH4kkT1n+RwCwdZs1OkjNnTqfiJJWVKlVKeR4LMbBm+PTTT2Xnzp2KU7GNGzc6Kl5qx/Pnz1dvLa+DBg2SN954w7LMKhNnqb0uOI+NHXCY8OPn7JNPPpFnnnnG9YIWFjA2b94c8DSzZcvm6hmcUQ+FFC5c2LHZVatWOZazkARIgARIgARIgARIID4JxM0ZcTiMcvLCrX/9Tk6Y9PXM91DUevToIatXrzYXWaah7GEnvGTJkpbl8Zjpb/e3ePHiypnpULHBbju8bsNxmlmyZs0qS5YskVy5cjnuluOdQim1EuzOBmoq7bTratVHJPIqVqwo+KcXOB7Ez91rr70m77//vr7I8h6LHoH+LGTOnFmKFCnid/EGirg/U3LLQfnJhPWMk+B3QcuWLZ2qhLXsiSeeiOpd+lSpUsnixYsZWSKsnxp2RgIkQAIkQAIkEAoCcaOI79ixQ3AW1Y3YhSWyehZf8OfMmSPwmO1vJ1f/PBx6YSf81ltv1WfH/T2cozlJoUKFnIqTXAbHaFZKuNowwtq9/PLL8tZbb6lZPldYQiAsl3m3FmHOzI7mYJINh2zYDca9Od48Fmvefvttnz6iJQM8sSiRPn166d27t+Ow8TMEa4GUKQP7tTRmzBjbUGJqhwiVFgq57777HJtdtmyZY3m4C7EwkJgjF+Eep1N/eJcM8ehEiGUkQAIkQAIkQALRQCCwb7zRMCObMboNW4bH4cU5R44cAhNoKGVQIhC+6ty5c3L27FllRwneoHEu1q1yrw4rf/78yu4gzN+hpFCMBODcy0kQKizS0qhRI0dFHOPD50PvVA5OxeAdXRUo9DBbVneA4RwQ/xBuC74MENLsjjvukKpVqyqfP/W5aL326tVLibsOpdlOoCCuXbtWKlWqZFfFMh873VgEwyLH/v37LeuEyv+CP0X88OHDSlz4u+++23JczCQBEiCBpBLgd4mkEuTzJEACKgFYMlLCRyBuFHGYFLuVxDqOcmof5u4dOnSQOnXqBLzj59RuLJUhHjTCPjnJvffe61QcljKcC8ZONZQsOzEr4q+++qrBcR/8CKhKuL4NLP60aNFCnxUz93369BEnRRwThUVAoIo4nsM72bZtm3L2fujQocgyCN5XKCRPnjx+m8WCHRVxv5hYgQRIgARIgARIgATiikBcKOIwZfS30xqKtw4T98aNGys7dXnz5g1FFzHVpr/z4Zhsvnz5Ij5n7D5gVxye1e1k69atWhEWgfSLOwjPZj5PrVWO4RssMrz44osyfPhw21nOmDFDMU9PkSKFbR27Aji1Q8iw5MmT+7ybu+66y+6xJOWjL3+LMjAHf+qpp5LUDx8mgWgiAIseWI/FguCoTKgW8mKBD+dAAiRAAiSQeAJxoYj7O3eceHzGJ6FsY+dbdVwVSu/exp5jI+Umxrv53HWkZl65cmUfZU8/lu+//15J4qz4s88+qxVBIWvVqpWWjreb559/3lERx1EPsEtKFIF27doZ3s3DDz8sofQ8j2MsTtYRbqM1xNtngfONXQKw6gnECs3LJPB3fd++fV4eIsdGAiRAAiQQpQTiQhF3uxsOB2rwwAzlSf0HxcDu3Kn5nX/22Wd+nUaZn2H6PwLHjx//L2Fzh/P6XhB/nsyhmGFXqHPnzpofAeyq6HfGvTCPcI/hwQcfFISIc1p0gdl+UhRx82fkscceC+k0/S244bPw119/hXQxIKQTZOMkECAB+FOhkAAJkAAJkAAJOBOIC0UcX+zdSL9+/RQlwVwXMZLh4dyfTJ48mYq4P0gO5Vj88Cdp06b1VyUs5fB2j1BqTmfa4SUcptaqYKEGTtriXRBf3EkRRxSCd999N9GYzDHDq1evnui23Dzo5GVfff7MmTOeUMQR4z6aTYZxZAEWCBQSIAESIAESIAESiHYCMa+IHzhwQBBOyp9AQSpWrJhlNSgObhTx0aNHy8CBAyVdunSW7TDTmYAbRTxNmjTOjYSxFF7OnRRx/VnoLl26xOW5cKvXgYgBOCtuJ/h5Rag3fx7J7Z7/5ptvtCKYlWIXPpTixiP76dOnFS/4oRyHm7YT4wjPTbusQwIkEDkC9HIcOfbsmQRIgASSQiDmFXGEiHIjjz/+uK03c3x59eeQSe0DO05NmzZVk7wGQMBfKDiv7Sb7M09Xp47PTv/+/dVk3F/BA+zgTdxOcL40sYo4dtRVwXlxOFQLpWTOnNlv89gRp5BAvBB44YUXpH79+jEx3UyZMsXEPDgJEiABEiAB7xGIeUXcraMkJ/NVmEO2adNGEH7Jn8AjNhVxf5Ssyw8dOmRd8P+5XjFLVweJ+NVuZNSoUZ4wS3Yz1nDVwZd0J0V8wYIF8vLLLwc8HFjA6K0UwuGtPHXq1H7HSUXcLyJWiCECzZo1i6HZcCokQAIkQAIkEBoCod0qCs2YXbd65coVmTVrlqv6VapUcazXvHlzx3K1EI7hzGdU1TJe7Qlcu3ZNzp8/b18hocTNzqNjA0EuxNng/PnzO7aKz1WonYU5DsCjhYgu4CSwZPH3ebB6fuLEiVo2TOD9OVLTKifhxo0ifurUqST0wEdJgARIgARIgARIgARijUBMK+JODqH0LxLK1B133KHP8rlH/Gq35yvhlIsSGAE3XnZDGYIqsNH+V9vfAk7Lli3/q8w7jUChQoUke/bsWtrqRn/W26rcnPfPP/8YwpbBiiUc4kYRd+P/IBxjZR8kQAIkQAIkQAIkQALeIBDTirjbsGVudyxbt27t6q2NGzdO6DzFFaqAKl29ejWg+uGo7C/MFkKYUXwJJEuWTBo1auRboMtxe6xEfQRnw9VddCyuIRxhOOSmm27y2w3Cl1FIgARIgARIgARIgARIQCUQ04r4okWL1Hk6XuH92o3Uq1fPTTUl7vj69etd1WWlfwm4UbKx4+k1QUxsJ9m8ebNTcVyX+fu5W7x4sWs+169fN4Q8e+ONN0LupE0dnJsdcS95+1fHzSsJkAAJkAAJkAAJkEDkCMSsIg5TULem6Q8//LCrNwDT6Pbt27uqi5jiFPcEsmTJ4reyG2XdbyNBroCdVydv7t9++22Qe4yd5vz93O3fv1+OHDniasJw7rZr1y6lLkzen3zySVfPhasSLWTCRZr9kAAJkAAJkAAJkEB0EIhZRXz16tWu3gDO+AZy9tjtmd+xY8fKhQsXXI2BlUQJHeek0IKRF817ERrLyTz98OHDcvz4cb5iCwJZs2aVIkWKWJT8l7V27dr/EjZ3UHL14eF69uwpbnapbZoLOPvvv//2+4zXHA36HTArkAAJkAAJkAAJkAAJhJRAzCribs+XBnqOtFy5cn49Zatv7IsvvlBveXVBIE+ePI613Cg8jg2EoPD06dPi7xjCxo0bQ9BzbDTp7+fv+++/9ztRmLCrIcuwmOPWl4Pfhl1WcLNA5Mbiw2V3rEYCJEACJEACJEACJBADBGJSEcd5UZiqupGqVau6qabVgZOp559/Xks73ehDKTnVY9m/BHLlyuWIQnXE5VgpzIUdO3bUHITZde1PUbd7Lh7y/UUi+O677xwx4Gf99ddf1+r07t1bMmbMqKXDcUNFPByU2QcJkAAJkAAJkAAJxBaBlLE1nX9ns2PHDjlx4oTfqWH3zJ9prFUjiCnevXt3qyJDHmIhHzhwQO6++25DPhPWBBCX259A6QnkKIG/9pJSPn36dJk5c6bfJtasWeO3TrxWcDLrB5MNGzbIlStXxM4zOfhv375dwYez4VgYCbe4UcS9YpqO0Ip//vlnuBEFrb8UKVLIc889J6lSpQpam2yIBEiABEiABEiABCJBICYV8RUrVrhiCS/o+GIXqGDntk6dOuLGKzu++L755puBdhGX9bNly+Z33ggH5gVF/NChQ9KuXTu/40WFdevWycWLFyVdunSu6sdTJexely1bVlG47eYNp2333XefTzG86L/66qta/nvvvRcRxm58QXhFEe/QoYNfCw4NqEdvEG4yd+7cHh0dh0UCJEACJEACJEAC7gjEpGn60qVLXc3+0UcfdVXPqhJ2ZdzIJ598IjCfpfgngB1Nf3LmzBl/VUJejvf57LPPBqTQbN26NeTjitYOKleu7Dj0n3/+2bJ85MiRAmd4EHivf/rppy3rhTrTzZEJf8cuQj1Gtk8CJEACJEACJEACJOAtAjGniMNMdPny5a4o+1MAnBqpXbu2Y9gq9VkoCm48P6v14/maL18+v9P3giI+bNgwwbEDVXBG2Z8/AH9nndW24vFaoUIFx2mrYcn0lU6dOiV9+/bVsrAbnjJlZAx8/Cni2L11s8ikTYY3JEACJOARAohKsXfvXpkxY4Z07dpV8N3HHEoUaZTDUSY2OLp06SIrV670yAw4DBIgARLwLoHIfHMNIQ+353ELFiwoSdmlSpMmjeK0bfDgwX5ng5jiFStW9Fsv3iv4iysNPpEOBQb/Ay+//LL2quBsrF+/fvLrr79qeVY3iCferVs3q6K4z4NpupOAuVkQrkxVgEuVKiX169c3Vwlb2t+79+eQLmwDZUckQAIk4IfAkSNHlM2Dn376STZv3iz426X+rsWjefPmNSx6wtqradOmsnv3bq1lbIYMGTJE5syZIw0aNNDyeUMCJEACJGAkEHM74m53w3HOMKniNqb4hAkTDH/IktpvrD4PZ23+nOdhZT5SgjPJLVq00LrHLue0adOULyXYzXfa9URcex5R0NAZbm699VbBwpid/O9//zMUQTGHVYIq77//viCaQaTEPD7zOPwtNJjrM00CJEACkSIwb948RbHGAjP84OiVcIypSZMm2tBmzZolxYsXNyjhWmHCzejRo/VJ3pMACZAACZgIxJwijj8ibqR69epuqjnWKVasmF/FUW2AMcVVEs5Xf3GlI6mIIzSW6qEbs/j8888lR44c2oRgsmcn+DJjtbNrVz/e8qtUqWI7ZZimX758WSuHeaQqNWrUkKQcMVHbSewVJvLmL6rmtkqUKGHOYpoESIAEPEmgffv2cvLkSdm0aZOiZJsH+fjjjytZUMJVpRwLqb169fJZjEbUCwoJkAAJkIA9gZgyTYd3ZfxzI/7CJrlpA3Xatm0rL774ot/q48aNi5gzKb+D81AFKGTY4bQTq/PCdnWDmQ9P/B9++KHW5Lvvvitmk+NHHnlEJk2apNUx38BXgL8dfyh2WExCiLy0adOam4jZ9EMPPSTDhw+3nd++ffukQIECChu91cvAgQNtnwlHgZuFIX/vPBzjVPt45plnIn68Qx1LYq6wfMiUKVNiHuUzJEACLggkT55csmbNqvyrW7eubNmyRXsKIV9Lly6tmKurSvjQoUOlU6dOSp1Lly7JBx98oNXnz6qGgjckQAIkYEkgphRxvQMty9n+fyYUqGCFknryySddKeI4u44v7W4ckjmNPdbL/DnusvOgHUouOJeuN0lH6LoePXr4dAll0knw+XSKc616Y4c5ILztb9y40ak5xzI42MFZv19++UXZTX7ggQckT548js9EstCf+Tbe+5133mn4WevZs6cUKlQoksOWPXv2OPaP8+vB+l3j2JHLQr1Jv8tHWI0ESCBOCegtwICgWbNmcuzYMVGP9o0aNUqwg66K2YdLpH8/q+PilQRIgAS8SiCmTNMXL17sinO1atVc1XNTCSvH6sqwv/o4T0xxJpA+fXpxMlOGGTBieIdLrl27JthFPHHihNIlPGDD+R52Dczi75z4smXLDCbW5ufh+E+NTe/PRN/8rD49depUZdcQijc+6zCZv+OOOwQxu7GA8Pfff+ure+IeSrbTGXtYQgwaNEgLV4b38Oabb0Z87P4WhiIVUi3iYDgAEiCBqCZw5coVxdmafhL4e1KvXj3lOA4W9fRKOOqZneXSSa2eHu9JgARIwJeArzbhWycqck6fPi1uz2HDuUgwBTGl3ciIESMEDr8ozgT8xXfH2bVwyTvvvCNfffWV1t3s2bMFzsXsxN85cThtsxKcpVO9qkPJtNpxt3rOnNe9e3eBE0Grc8vIg9lgyZIlxYtxzWHabydz585VziCq5TBjx6JNpAWehZ2kcePGTsUsi1MCXgjDGKfoOW2XBKwssvD3C6bqMFk3H8nDArn5aKDTorrLYbAaCZAACcQ0gZhRxBHD0q3grGkwBY7fnHbz1L6wq/rZZ5+pSV5tCPizMPj+++9tnnSfjZ1unDu2UljVVrCD3adPHzWpeOouU6aMlra68ec4DLvpZsEXGHyxUWXkyJGJMmfGFyT9OXa1PfMVu8tYjDp69Ki5KKJpJ/N0/TlFOAvS84rUoPEZgu8AO8EYEQmAQgJmAmaFxVyOtBctV6zGybzYJKD3xaHOEH+b8F1n7NixapZ2RZgzveA8ORZ9KSRAAiRAAvYEYkYRxx8It5IzZ063VV3VS5kypeK0zU1lOPm6evWqm6pxW+fuu+9WzMHtAJj/4NvVs8rHYgi8buMzAFNymGtjFxuO1PQCk+NGjRppWVgceOGFF7S03Y2/M+44nrB+/XrtcVhy4LydavqOflSvtFollzeI2xqImHc0Ank2FHURhcCNfPzxx26qhbwOFgecFnJwpIFCAlYEdu7caZVtyHPjCNDwABMkEEQCCxYssGwNi8nZsmXzKfv6668NeTVr1jTEGzcUMkECJEACJKAQiAlFHDuXgXjTPnv2bNBfv96Zl1Pj2AnRexV1qhvPZaqZthUDmHEn1rQTyjXOYquKL9pfsmSJPPzww/LEE08IQrLACRjMpFUlK2/evDJmzBhXsarvuecegWm5k8B0HGfBly5dKkWLFtVCouE5OGlLrARqKYCjHOqZ9MT2GcznChcu7Le59957T7BQ4wXB+7MT7AYl5Zy/XbvMj34Cv/32m/a7xWk2/o49OD3LMhJICgE4XdNbIaltde7cWaBgW4lZcUdoSQoJkAAJkIAfAgnelaNaEhTbGwlfem8kTNP1vy+//DIkc07YDXU9hoTV45CMIZYaTTDtteU5fvz4gKeaoHzbtuf0+dm2bVtAfSV8WUlUPwln3wPqx1zZaQ52ZQm74uZmIppOMHu0ZZc/f/4bCT4WIjo+fecJ5v22Y+3SpYu+Ku9JQCOQYPFi+7nR/5wmxGa+8ddff2nP8YYEwkVg+vTpPp9RfM9K2MSwHMLu3bt96icc/bKsy0wSIAESIIH/CET1jjhM92DWq+5cJnyJcSXYkbRa7XX1sEOl1q1bO5Qai7D7CnN6mqkbuehT2Jm2E6d43XbPJMZR3sqVK/3G/jb3l5id0ClTpiT5PF1inBDu2LHDPPyIpkuUKGHb/4QJEyR16tS25eEswPl6p98hThYd4Rwn+/IOgYsXL0r//v3FvHNoN0JYeSFcFLxXU0ggnAT0DkrVfvH3GEe5rMR8XAxWZPhHIQESIAEScCYQVXHE4dQqYXdSiY2M80iJNauF4o4v/HAOVb9+feUPBs4MJ+y4CcKRJVYaNGggzz33nKvHMQacOYYpMsaAeJtQpGDaTPmXAN4PTMbNIVFQijyYeCIsl1vJkiWL26pKvZkzZzqGUrNrDA7b4NBGb/5uVxf58Kb/1FNPOVVxVQZeTsqhVSM//PCDVXbE8u677z7lqIB5AK+88or4O39vfiaUaRyHsZNevXopPgjsypkf2wSgOOPoDP4dPHhQiTUPHxQ4AhPoojGUdhxZad68ucBR5L333qukEbkBvkkoJBBsAtevX/cJW4ajNh07drTtatWqVYYyNc64IZMJEiABEiABXwL/bY57/y4hTJiP+VPCjIKW9/bbbycZQlLGCFNsipFAwsq87ftN8BBurOwilaDY27an/ywlOKRx0Zp9lYSY1676SViIsW8kwJLDhw8HfEwD5oaXL18OsKfQVcc71b8H3CfsrNy4cOFC6DpNRMsJVg8+48RYwfOPP/5IRIt8JFYIJJyNtfxsmD/XwUgnLEjGCjbOwyMEEhZzfT6/CZYctqNLiB7h83cnYQHJtj4LSIAESIAE/iMQVabpGTJkSPjuEjoJRlxitzHFrWYRjP6t2o3mPISGw664lUycONEq2zEPccGxuu8kCxculKefftqpit8yOLXBEQg7wS4XnM61bdvWrkrA+bly5VLCacGyw61ghw5huLwiVma4CPmXLl06rwxRicGO3U0rQVSEzJkzWxUxL04IhPOzetNNN8UJVU4zXASswpY5HbvD8SazpYf+b/axY8fCNXT2QwIkQAJRRyAZdPKoGzUHHFcEDhw4YHveDKbYbsNeqdC2b98uH330kcAsW/W2X6RIESWM2csvvxy02M84/w8P+QnOASXBEZuyAIAjETi+8OSTT0qqVKnUIQX1in7hER3zg5d+KIZQ/GGaj7PoGIsqWJQ4d+6cmoz4Fcc7MHZVevToIQMGDFCTnrgiQgLC0JkFjOG3wivn2M3jY5oESIAE/BGoWLGi4ThYpUqVxByaTN8GjlbpQ2FCCVfPjK9bt04eeughwaJ5UjYp9P3xngRIgARiiQAV8Vh6mzE8l6lTp1ruMCPm9vz58xM9cyitKVKkcBWaLNGdJDyIfrxwpnP06NHSoUMHbSqlSpWSjRs3aulI3uA87V133aUNAYsjCMmWJk0aLS/SN1C0cU7XSubNm6eEwLMqYx4JkAAJeJ0AQruaLXrgx8bJcqtevXqC332qwCrotddek4SjUoovHvhKQSi++++/X63CKwmQAAmQwP8TiCrTdL61+CUAZ2ZNmjTxAQBnRk6r9T4PmDKgHCdLlsyUG/ykF5RwzCohzIxhcnXq1DGkI5mAlYJeYJLuJSUcYxs4cKB+iNp9QrgyKuEaDd6QAAlEI4FvvvnGZ9j+HK+ZHbWVK1dOTp48KVWrVlUcls6aNYtKuA9VZpAACZDAvwS4I85PQtQQgBfiAgUK+Hgjx84pTNSxs02xJ5DglE3xyo+dClWwG45d8UgLdr7h9V2V4cOHK1EF1LQXruCWJ08en6Fg3PgCG6qjBj4dMoMESIAEQkCgU6dOgt+9qvizmIJPD/PvvSpVqijHn3BuvE+fPtK3b1+1OV5JgARIgARMBLgjbgLCpHcJ3HLLLZZnc3HmG7unFGcCCMemV8Jx9s8LSjjiu+ud4yEOu1OoHOdZhq5Ufw5S7QVn7GfMmOHzZVQt55UESIAEooUA/JnopXHjxvqkz72VpRd2yKGEw0qISrgPMmaQAAmQgIEAFXEDDia8TgDmbogpbZZXX31VEkJcmbOZ/n8C2Ll46623DDz69etnSEcqAYdsqsk84q9PmjQpLMcFApkvFnr05yDVZ6dPny533nmnmuSVBEiABKKSAM6H6xdqMQl/R5dwrMvKozqcWSaE8IxKDhw0CZAACYSTAE3Tw0mbfQWFAHZQq1WrJvDIqheswPOPv57If/dw0AZHbapgd3fYsGFqMmJXKLg4/68KvO3qQ9+o+ZG8Hjp0SAoVKuQTogcOieCYiEICJEAC8UoA4S+/++475e9xwYIFFS/piNBBIQESIAES8E+Airh/RqzhQQKnT5+W8uXLazup6hAnTJggrVq1UpO8JhAYPHiwdO3aVWOBL0sIYRbOeMda57obHCl48MEHtZz3339funfvrqW9cAMTS4TfwVj1glA8Y8eO9YQnfP24eE8CJEACJEACJEACJBAdBKiIR8d74igtCPz6669SpkwZH+dtcJyFWKgUEZhON2/eXEORP39+xct8zpw5tbxI3Bw5ckSKFy+uvbu6devK3LlzJXly75yWQcg5xDWHZ369wJrg448/9tRY9ePjPQmQAAmQAAmQAAmQgPcJUBH3/jviCB0IbN26VVHo9FXgQAte1PPly6fPjqt7nPd7+eWXlfPW6sShhK9evVpy5MihZkXk+ueff0qFChVk165dSv/YoYdpY8aMGSMyHqtOb9y4IZ07dzZ4EEY97NgPGDDAc2fYrebAPBIgARIgARIggegncPz4cWWzAt+b8L334MGDgu90sCp84IEHlM2neP7OG81vmIp4NL89jl0hsGHDBnn00UcNZ3jxCwr58XhWDeesW7RoYXC8A2UX3mxvu+22iH5q4FAPcWmxIADBogn+qNxzzz1K2gv/4cwjdr31Z+oxLji36927txeGyDGQAAmQAAmQAAnEOAEcjxsyZIir7x443odjiFbRDGIcU1RPj4p4VL8+Dl4lgB1whOPCLy1VYPqMcCxWsZ/VOrF23bdvn48lQP369eWTTz6RbNmyBX26MNuGUn306FGBsl+uXDmBZ3t40zULdsKhhOud7HnNORvM0du0aWOwJMA8Bg4caDhnb54b0yRAAiRAAiRAAiQQLALYpKhZs6Z2hM9NuwhJ+8UXX0iuXLncVGcdDxCgIu6Bl8AhBIfAzp07pUqVKoZfWthxXbx4seJwKzi9eLuV69evS4ECBRQndrlz51Z2df2FoEnsjF566SUZOnSoz+M1atSQ8ePHG/4Q7N27Vxo2bGhwerZkyRLlj4xPAxHK+Ouvv5R45vgjppeJEycKnLNRSIAESIAESIAESCDUBH7++WcpXbq0YXPJbZ+1atWSRYsWWW6IuG2D9cJHgIp4+FizpzAQ+O2336RRo0aKV3B9dyNHjhSE8IoHgYK7ceNG6datm6RPnz4kU4YFQokSJWzbxgIImGN1Fgsheq/teAjKbr169WyfD3fBgQMHlPHovaPnzZtXZs+eLcWKFQv3cNgfCZAACZAACZBAHBKAZR7CuOJ4pSpwulu2bFkllCqO+G3btk0JQXvixAm1iuHKDQQDDk8nqIh7+vVwcIkhgDjjUPxGjRpleLx169aK8600adIY8pkInMCIESOUc9SBP/mvJ/emTZsm5tGQPAPzeJjM6481wIs7/pDFo4+BkEBmoyRAAiRAAiRAAn4J6KPdZM+eXXHSBge3ZsFxPziQRShVs2Az5NSpU5IqVSpzEdMeI+CdWEEeA8PhRC8BKNrYjcUvM/wSUwXm0tj5pCSdQOrUqRPVCEKUeUkJxyTgCEVVwvHHa8yYMcqOPZXwRL1iPkQCJEACJEACJJBIAoMHD1aehN8dWOlZKeGokDlzZuX7SsuWLX16wnea3bt3++Qzw3sEqIh7751wREEiAIVvz5490rNnT6XFd955Rzk/HaTm47qZQB2/4bw6TKngOM5r8tprrylDgsUEnN3BWZuVszmvjZvjIQESIAESIAESiB0CP/74o3a0curUqa4i3Xz00UdKBBozhR07dpizmPYgASriHnwpHFLwCCA29XvvvSd//PGHppAHr/X4bQkrtNg9diPVq1dXQpQVKVLETfWw18E59jNnzsi4ceNC4lk+7BNihyRAAiRAAiRAAlFHYOXKlcqY27dv79o/DSw/EXLVLHBgTPE+ASri3n9HHGEQCMCEJ3lyftyDgFJpImvWrLJw4ULH5hDLHeHjvvrqK0F9LwvN0L38djg2EiABEiABEoh9AitWrFAm2alTp4Ami2g5ZqFln5mIN9MpvTksjooESMDrBCpWrCi///674DzT2rVrlWMAd955p+LZEzvmCFeWMiV/xXj9PXJ8JEACJEACJEACkSeAo3ItWrQQnA8PRO655x6f6oG24dMAM8JCgF7Tw4KZnZAACZAACZAACZAACZAACZBAcAnApL1atWqGRuGXx6tHAg0DjfMEbXXj/APA6ZMACZAACZAACZAACZAACUQnATh5M8u9995rzmLagwSoiHvwpXBIJEACJEACJEACJEACJEACJOCPwJYtWwxVmjdvLmnTpjXkMeFNAjRN9+Z74ahIgARIgARIgARIgARIgARIwJEAzojv379fq4NQrHnz5tXSvPEuAXpS8u674chIgARIgARIgARIgARIgARsCITaO/iNGzdsevZG9rx58wxKeNeuXamEe+PVuBoFd8RdYWIlEiABEiABEiABEiABEiABLxGIZ0X88uXLgtBl6m74zTffLAcOHJBbb73VS6+IY3EgwB1xBzgsIgESIAESIAESIIFoJLB69WoZMmSI54eeOXNmmTRpkufHyQGSgNcIjB07VlPCMbYvv/ySSrjXXpKf8XBH3A8gFpMACZAACZAACZBAtBFo27at4It6NMj169cl1Dub0cCBYwycQKg/N141TT9z5ozcddddcv78eQUaFt1eeumlwAHyiYgSoNf0iOJn5yRAAiRAAiRAAiQQfAKPPfZY8BsNUYtnz54NUctslgRijwAWrp577jlNCX/xxRephEfpa+aOeJS+OA6bBEiABEiABEiABJwIdOnSxa95Os6Vvv76607NJLoMCsOvv/4qiHO8YcMG23b27t0r8PxMIYFACcTjjvjbb78tvXr1UlDVrVtXZs+eLSlT8rRxoJ8dL9SnIu6Ft8AxkAAJkAAJkAAJkECQCfzzzz9SoUIFMccZNnezbds2KVKkiDk7qGmY+H722WfSsWNHbSdP7WDjxo1SqlQpNckrCbgmEG+K+Pz58wXKN6Rs2bKycuVKSZcunWterOgtAjRN99b74GhIgARIgARIgARIICgE0qRJIzNmzPDbVuPGjeWvv/7yWy8pFaAwPfXUU4Ld7+rVqxuaOnXqlCHtxQR29ykkoBKIxOdh8+bNmhJesGBBWbRoEZVw9YVE6ZWKeJS+OA6bBEiABEiABEiABPwRuPfee2XatGmO1Xbv3h22M6bZs2eXyZMnC0ziVTl9+rR667nruXPnpHXr1gKOsDCgkMDChQslRYoUMnHixLDBOHjwoNSpU0fpL3fu3LJ8+XK55ZZbwtY/OwoNASrioeHKVkmABEiABEiABEjAEwSaNWumKJNOg5kwYYKr3XOnNtyW5ciRQwYOHKhV9+qO+Pr166VQoUICNojVvG/fPm3MvIlfAvg8QOAw7cknn5Q///wzpDCwUPXoo4/KiRMnBAtZCE2YM2fOkPbJxsNDgIp4eDizFxIgARIgARIgARKIGIGPP/5Y8ufP79g/FHaYjodDoMRAqYCcPHkyHF267uPy5cvSu3dv5Xz94cOHlefgEAtKOYUEYNFRv359BcTMmTOlcOHCgkWbUMiFCxcEERBgtQIrEpwJd+vYED9Xy5YtE6+GYAsFr2hrk4p4tL0xjpcESIAESIAESIAEAiSQPn16xbuyv8eaN28uly5d8lctyeUw7a1SpYrSjpd2xLEQUa5cOXnrrbe0Oa5atUoaNmyopXkT3wSgEGNhpk+fPgoILNbAKeIHH3wQVDBXrlxRdtwRcQB9Yif8gQcecN0HwprVqFFDrl275voZVgwvASri4eXN3kiABEiABEiABEggIgSwczdmzBjHvjdt2qSFRnKsGITChx56SGnl+PHjQWgt6U3A9FzvZR7Kzw8//CCVK1dOeuNsISQEsNsbyn92g06ePLn07dtXxo8fr1Xp0aOH4ciFVpCIGziDg28COGSDYGe7ePHirlsaN26cYLe+Q4cODG3mmlr4KzLoXPiZs0cSIAESIAESIAESiAiBNm3ayIoVK5Qv6XYD+PDDDxXls1atWnZVgpJfvnx5xTy9RIkSQWkvKY0cOnRIKlWqpJzDRTtwiIWdcDhpo5CAHQEcscBnB0o5pFu3bnLbbbcpEQKUjET8h4WFl156SaZMmaI8jZ321KlTy9atWx1bg2NBnCNfsGCB9iyUeYp3CTCOuHffDUdGAiRAAiRAAiRAAkEnAOdS2B1Xzz9bdYDd4J9//jkunEIdO3ZMsDsPh2yqYCc8kB1I9Tle448AFOdnnnlGU35BYPHixZLYhayePXvK+++/n2SQ+Pzic0zxLgGapnv33XBkJEACJEACJEACJBB0ApkzZ5a5c+c6tnv+/Hlp2bJlzJ8vhUOratWqGZTwESNGUAl3/HSwUE8gWbJkMnbsWMNnpnbt2oKz3YHKO++8ExQlHP3CLJ3ibQJUxL39fjg6EiABEiABEiABEgg6gVKlSsmgQYMc24VpdrAdUDl2GObCv//+W2rWrCm7du3Sem7cuLF07NhRS/OGBNwQgOn4qFGjDFURcuyXX34x5Dklhg8fLm+++aZTlYDK8FmmeJsAFXFvvx+OjgRIgARIgARIgARCQgDnUOvUqePY9uuvvx6y0EyOHYehsH///rJlyxatJ5wL9+fMTqvMGxIwEShdurS0b99ey1WtSq5evarlOd18+umnTsUBlbVt21YyZcoU0DOsHH4CPCMefubskQRIgARIgARIgAQ8QQChwxAfG06e7AQK6vbt2yVLlix2VaIu//vvv5eyZcsaxj116lRp0aKFIY8JEgiEwOnTp+Xuu+8WKOGqwPKkS5cuapJXEtAIcEdcQ8EbEiABEiABEiABEogvAlmzZpVZ/9fenQBJUd59HH8QMIrrLXhQMSWBVdSi8EA2IGh2w30EV0IIFQnLEi4hRowIxBtjEBMUDQoRkWgEI2CiBpYIEpAFVAQKj1VkAyGJiRAVhSy3EH+tPdU93TPTu9uzzEx/nypf5nn66eP59Oat+vdzzZuXtNFa1E2rredK0pD0gQMHuprTpEkT069fP1cZGQSqK3D66aebm266yXXamDFjjLbGIyEQL0AgHi9CHgEEEEAAAQQQiJBAx44djYZpJ0sLFiww06dPT1Yla45NnDjRvP/++67nve2220zDhg1dZWQQqImAVlCPTxoqrtXVSQg4BRia7tTgNwIIIIAAAgggEEEBzWPt0qWLtXd2suZv3LjRtGrVKlmVjD72wQcfWHuExz+khhLn5eXFF5NHoEYCPXv2NAsXLnSdO3fuXNO/f39XGZloC9AjHu33T+sRQAABBBBAAAHToEEDax9k7R+eLGkl5qqqqmRVMvrYjBkzPM+nNhGEe1goqIXAsGHDPGfff//9njIKoi1Aj3i03z+tRwABBBBAAAEEYgKLFy823bp1i+X9fmi+eDauLr5nzx5z1llnuRbSUvueeOIJM2jQIL+m1qhs586d5p133jHbt2+3RhlUJ8jX/HVtG3fw4EHTsmVLc/7559foGaJ4kkZ1aC52ZWWlady4sdEq5tVJ2mpMq+g3bdrU2hO8Ou8t/j56j40aNYovNitXrjRXXnmlp5yCaAoQiEfzvdNqBBBAAAEEEEDAV2DcuHHmvvvu8z1mFz7zzDPm+9//vp3Nin8fe+wxo7m68UmL0Sn4qknSuW+99ZbRkH0FcWvWrDEqs5MCfAX6QdIf//hHU1xc7Kp63XXXmVmzZlkjFlwHIp5RoPvuu+9aq/lv2LDBrFu3zqxatcqlonUAWrRo4Srzy3z++efmqquucp2vxfu0iKHWT6hp0j7iS5YscZ2u0RfPPvusq4xMdAUIxKP77mk5AggggAACCCDgEThw4IAVmLz66queY84C9T42a9bMWZSxv7VQ1gUXXOBZpE3z3RVEVycp8L7llltMeXm5p3fd7zpBndRTGh9M6noafZBLq9b7GQUtu+OOO8z8+fNNRUVFylNKS0vNzJkzU9ZbunSp6dSpk6eetu1TMH/88cd7jgUp0FD0sWPHeqpu2bLF2uLMc4CCyAkwRzxyr5wGI4AAAggggAACiQWOPfZYM2fOHJNqvrgWnlLQng1Jw47jV0rXc7dr167aj68e77KyskBBuC6u/cmDJL8gXOc9//zzQU6PRJ333nvPCsJT/W0K4/HHHze7du1K6aK/Db9kj3bwOxakrG3btr7Vnn76ad9yCqMnQCAevXdOixFAAAEEEEAAgaQC5513Xsoh1WvXrjW333570utkykH1XvulmszBLioqMp999pm1HZXmcmtIerIe62nTphkNf06V/La90jmbN29OdWpkjiuIlbkCbM3Bf+6555J+MNLxVEm7BSRK27ZtS3QoZXl+fr5vnZdfftm3nMLoCRCIR++d02IEEEAAAQQQQCClwLXXXmtGjRqVtJ7mkr/00ktJ62TCwRUrVvg+RpA5xPEnasTASSedZBVrtflLLrnEaDV2v2HIqrRjxw7z2muvxV/Gkx85cqSnTAVaZI70pYC89Z+S5nFfc801Rh+E9NsvaWRHqtS8eXOjudt+af/+/X7Fgcq0MKBfz/3y5ct5p4EEc78SgXjuv2NaiAACCCCAAAII1Ehg8uTJKfcN79u3r/nPf/5To+vXxUmaH57oY4GCsDBSvXr1zKRJk0ybNm18LxekZ1arfL/55pvWit3Oi3zjG99wZvkdJ6BRDbNnz44r/TKrxdI++ugj32POQgXsEydOdBZZv88++2xPWXUKWrdu7VtdHw9ICLBYG38DCCCAAAIIIIAAAgkFNC9XW2klS1rZu6SkJFmVo3ZMQ7sTDRNWj6d6uMNKmjvevXt3z+XUY6uPFccck7oPTD3gGv5uL5Y3ePBga76z56IhFshIK49nStIq9h06dKjW41x22WXWNIH4k6qzPV38yvVBF9qLv6edHzhwoHnqqafsbOxfBf233nprLM+PaAp8ObYjmm2n1QgggAACCCCAAAIpBLTa+JNPPmkUVPgl9QIPGDDA71BGlCVajEvDhsMMwtVYrb6t1badW5ipXMPTNZf88ssvVzZp0v7TGiptB+KFhYVJ64dxcMqUKWb69OlhXCqUa2haRHUD8dGjR/t+DNJohKD7xGuou530Hmu7K0CiIfOrV6+2b8O/ERZI/Vkuwjg0HQEEEEAAAQQQQMAY7WedaDExDev92te+lrFMn3zyie+znXzyyb7ltSnU/OUhQ4b4XmLRokW+5X6FH3/8caxYvePpTloALduTgne/9OKLL5qqqiq/Q56y3bt3x8qcQXmssJo/EgXiH3zwQTWvRPVcFCAQz8W3SpsQQAABBBBAAIGQBcaPH++54ty5c01Y86w9Fw+pINEcYXvBtZBuE7tMogBuwYIFsTqpfixevNiqol5hLfpFSi2gEQ6JFl1btmxZ6gt8UeOVV16J1SsuLo79rumPRIH4hx9+WNNLcl4OCTA0PYdeJk1BAAEEEEAAAQTSIaDttzT015lKS0uN9hLP9JQoED/hhBPS8uitWrWyhjRv2bLFdX0txPbPf/7TfP3rX3eVx2e2bt0am+s8bNiw+MNpyT/66KPm4YcfTsu1a3LR+vXr1+Q0o+B53rx5nnM1GqFXr16e8vgCzRFX0pD0jh07xh+udj4vL8/3HE1V0CKCWuSPFF0BesSj++5pOQIIIIAAAgggEEhAq6drBWo7afGzqVOn2tmM/tc5zNv5oH5bSzmP1+Z3nz59fE8Psoe0vQK4ni9R77rvxWtR2LBhQ3P88cdnzH81nbv/ne98x1dB88QV+CZLO3fujC2KN3To0EAL6yW7no4lm7KhvehJ0RYgEI/2+6f1CCCAAAIIIIBAUoFVq1aZCRMmuOqo1zFdPcquG4WQqWnvam1u3a1bN9/Ttap6srRv3z7zwAMPWFUUDGrhNlJwgTPOOMMUFBR4TlAP9DvvvOMpdxb8/ve/j2UTrYcQqxDwhz5wJEqffvppokOUR0SAQDwiL5pmIoAAAggggAAC1RVQb3L8XFmtrq3h19mSnAtwOZ85UbmzTk1/t2vXzvdUBeIa5p8oPf3008Z+rp/85CeJqlGeRKBHjx6+R1esWOFbrsIDBw4YjfpQGjFiRGjz8pP17GsEAinaAgTi0X7/tB4BBBBAAAEEEPAV0FBezQNXb6KdtBhWXc1btu9Z23/VS+qX0jk0WD3ZftuOKch+++23/R7HaOXyO++80zqm7bbOPfdc33oUJhe4+uqrfSskmxagDyD2lnNjxozxPb8mhYcPH054WrJjCU/iQE4JEIjn1OukMQgggAACCCCAQDgC06ZNM88//3zsYtpXecaMGbF8tvxIFIine2hw586dfYns/cHjDzqDwZtuuin+cLXze/furfY5uXCC9rX3S0uXLvWdJ64PIPfcc491Sr9+/ULdBeB///uf36NYZaecckrCYxyIhgCBeDTeM61EAAEEEEAAAQQCC6xfv96zSrrmhZ966qmBr5EpFRs3buz7KM6eft8KtSy86qqrfK+wdu1aT7mC5ltuucUqHzx4sLn44os9dYIWVFZWGgWU6pXXx4B169YFPTUn6mmBNL85+hqNsG3bNk8bZ82aZewV7u2A3FOphgXJAnGGptcQNYdOIxDPoZdJUxBAAAEEEEAAgdoK7Nq1y7Mf86RJk3wXwartveri/ESBuO6dzuHBl112mW/zNmzY4CnX6AP7w8DEiRM9x6tT8Itf/CK2hZdWuh81alR1Ts+JukVFRb7tiF+wTX/rN998s1V37NixpkWLFr7n1bSwqqrK99RE+4v7VqYwZwUIxHP21dIwBBBAAAEEEECg+gJarMruIdTZXbp0MT/72c+qf6EMOSPR0HQ93p49e9L2lFox269nVqMNDh06FLuv9jm/++67rbw+eJxzzjmxY9X9oevOnj3bdZqGwv/jH/9wleV6pn379r5NrKiocJVPmTLFWhxPW8WNHz/edSyMTKJAPOyAP4xn5Rp1L0AgXvfm3BEBBBBAAAEEEMhIgSeeeMLMmTMn9mwKUBTYHY0twGIPUcsfF110UcIrpHPBNt20Q4cOvvf++9//Hiu/9957rWBQc/Bru1K63lOzZs1i17Z/ZOOUAvvZa/LvJZdc4nuas0dci7PdddddVr1f//rXJh1ztvWRxS+1bdvWr5iyiAkQiEfshdNcBBBAAAEEEEDAT0C9hZqf7Ezz588PbSsn53Xr8vdpp51mEi3gtWnTprQ+SqKe2ffee8+6rwJDe9/wBx980NR23nC9evWs7becjdJ+5PqgEqWkeeJ+q6c7pwXYc/K1FV9JSUlaeOz3HH/xK664Ir6IfAQFCMQj+NJpMgIIIIAAAggg4BTQEG1tTeZM48aNsxb7cpZl62+/IeJqi7OHNB1tu/zyy30vaw+RvvHGG63j6jmP36/d98QAhZpGsHz5cqu3V6veP/LIIwHOyr0q3/72tz2NevPNN61pAeXl5bGRH/oQ0qBBA0/dMAo2btzoe5lE6wf4VqYwZwUIxHP21dIwBBBAAAEEEEAgmIC2y7KDQ51RUFAQm7cc7AqZXcsvKNMTJwqUwmqNVi736xXXXuJ/+tOfjBZTU5o6dapRb3ZYSSu233777aZ3795ZPa2gNh7t2rXzPX3z5s3m+uuvt45dc801vvu9+55YzcL9+/e71lqwT9fohG9+85t2ln8jLEAgHuGXT9MRQAABBBBAAIE//OEPZvr06TEIBQqaJ67FxnIlJZqT6xyqnK62+gXiq1atim0PV1paahLNaU7XM0Xhuol6nbWKvHrGlSZPnpw2CueCh86bDBo0KNSPLs5r8zu7BAjEs+t98bQIIIAAAggggEBoAn/7299M//79XdfTvsrnnXeeqyzbM5p7rd7P+KQVzA8ePBhfHGrebz6wgjQtFqZU2+3KQn3YHLqYFqjLz8/3tGjZsmVWmeaIN2/e3HM8rIJEoy1++MMfhnULrpPlAgTiWf4CeXwEEEAAAQQQQKAmAho6+4Mf/MB16vDhw03fvn1dZbmSSbQFW7oXbGvdunVCQvXInn322QmPc6B2AomGp2vURzq2K3M+7aJFi5xZ67c+DPh9mPFUpCASAgTikXjNNBIBBBBAAAEEEHALTJgwwaxduzZWeOGFFxpt41TX6ciRI0bDiK+88kqzY8eOtN1eQZnfdmJ+AVOYD5FodIG2Kxs9enRot9q9e7fRUHttN6dt0DQvXtvRRTklGp6uBdpOPvnktNFoP3etARCfhgwZEl9EPsIC9b74f35HItx+mo4AAggggAACCEROYOHChaZnz56udmsFcQXjdZ0UPF566aXWbRVM5uXlpe0RysrKTPfu3V3XVy9lunvF9ZFB88KdSR8AEq3m7qyX7LcCeS38poX2/D5iPPvss57V8JNdL9eOLV261HTq1MnVLC1EuHLlyrStlK6brV692rNIn3rhtX+8ttMjISABesT5O0AAAQQQQAABBCIkoLnJ8UPSZ86ceVSCcLG/+OKLln6TJk3SGoTrJl27djXaN9qZ3n//fasn2VkW9u8WLVq4Lqm9vWsbhOuC27dvt+a4792713V9O1NYWGj/jOS/fqMRnnzyybQG4YK2/6ad6FrFniDcKcJvAnH+BhBAAAEEEEAAgYgIaMjsgAEDjHqe7aS8Vu4+GqmqqspMmzbNunWiYcRhPpe2CLvzzjs9l9TK8elM9evXj11eQ9J/9atfxfK1+aEeb+2JvW7dOs9l1PN7+umne8qjVOB0V7u1p3r8R5GwPfS/Lftv2r62PjKNHDnSzvIvApYAgTh/CAgggAACCCCAQEQE7rnnHmtYrt3cZs2aWcGJna/rf7V/tj2k+oILLqiT22v1dH18cCbNpdZHgXSkzz//3Pz1r3+NXXru3LlGw5TDTAr04lP81IP441HIO6cDdOnSxWgxwnSnxx9/3PWhS/e7//77jfaUJyHgFCAQd2rwGwEEEEAAAQQQyFEBbdt01113uVr3zDPPpHXRKtfN4jJ//vOfzc9//vNYaV0F4rrhb37zG+MMXvUxYMqUKbFnCfPHc889Z+w9pbVlluaLh53UKx6fOnfuHF8UqbxGf9x7771Wm/XhQwGyRkSkM+3bt8/88pe/dN2iR48ehi3LXCRkvhIgEOdPAQEEEEAAAQQQyHEBzSWOnxeuFdLbtGlT5y3X0F31EPbq1ct173QPGXbeTHtMxw9H1xzef//7385qtf796aefmlGjRlnX0UJ4fsPia32TLy6gRcmcSYGnvQCeszxKvx9++GFrETu1+be//a1p2rRp2puvtRbsER66maYh/O53vzPHHEPIlXb8LLwBfxVZ+NJ4ZAQQQAABBBBAIKjA4cOHTUlJiStAUC/dT3/606CXqFW9nTt3mtdee83aVmvMmDFWQDR27FjPNZs3b+4pS2fB1VdfbdRD7UwKxsNMN954Y8xdQ9KPO+64MC8fu9YLL7wQ+60fffr0MfHzo10VcjyjHQD0t6akaQj9+/dPe4u1+n/8dnTz5s2L/Dz9tMNn8Q3YviyLXx6PjgACCCCAAAIIpBJQ73N84KseU78VpVNdq7rHP/zww1ggmupczaWu657D/fv3GwXkr776auzx1LtcVFQUy9f0x4wZM2JzkrVS93XXXVfTSyU9b+vWrUZz/Z1pzpw5nhEQzuO5/FujELTwn6YDaBTC66+/bk444YS0Ntl5T/tGDz74oLnhhhvsLP8i4BEgEPeQUIAAAggggAACCOSGgALMb33rWxnfGA2j9lv5uy4e/KOPPrL2fNY2Zkr6SLF27Vpz/vnn1/j22qe6Y8eO1vkamq5h0ulKWmhu8ODBrsvrA8iZZ57pKotCRvPCi4uLre3D9B7Xr19v0j3S4siRI9Ze7QsWLIgR33bbbebuu++O5fmBgJ/AMX6FlCGAAAIIIIAAAghkt4CGhH/ve9/LikZcdNFFR+05zzjjDLN48eLY4m2aw969e3fzySef1OiZNCxaQ/+V2rdvbzQXP51Jz+5M+qgRxSBcBhoabu/hrakA6Q7Cdc+JEycaZxA+adIkgnDBkFIKEIinJKICAggggAACCCCQXQLqpfvxj39s/vWvf2XFg9fliul+IBqmry3G7JXUNaz52muv9WxDJVfNBX733XeNhtLHp02bNpnCwkLrPF1L+3wfe+yx8dVCy6sHuKyszHW93r17u/K5ktGHkdWrVxt9YIpPei/jxo0z06dPtw5pdwD7Y0h83bDyslfgf8cdd8QuqdX449cdiB3kBwJxAgTicSBkEUAAAQQQQACBbBfQVk3OXrpMb09thoGH1TbNJ9a+KN+KBAAACpVJREFU01rpWmn58uWmoKDAVFZWWvlXXnnF6IOBepxV95xzzrF60q2DX/wfBYlahV6rZmtYtHqqVSedSR8F1IPvTJ06dXJms/63guwhQ4ZYi55phMFpp51mLT742WefWW3bs2ePGTZsmLnvvvusvIbp33rrrWltt+7Zr18/axs8+0aaInD99dfbWf5FIKUAc8RTElEBAQQQQAABBBDILoGhQ4eaxx57LGseeuPGjaZVq1YZ8bzawkxBloJyJQXV6tnW4lt/+ctfPM/4ox/9yFqhfNasWbFjmpvftm3bWD5dPzQMevz48bHL61nVc9ygQYNYWbb/0AcOBeDxSR9MtBuAtqGz5/drhXRtF5bO9n/88cfmu9/9buzvQyMftGp9XbzveAPy2S2QO/8rze73wNMjgAACCCCAAAKhCWhYbl3smxzWA9fFXN6gz6pe7GXLlllDnR944AGrx7lbt24JV95W4GcnBcILFy6ss6Bs0aJF9q2tf/Wc6QxCXTero4zm3PslTbvQ/Gw76ePJ7Nmz095+Bf/2R5pevXoZfYDROgMkBKorQCBeXTHqI4AAAggggAACGS6gHjv9R6qZgOZ1T5kyxdqDWvutn3TSSdaq7lVVVQkvmJ+fb/WM1tUw+127dhmtzu5MCsTtpOHTCsrTOUfdvlc6/w3yYUFzwjUcvS62v9McfE0J0Hxw/jeWzjef+9dmaHruv2NaiAACCCCAAAIIIFBLgcmTJydciGvQoEFGveennHJKLe8S/HQt0qbV3Z1JvcQaCaEgvEOHDtZe8fPnz3dWybrf//3vf83FF1/sux+9hqc/8sgjRj3TJASyTYAe8Wx7YzwvAggggAACCCCAQJ0L3Hzzzeass84yjz76qNFwaa203q5dOzNixIijMr+9vLzcZaAF5OzpCMOHD7f20L7hhhtcdbIx07hxY/P6669bW4K99NJL5sCBA9aieOr9Ly0tNccdd1w2NotnRsDQI84fAQIIIIAAAggggAACWSbQt29f18r4o0aNMlOnTjUTJkywVhBXkDpz5swsaxWPi0B0BOgRj867pqUIIIAAAggggAACOSKwb98+V0u0wFzXrl3NkiVLrB7jhx56yHWcDAIIZJYA+4hn1vvgaRBAAAEEEEAAAQQQSClQVFTkqlNRUWEF4Vo0Tiu3N2rUyHWcDAIIZJYAgXhmvQ+eBgEEEEAAAQQQQACBlALFxcWeOlo07o033jCaV01CAIHMFmCOeGa/H54OAQQQQAABBBBAAAFfgU2bNhmtnp6Xl2fat29vWrZs6VuPQgQQyDwBAvHMeyc8EQIIIIAAAggggAACCCCAQA4LMDQ9h18uTUMAAQQQQAABBBBAAAEEEMg8AQLxzHsnPBECCCCAAAIIIJA1Anv37s2aZ+VBEUAAgUwRIBDPlDfBcyCAAAIIIIAAAlkkUFlZafr162etzt25c2ezbt26LHp6HhUBBBA4ugLMET+6/twdAQQQQAABBBDISoGSkhIze/bs2LMXFBSYNWvWxPL8QAABBBBILEAgntiGIwgggAACCCCAAAI+AocOHTINGzb0HNm2bZs599xzPeUUIIAAAgi4BRia7vYghwACCCCAAAIIIJBCoH79+qZZs2aeWqeeeqqnjAIEEEAAAa8AgbjXhBIEEEAAAQQQQACBJAL16tUzI0aMcNUYOnSoOfHEE11lZBBAAAEE/AUYmu7vQikCCCCAAAIIIIBACoEVK1YY/de6dWvTo0cPo55yEgIIIIBAagEC8dRG1EAAAQQQQAABBBBAAAEEEEAgNAGGpodGyYUQQAABBBBAAAEEEEAAAQQQSC1AIJ7aiBoIIIAAAggggAACCCCAAAIIhCZAIB4aJRdCAAEEEEAAAQQQQAABBBBAILVAg9RVqIEAAggggAACCCCAwJcCu3fvNpWVlWbjxo1m/fr15q233jIDBw40JSUlECGAAAIIBBQgEA8IRTUEEEAAAQQQQCCqAqNHjzZvv/22qaioMDt27PAwjBw50lNGAQIIIIBAYgGGpie24QgCCCCAAAIIIIDAFwLbt283Bw8eNHv37vX1KCws9C2nEAEEEEDAX4Dty/xdKEUAAQQQQAABBBCIE9i8ebPJz893lRYUFJg1a9a4ysgggAACCCQXoEc8uQ9HEUAAAQQQQAABBL4SaNKkiceiZ8+enjIKEEAAAQSSCxCIJ/fhKAIIIIAAAggggMBXAuXl5R6Lzp07e8ooQAABBBBILkAgntyHowgggAACCCCAAAJfCSxdutRlceKJJ5pLL73UVUYGAQQQQCC1AIF4aiNqIIAAAggggAACCHwh8MILL7gc+vTpY+rXr+8qI4MAAgggkFqAQDy1ETUQQAABBBBAAIHIC2zdutVs2bLF5dCtWzdXngwCCCCAQDABAvFgTtRCAAEEEEAAAQQiLbB8+XJP+9m2zENCAQIIIBBIgEA8EBOVEEAAAQQQQACBaAssXrzYBaC54WeeeaarjAwCCCCAQDABAvFgTtRCAAEEEEAAAQQiK3Do0CFTVlbman/v3r1deTIIIIAAAsEFCMSDW1ETAQQQQAABBBCIpMCGDRvM7t27XW3v1KmTK08GAQQQQCC4AIF4cCtqIoAAAggggAACkRR4+eWXXe3WtmVXXHGFq4wMAggggEBwAQLx4FbURAABBBBAAAEEIimwaNEiV7u1WnqDBg1cZWQQQAABBIILEIgHt6ImAggggAACCCAQOYFdu3aZlStXutrt3LZsz5495sCBA67jZBBAAAEEkgsQiCf34SgCCCCAAAIIIBBpgVWrVnnab88PVxDeoUMHM2DAAE8dChBAAAEEEgsQiCe24QgCCCCAAAIIIBB5gfLycpfBhRdeaJo2bWqVDR8+3Kxfv96wgrqLiAwCCCCQUoBAPCURFRBAAAEEEEAAgegKbNq0ydX4wsJCc/jwYTNu3Djz1FNPmdLSUjNw4EBXHTIIIIAAAskFWGUjuQ9HEUAAAQQQQACBSAvs27fP1f5ly5aZrl27miVLlpg2bdqYhx56yHWcDAIIIIBAagF6xFMbUQMBBBBAAAEEEIisQFFRkavtFRUVVhCen59vFi5caBo1auQ6TgYBBBBAILUAgXhqI2oggAACCCCAAAKRFSguLva0fdCgQeaNN94wjRs39hyjAAEEEEAgtUC9I1+k1NWogQACCCCAAAIIIBBVAc0TLysrM3l5eaZ9+/amZcuWUaWg3QgggEAoAgTioTByEQQQQAABBBBAAAEEEEAAAQSCCTA0PZgTtRBAAAEEEEAAAQQQQAABBBAIRYBAPBRGLoIAAggggAACCCCAAAIIIIBAMAEC8WBO1EIAAQQQQAABBBBAAAEEEEAgFAEC8VAYuQgCCCCAAAIIIIAAAggggAACwQQIxIM5UQsBBBBAAAEEEEAAAQQQQACBUAQIxENh5CIIIIAAAggggAACCCCAAAIIBBMgEA/mRC0EEEAAAQQQQAABBBBAAAEEQhEgEA+FkYsggAACCCCAAAIIIIAAAgggEEyAQDyYE7UQQAABBBBAAAEEEEAAAQQQCEWAQDwURi6CAAIIIIAAAggggAACCCCAQDABAvFgTtRCAAEEEEAAAQQQQAABBBBAIBSB/wNcRSpNggJs8QAAAABJRU5ErkJggg==;" parent="cIYBzhSVWRX3Auf7i21r-5" vertex="1">
          <mxGeometry x="50" y="87.85" width="113.85" height="39.97" as="geometry" />
        </mxCell>
        <mxCell id="cIYBzhSVWRX3Auf7i21r-54" value="" style="shape=step;perimeter=stepPerimeter;whiteSpace=wrap;html=1;fixedSize=1;rounded=0;fontFamily=Helvetica;fontSize=12;fontColor=default;strokeColor=#000000;fillColor=#B3B3B3;rotation=90;size=7.5;" parent="cIYBzhSVWRX3Auf7i21r-5" vertex="1">
          <mxGeometry x="93.78" y="130.00000000000003" width="32.44" height="18.12" as="geometry" />
        </mxCell>
        <mxCell id="cIYBzhSVWRX3Auf7i21r-7" value="" style="html=1;shadow=1;dashed=0;align=center;verticalAlign=middle;shape=mxgraph.arrows2.arrow;dy=0;dx=10;notch=10;fillColor=#E6E6E6;" parent="cIYBzhSVWRX3Auf7i21r-1" vertex="1">
          <mxGeometry x="20" y="20" width="240" height="30" as="geometry" />
        </mxCell>
        <mxCell id="cIYBzhSVWRX3Auf7i21r-9" value="" style="html=1;shadow=1;dashed=0;align=center;verticalAlign=middle;shape=mxgraph.arrows2.arrow;dy=0;dx=10;notch=10;fillColor=#CCCCCC;" parent="cIYBzhSVWRX3Auf7i21r-1" vertex="1">
          <mxGeometry x="270" y="20" width="230" height="30" as="geometry" />
        </mxCell>
        <mxCell id="cIYBzhSVWRX3Auf7i21r-10" value="" style="html=1;shadow=1;dashed=0;align=center;verticalAlign=middle;shape=mxgraph.arrows2.arrow;dy=0;dx=10;notch=10;fillColor=#B3B3B3;" parent="cIYBzhSVWRX3Auf7i21r-1" vertex="1">
          <mxGeometry x="510" y="20" width="230" height="30" as="geometry" />
        </mxCell>
        <mxCell id="cIYBzhSVWRX3Auf7i21r-24" value="&lt;font face=&quot;Times New Roman&quot; style=&quot;font-size: 14px&quot;&gt;&lt;b&gt;I. Data Processing&lt;/b&gt;&lt;/font&gt;" style="text;html=1;strokeColor=none;fillColor=none;align=center;verticalAlign=middle;whiteSpace=wrap;rounded=0;fontSize=18;shadow=1;" parent="cIYBzhSVWRX3Auf7i21r-1" vertex="1">
          <mxGeometry x="30" y="20" width="220" height="30" as="geometry" />
        </mxCell>
        <mxCell id="cIYBzhSVWRX3Auf7i21r-25" value="&lt;font face=&quot;Times New Roman&quot; style=&quot;font-size: 14px&quot;&gt;&lt;b&gt;II. Modeling&amp;nbsp;&lt;/b&gt;&lt;/font&gt;" style="text;html=1;strokeColor=none;fillColor=none;align=center;verticalAlign=middle;whiteSpace=wrap;rounded=0;fontSize=18;shadow=1;" parent="cIYBzhSVWRX3Auf7i21r-1" vertex="1">
          <mxGeometry x="280" y="20" width="210" height="30" as="geometry" />
        </mxCell>
        <mxCell id="cIYBzhSVWRX3Auf7i21r-26" value="&lt;font face=&quot;Times New Roman&quot; style=&quot;font-size: 14px&quot;&gt;&lt;b&gt;III. Evaluation and Interpretation&lt;/b&gt;&lt;/font&gt;" style="text;html=1;strokeColor=none;fillColor=none;align=center;verticalAlign=middle;whiteSpace=wrap;rounded=0;fontSize=18;" parent="cIYBzhSVWRX3Auf7i21r-1" vertex="1">
          <mxGeometry x="520" y="20" width="210" height="30" as="geometry" />
        </mxCell>
        <mxCell id="cIYBzhSVWRX3Auf7i21r-85" value="" style="swimlane;startSize=0;" parent="cIYBzhSVWRX3Auf7i21r-1" vertex="1">
          <mxGeometry x="20" y="60" width="230" height="280" as="geometry" />
        </mxCell>
        <mxCell id="cIYBzhSVWRX3Auf7i21r-101" value="" style="rounded=0;whiteSpace=wrap;html=1;shadow=1;fontFamily=Times New Roman;fontSize=12;fontColor=default;strokeColor=#000000;fillColor=#F8CECC;" parent="cIYBzhSVWRX3Auf7i21r-85" vertex="1">
          <mxGeometry width="230" height="280" as="geometry" />
        </mxCell>
        <mxCell id="cIYBzhSVWRX3Auf7i21r-86" value="" style="rounded=0;whiteSpace=wrap;html=1;shadow=0;fontFamily=Times New Roman;fontSize=4;fontColor=default;strokeColor=#000000;fillColor=#FFFFFF;" parent="cIYBzhSVWRX3Auf7i21r-85" vertex="1">
          <mxGeometry x="10" y="10" width="210" height="80" as="geometry" />
        </mxCell>
        <mxCell id="cIYBzhSVWRX3Auf7i21r-87" value="" style="rounded=0;whiteSpace=wrap;html=1;shadow=0;fontFamily=Times New Roman;fontSize=4;fontColor=default;strokeColor=#000000;fillColor=#FFFFFF;" parent="cIYBzhSVWRX3Auf7i21r-85" vertex="1">
          <mxGeometry x="10" y="110" width="210" height="160" as="geometry" />
        </mxCell>
        <mxCell id="cIYBzhSVWRX3Auf7i21r-88" value="" style="shape=step;perimeter=stepPerimeter;whiteSpace=wrap;html=1;fixedSize=1;rounded=0;fontFamily=Helvetica;fontSize=12;fontColor=default;strokeColor=#000000;fillColor=#E6E6E6;rotation=90;size=7.5;" parent="cIYBzhSVWRX3Auf7i21r-85" vertex="1">
          <mxGeometry x="93.78" y="90.00000000000003" width="32.44" height="18.12" as="geometry" />
        </mxCell>
        <mxCell id="cIYBzhSVWRX3Auf7i21r-89" value="&lt;font face=&quot;Times New Roman&quot; style=&quot;font-size: 14px&quot;&gt;&lt;i&gt;&lt;b&gt;Dataset Preparation&lt;/b&gt;&lt;/i&gt;&lt;/font&gt;" style="text;html=1;strokeColor=none;fillColor=none;align=center;verticalAlign=middle;whiteSpace=wrap;rounded=0;fontFamily=Helvetica;fontSize=12;fontColor=default;" parent="cIYBzhSVWRX3Auf7i21r-85" vertex="1">
          <mxGeometry x="10" y="10" width="210" height="30" as="geometry" />
        </mxCell>
        <mxCell id="cIYBzhSVWRX3Auf7i21r-90" value="&lt;ol&gt;&lt;li&gt;&lt;font face=&quot;Times New Roman&quot;&gt;Collection&lt;/font&gt;&lt;/li&gt;&lt;li&gt;&lt;font face=&quot;Times New Roman&quot;&gt;Cleaning&lt;/font&gt;&lt;/li&gt;&lt;li&gt;&lt;font face=&quot;Times New Roman&quot;&gt;Analysis&lt;/font&gt;&lt;/li&gt;&lt;/ol&gt;" style="text;html=1;strokeColor=none;fillColor=none;align=center;verticalAlign=middle;whiteSpace=wrap;rounded=0;fontFamily=Helvetica;fontSize=12;fontColor=default;" parent="cIYBzhSVWRX3Auf7i21r-85" vertex="1">
          <mxGeometry x="10" y="30" width="180" height="50" as="geometry" />
        </mxCell>
        <mxCell id="cIYBzhSVWRX3Auf7i21r-92" value="&lt;font face=&quot;Times New Roman&quot; style=&quot;font-size: 14px&quot;&gt;&lt;i&gt;&lt;b&gt;Train/Test Split&lt;/b&gt;&lt;/i&gt;&lt;/font&gt;" style="text;html=1;strokeColor=none;fillColor=none;align=center;verticalAlign=middle;whiteSpace=wrap;rounded=0;fontFamily=Helvetica;fontSize=12;fontColor=default;" parent="cIYBzhSVWRX3Auf7i21r-85" vertex="1">
          <mxGeometry x="10" y="110" width="210" height="40" as="geometry" />
        </mxCell>
        <mxCell id="cIYBzhSVWRX3Auf7i21r-93" value="&lt;font face=&quot;Times New Roman&quot; style=&quot;font-size: 12px&quot;&gt;(75%&amp;nbsp; /&amp;nbsp; 25%)&lt;/font&gt;" style="text;html=1;strokeColor=none;fillColor=none;align=center;verticalAlign=middle;whiteSpace=wrap;rounded=0;fontFamily=Helvetica;fontSize=12;fontColor=default;" parent="cIYBzhSVWRX3Auf7i21r-85" vertex="1">
          <mxGeometry x="10" y="140" width="210" height="10" as="geometry" />
        </mxCell>
        <mxCell id="cIYBzhSVWRX3Auf7i21r-96" value="X" style="swimlane;rounded=0;shadow=0;fontFamily=Times New Roman;fontSize=12;fontColor=default;strokeColor=#000000;fillColor=#B3B3B3;html=1;startSize=23;" parent="cIYBzhSVWRX3Auf7i21r-85" vertex="1">
          <mxGeometry x="16.22" y="160" width="133.78" height="100" as="geometry" />
        </mxCell>
        <mxCell id="cIYBzhSVWRX3Auf7i21r-97" value="Y" style="swimlane;rounded=0;shadow=0;fontFamily=Times New Roman;fontSize=12;fontColor=default;strokeColor=#000000;fillColor=#B3B3B3;html=1;startSize=23;" parent="cIYBzhSVWRX3Auf7i21r-85" vertex="1">
          <mxGeometry x="160" y="160" width="53.78" height="100" as="geometry" />
        </mxCell>
        <mxCell id="cIYBzhSVWRX3Auf7i21r-99" value="&lt;font face=&quot;times new roman&quot;&gt;Yvar&lt;br&gt;&lt;/font&gt;" style="text;html=1;strokeColor=none;fillColor=none;align=center;verticalAlign=middle;whiteSpace=wrap;rounded=0;fontFamily=Helvetica;fontSize=12;fontColor=default;" parent="cIYBzhSVWRX3Auf7i21r-97" vertex="1">
          <mxGeometry x="1.8899999999999864" y="20" width="50" height="70" as="geometry" />
        </mxCell>
        <mxCell id="cIYBzhSVWRX3Auf7i21r-98" value="&lt;font face=&quot;times new roman&quot;&gt;Var1, Var2, Var3&lt;br&gt;&lt;/font&gt;" style="text;html=1;strokeColor=none;fillColor=none;align=center;verticalAlign=middle;whiteSpace=wrap;rounded=0;fontFamily=Helvetica;fontSize=12;fontColor=default;" parent="cIYBzhSVWRX3Auf7i21r-85" vertex="1">
          <mxGeometry x="16.22" y="187.5" width="133.78" height="62.5" as="geometry" />
        </mxCell>
        <mxCell id="b1kimwlJpstsaSKawa3M-5" style="edgeStyle=orthogonalEdgeStyle;rounded=0;orthogonalLoop=1;jettySize=auto;html=1;entryX=0;entryY=0.5;entryDx=0;entryDy=0;" parent="cIYBzhSVWRX3Auf7i21r-1" source="cIYBzhSVWRX3Auf7i21r-87" target="cIYBzhSVWRX3Auf7i21r-27" edge="1">
          <mxGeometry relative="1" as="geometry" />
        </mxCell>
        <mxCell id="b1kimwlJpstsaSKawa3M-6" style="edgeStyle=orthogonalEdgeStyle;rounded=0;orthogonalLoop=1;jettySize=auto;html=1;entryX=0;entryY=0.5;entryDx=0;entryDy=0;" parent="cIYBzhSVWRX3Auf7i21r-1" source="cIYBzhSVWRX3Auf7i21r-43" target="cIYBzhSVWRX3Auf7i21r-57" edge="1">
          <mxGeometry relative="1" as="geometry" />
        </mxCell>
      </root>
    </mxGraphModel>
  </diagram>
</mxfile>
